<?xml version="1.0" standalone="no"?>
<!DOCTYPE svg PUBLIC "-//W3C//DTD SVG 1.1//EN" "http://www.w3.org/Graphics/SVG/1.1/DTD/svg11.dtd" >
<svg>
<metadata>
Created by FontForge 20090914 at Thu Oct 28 10:45:43 2021
 By www-data
Copyright (c) Typographer Mediengestaltung, 2000. All rights reserved.
</metadata>
<defs>
<font id="CaslonAntique" horiz-adv-x="500" >
  <font-face 
    font-family="Caslon Antique"
    font-weight="400"
    font-stretch="normal"
    units-per-em="1000"
    panose-1="2 0 5 3 0 0 0 0 0 0"
    ascent="800"
    descent="-200"
    x-height="356.998"
    cap-height="671.998"
    bbox="-187.002 -312.004 828.002 887"
    underline-thickness="42"
    underline-position="-109"
    unicode-range="U+0020-U+FFFD"
  />
<missing-glyph 
d="M63 0v887h375v-887h-375zM125 63h250v761h-250v-761z" />
    <glyph glyph-name=".notdef" unicode="&#xfffd;" 
d="M63 0v887h375v-887h-375zM125 63h250v761h-250v-761z" />
    <glyph glyph-name="space" unicode=" " horiz-adv-x="325" 
 />
    <glyph glyph-name="exclam" unicode="!" horiz-adv-x="214" 
d="M89 200l0.000976562 24c0 5.33301 -1 16 -3 32c-0.666992 6 -1.5 14.667 -2.5 26s-1.83301 19.333 -2.5 24c-0.666992 22.667 -2.66699 49.667 -6 81c-1.33301 8.66699 -5 21 -11 37c-2.66699 8 -4.33398 33.667 -5.00098 77c-0.666992 29.333 -3.66699 62.666 -9 99.999
v8c0 14 3 30 9 48c4.66699 14.667 15.334 23 32.001 25c14 2.66699 23.667 4 29 4c30 0 45 -30.333 45 -91c0 -4 -1.33301 -20.667 -4 -50c-4 -37.333 -7.66699 -65.666 -11 -84.999v-35l-8 -60c-0.666992 -6.66699 -3.33398 -23.667 -8.00098 -51
c0 -0.666992 -0.666992 -7.66699 -2 -21l-4 -74c0 -3.33301 -0.333008 -7.5 -1 -12.5s-1 -9.16699 -1 -12.5l-1 -5c0 -1.33301 0.166992 -4.83301 0.5 -10.5s0.5 -9.5 0.5 -11.5c0 -8 -4.66699 -12 -14 -12c-12 0 -19.333 4.33301 -22 13c-0.666992 1.33301 -1 12 -1 32z
M94.001 92c4.66699 0 14 -3.33496 28 -10.002c16.667 -7.33301 25.667 -12 27 -14c5.33301 -5.33301 8 -14.666 8 -27.999c0 -15.333 -3.66699 -26.666 -11 -33.999c-8.66699 -8.66699 -23.667 -13 -45 -13c-6.66699 0 -17.667 6.66699 -33 20
c-7.33301 7.33301 -11 18 -11 32c0 31.333 12.333 47 37 47z" />
    <glyph glyph-name="quotedbl" unicode="&#x22;" horiz-adv-x="336" 
d="M90 683c16 0 28.667 -9.66602 38 -28.999c7.33301 -17.333 10.666 -27 9.99902 -29l-9 -40l-2 -15c-6.66699 -16.667 -10.667 -28.334 -12 -35.001c-0.666992 -4.66699 -1 -12 -1 -22s-0.333008 -17.667 -1 -23c-2 -22 -7.66699 -33 -17 -33c-20 0 -30 27.667 -30 83
c0 2 -1.66699 7.33301 -5 16c-8.66699 18 -13 35 -13 51c0 8.66699 1.66699 17 5 25c0.666992 10 2.33398 17.333 5.00098 22c11.333 19.333 22 29 32 29zM262 690.001c13.333 0 25.334 -11 36.001 -33c1.33301 -2 2.33301 -8 3 -18c2.66699 -6 4 -11.333 4 -16
c0 -19.333 -4 -39.333 -12 -60c-3.33301 -8.66699 -6.33301 -20.667 -9 -36c-6.66699 -42.667 -14.667 -64 -24 -64c-4.66699 0 -11.334 3.33301 -20.001 10c-4.66699 2.66699 -7 7 -7 13c0 2.66699 0.166992 7.5 0.5 14.5s0.5 11.167 0.5 12.5
c0 4.66699 -1.66699 18.667 -5 42c-1.33301 13.333 -5.33301 34 -12 62c-0.666992 1.33301 -1 4 -1 8c0 8.66699 3.33301 20.667 10 36l6 17c5.33301 8 15.333 12 30 12z" />
    <glyph glyph-name="numbersign" unicode="#" horiz-adv-x="520" 
d="M447 275c18 0 27.0029 -5.00391 27.0029 -15.0039c0 -6 -1 -15 -3 -27c-0.666992 -8.66699 -3.33398 -13.667 -8.00098 -15c-5.33301 -2 -24.666 -3.33301 -57.999 -4c-27.333 -0.666992 -45.333 -4.33398 -54 -11.001c-7.33301 -10.667 -11 -22.334 -11 -35.001l1 -23
c0 -3.33301 -2.33301 -12 -7 -26c-2 -8 -4 -23.333 -6 -46c-1.33301 -20 -8.33301 -30 -21 -30c-1.33301 0 -7 1 -17 3l-12 -1c-7.33301 0 -11 3.66699 -11 11l1 9c2.66699 26.667 5.66699 45 9 55c0.666992 2.66699 1.66699 9 3 19
c0.666992 2.66699 2.33398 11.334 5.00098 26.001c4 14.667 6 24.334 6 29.001s-4.33301 8.33398 -13 11.001c-6.66699 2 -10.667 3 -12 3l-33 -1h-25c-10.667 -1.33301 -17.334 -5 -20.001 -11c-2.66699 -3.33301 -5 -11.333 -7 -24
c-4.66699 -17.333 -7.66699 -27.333 -9 -30c0 -5.33301 -0.333008 -11 -1 -17l-2 -13c0 -4 -0.5 -10.167 -1.5 -18.5s-1.83301 -14.833 -2.5 -19.5c-4.66699 -20.667 -13.334 -31 -26.001 -31c-14.667 0 -25 2 -31 6c-2.66699 2.66699 -4 7.66699 -4 15c0 8 1.33301 21 4 39
c1.33301 8 2.33301 13.333 3 16c1.33301 9.33301 2.66602 16.666 3.99902 21.999c4.66699 14 7 25.667 7 35c0 11.333 -1.33301 19.833 -4 25.5s-6.66699 8.16699 -12 7.5h-9l-52 -4h-5c-18.667 0 -28.667 4.66699 -30 14v13c0 17.333 4.66699 27.666 14 30.999
c5.33301 0 11 0.333008 17 1l24 3l26 -1c22.667 0 37.667 3.66699 45 11c5.33301 6.66699 8.66602 24 9.99902 52c0 8.66699 2 19.667 6 33c1.33301 5.33301 2 10.333 2 15c0 12.667 -5 19 -15 19h-5l-45 -2c-2.66699 0 -5.16699 -0.166992 -7.5 -0.5
s-4.16602 -0.666016 -5.49902 -0.999023s-2.33301 -0.5 -3 -0.5c-21.333 0 -32 4 -32 12c0 23.333 2.33301 37.333 7 42c2.66699 2.66699 11.334 4.33398 26.001 5.00098l25 2c5.33301 0.666992 13.833 1.16699 25.5 1.5s20.5 0.5 26.5 0.5
c19.333 3.33301 28.666 17.333 27.999 42v25c0 2.66699 2 11.334 6 26.001c2 8 4 23.333 6 46c2 20 9 30 21 30c2.66699 0 8.33398 -1 17.001 -3l13 1c7.33301 0 10.666 -3.66699 9.99902 -11l-1 -9c-3.33301 -31.333 -6 -50 -8 -56
c-1.33301 -4.66699 -3 -14.334 -5 -29.001l-3 -15c-4 -15.333 -6 -25 -6 -29c0 -4.66699 4 -8.66699 12 -12c7.33301 -2 11.333 -3 12 -3l33 2c8 0 20.667 0.666992 38 2c2 0 5 2.66699 9 8c2 5.33301 4 13.333 6 24c5.33301 19.333 8 29.333 8 30
s0.166992 1.83398 0.5 3.50098s0.666016 3.66699 0.999023 6s0.5 4.83301 0.5 7.5l2 14c0.666992 10 1.66699 22.667 3 38c5.33301 20 14.333 30 27 30c14 0 24 -2 30 -6c3.33301 -2 5 -6.66699 5 -14c0 -1.33301 -1.66699 -14.333 -5 -39
c-1.33301 -8 -2.33301 -13.667 -3 -17c0 -1.33301 -0.333008 -3.16602 -1 -5.49902s-1.5 -5.83301 -2.5 -10.5l-2.5 -12c-3.33301 -13.333 -5 -22.666 -5 -27.999c0 -22 5.66699 -33 17 -33c1.33301 0 5 0.166992 11 0.5s10 0.5 12 0.5c4.66699 0 9.66699 0.166992 15 0.5
s9.66602 0.666016 12.999 0.999023s6.33301 0.5 9 0.5c2 0.666992 4 1 6 1c16 0 26 -2 30 -6c2 -2 3 -9.33301 3 -22c0 -17.333 -6 -27.333 -18 -30h-2c-1.33301 -0.666992 -3.33301 -1.16699 -6 -1.5s-5.33398 -0.5 -8.00098 -0.5l-25 -2
c-8.66699 0 -25.667 -0.666992 -51 -2c-12.667 -2 -20.667 -7 -24 -15c-0.666992 -3.33301 -1.66699 -8.66602 -3 -15.999l-1 -6c0 -10.667 -2.66699 -29.334 -8 -56.001c-1.33301 -5.33301 -2 -10.333 -2 -15c0 -6.66699 1.33301 -11.667 4 -15
s6.33398 -4.66602 11.001 -3.99902h9c4.66699 0.666992 11.5 1.16699 20.5 1.5s15.833 0.5 20.5 0.5c10.667 1.33301 16.334 2 17.001 2zM296.003 394.996l-30.001 -1.99902c-16 0 -28.333 -0.333008 -37 -1c-3.33301 -1.33301 -6.33301 -4.33301 -9 -9
c-2.66699 -3.33301 -5 -11.333 -7 -24c-1.33301 -5.33301 -2.66602 -10.333 -3.99902 -15s-2.33301 -8.33398 -3 -11.001s-1 -4.33398 -1 -5.00098c0 -4.66699 -0.333008 -10 -1 -16c0 -2 -0.333008 -4.83301 -1 -8.5s-1.16699 -6.83398 -1.5 -9.50098
s-0.5 -4.33398 -0.5 -5.00098c0 -10 3 -15.333 9 -16c0.666992 0 1.5 -0.166992 2.5 -0.5s2.5 -0.666016 4.5 -0.999023s4 -0.5 6 -0.5l30 2c4 0.666992 10.333 1.16699 19 1.5s15 0.5 19 0.5c3.33301 1.33301 6 4 8 8c2.66699 4.66699 5 13 7 25c4.66699 16 7 25.667 7 29
c0 0.666992 0.666992 6.33398 2 17.001c0.666992 2 1.16699 4.66699 1.5 8s0.5 6 0.5 8c0.666992 2.66699 1 5.33398 1 8.00098c0 9.33301 -3.33301 14.333 -10 15c-1.33301 0.666992 -3.33301 1.16699 -6 1.5s-4.66699 0.5 -6 0.5z" />
    <glyph glyph-name="dollar" unicode="$" horiz-adv-x="469" 
d="M61 246c1.33301 0 4.00098 -0.664062 8.00098 -1.99707c1.33301 -2.66699 3 -6.66699 5 -12l5 -11l8 -30l7 -16l9 -23l15 -22c5.33301 -14 12.333 -27 21 -39c2 -4 10 -10.667 24 -20c12.667 -8.66699 21.667 -13 27 -13s10 6.33301 14 19c3.33301 10 5 16 5 18v29l3 30
c0 1.33301 -0.166992 3.5 -0.5 6.5s-0.666016 7.16699 -0.999023 12.5s-0.5 10.666 -0.5 15.999c-0.666992 2.66699 -1 5.66699 -1 9c0 2.66699 0.333008 5 1 7c1.33301 17.333 2 26.666 2 27.999c0 30 -3.66699 51.667 -11 65c-0.666992 1.33301 -9 7 -25 17l-14 12l-31 10
l-8 6c-10 7.33301 -22 19.666 -36 36.999l-24 49c-2 4 -4 12.667 -6 26c-4 15.333 -6 25.666 -6 30.999c0 9.33301 2 25.333 6 48c0 1.33301 3.33301 9.66602 10 24.999c24 48.667 63.333 79 118 91l13 3c16 4 24 6.66699 24 8l-5 55c0 6 7.33301 9 22 9
c6 0 10.5 -1 13.5 -3s4.16699 -5 3.5 -9v-11l-1 -18l-4 -20c0 -6.66699 7.66699 -10.667 23 -12l16 -2l52 -20l41 -10c2 -0.666992 4.33301 -3 7 -7c2 -3.33301 3 -19.666 3 -48.999l2 -14l1 -31v-12c0.666992 -4.66699 1.16699 -11.834 1.5 -21.501s0.5 -17.167 0.5 -22.5
c0.666992 -2.66699 1 -6 1 -10c0 -8.66699 -5.33301 -13 -16 -13c-6 0 -10.333 6 -13 18c-0.666992 2 -2.66699 7 -6 15s-6 15 -8 21l-19 31c-7.33301 22 -12.333 35 -15 39c-1.33301 1.33301 -10.333 7.33301 -27 18l-29 19c-4 0 -6.66699 -4 -8 -12l-6 -23l-1 -25l-1 -12
l1 -35c0 -16 -0.333008 -29 -1 -39l-2 -34c-0.666992 -12 3.66602 -22.667 12.999 -32c6 -6 19.333 -15.333 40 -28l41 -14c2.66699 -0.666992 5.66699 -2.66699 9 -6c1.33301 -0.666992 10.666 -13.667 27.999 -39l18 -26l7 -18c5.33301 -13.333 8.33301 -22.666 9 -27.999
c7.33301 -19.333 11 -36 11 -50c0 -16.667 -6 -35 -18 -55c-1.33301 -2 -4.33301 -7.66699 -9 -17s-9 -17.333 -13 -24c-5.33301 -8 -9 -14.333 -11 -19c-0.666992 0 -1.66699 -0.5 -3 -1.5s-3 -2.33301 -5 -4s-4 -3.16699 -6 -4.5c-18 -12 -29.667 -19 -35 -21
c-18.667 -8.66699 -34 -13.667 -46 -15c-23.333 -4 -35 -13 -35 -27c0 -6 1.33301 -14.667 4 -26v-3l-1 -2c0 -1.33301 -0.166992 -3.33301 -0.5 -6s-0.5 -5.33398 -0.5 -8.00098l-1 -9l2 -35c0 -7.33301 -5.33301 -11 -16 -11c-6 0 -12.333 3.33301 -19 10c-2 2 -3 9 -3 21
c-2 8.66699 -3 14.334 -3 17.001c0 2 1.66699 11.333 5 28c0 2 -0.5 6 -1.5 12s-1.5 9.66699 -1.5 11c-0.666992 11.333 -4 20.333 -10 27c-2.66699 1.33301 -11.667 3 -27 5c-1.33301 0 -11 4 -29 12c-2.66699 1.33301 -27 9.33301 -73 24c-17.333 5.33301 -26 13 -26 23
c0 2 0.666992 8.33301 2 19v4v5l-4 40v4c0.666992 2.66699 1.5 7 2.5 13s1.83301 12 2.5 18l-2 26l2 12c1.33301 10.667 2.33301 16.334 3 17.001c2.66699 4 7 6 13 6zM193.001 621.003c-0.666992 0 -14.667 -7.99805 -42 -23.998c-4 -2.66699 -9.66699 -13 -17 -31
c-6.66699 -16 -10 -28.333 -10 -37c0 -14.667 5.66699 -31.667 17 -51c0.666992 -0.666992 3 -5.33398 7 -14.001c5.33301 -8.66699 8.33301 -13.334 9 -14.001l28 -18c8.66699 -6 13.667 -9 15 -9c11.333 0 17 15.667 17 47c0 4.66699 -1 13 -3 25l1 10l-1 19l6 65
c0 21.333 -9 32 -27 32zM261.001 273.005c-9.33301 0 -14.001 -7.66992 -14.001 -23.0029c0 -1.33301 0.333008 -5.16602 1 -11.499s1 -10.5 1 -12.5c0 -1.33301 -1 -8.66602 -3 -21.999v-8v-48c-2 -14.667 -3 -24.667 -3 -30s0.333008 -10 1 -14
c0.666992 -7.33301 0.833984 -13.166 0.500977 -17.499s-0.333008 -8.5 0 -12.5s0.833008 -8 1.5 -12c2 -10 5 -14 9 -12l19 9c8 3.33301 18 8.33301 30 15c13.333 10.667 24.333 27.667 33 51c4 8.66699 6 21.667 6 39c0 34 -16 62.667 -48 86
c-18.667 14 -30 21.667 -34 23z" />
    <glyph glyph-name="percent" unicode="%" horiz-adv-x="574" 
d="M144 679c18 0 31.668 -2.66309 41.001 -7.99609c36 -21.333 56.333 -50 61 -86c2 -14 4 -24.667 6 -32l2 -11l1 -6c0 -2 0.5 -7.33301 1.5 -16s1.5 -14.334 1.5 -17.001c0 -4.66699 -1 -11.334 -3 -20.001l-1 -11l-5 -44
c-2.66699 -20.667 -8.33398 -37.334 -17.001 -50.001c-13.333 -20 -26 -34.333 -38 -43c-14.667 -10 -32.667 -15 -54 -15c-26.667 0 -55 14 -85 42c-8 8 -14 20 -18 36c-4 13.333 -6 20.666 -6 21.999l1 30c0 3.33301 -0.666992 12.333 -2 27l2 18
c0.666992 3.33301 1.16699 9 1.5 17s0.5 14 0.5 18l2 13l5 19c3.33301 20.667 10.333 40.334 21 59.001c12.667 23.333 23.667 37.666 33 42.999c16.667 10 33 15 49 15zM90.001 534.004l0.00195312 -7.00098c0 -6 0.333008 -10.333 1 -13v-5l-3 -37l1 -15l-1 -20
c0.666992 -12.667 1.66699 -21 3 -25c8 -28.667 19.333 -45.334 34 -50.001c6 -2 13.667 -3 23 -3c25.333 0 38.666 17.667 39.999 53c0 2.66699 0.666992 8.33398 2 17.001s2.33301 16 3 22c2 19.333 3 30 3 32c0 6 -0.333008 12.667 -1 20l1 19l-1 15l-1 46
c-0.666992 2 -1.83398 5.83301 -3.50098 11.5s-2.83398 9.83398 -3.50098 12.501c-6 22.667 -20.333 34 -43 34c-22 0 -36.333 -6.33301 -43 -19c-3.33301 -6.66699 -5.66602 -19.667 -6.99902 -39l-2 -9v-13zM477.003 684.003c15.333 0 22.9971 -5.33398 22.9971 -16.001
c0 -4 -1 -8 -3 -12l-65 -111c-6 -12.667 -11 -23.667 -15 -33c-2.66699 -6 -10.334 -18 -23.001 -36c-2.66699 -3.33301 -20 -33.333 -52 -90c-5.33301 -10.667 -8.33301 -16.334 -9 -17.001l-14 -17c-2 -2 -5.66699 -9.33301 -11 -22
c-1.33301 -3.33301 -4.33301 -9.66602 -9 -18.999c-20.667 -40 -34.667 -69 -42 -87c-4.66699 -11.333 -10 -20 -16 -26l-30 -33l-5 -14l-2 -3c-0.666992 -2 -2.16699 -5.33301 -4.5 -10s-4.83301 -9.33398 -7.5 -14.001c-2 -4.66699 -6.66699 -11.334 -14 -20.001
c-3.33301 -4 -6.66602 -11 -9.99902 -21c-0.666992 -1.33301 -11 -15.333 -31 -42c-20.667 -34.667 -32 -53 -34 -55s-6 -3 -12 -3c-18.667 0 -28 5.33301 -28 16c0 2 2 5.33301 6 10l12 23c2 2.66699 9.66699 16 23 40c2 4.66699 11.333 17.334 28 38.001l14 27l29 51l6 12
l11 18c9.33301 14.667 17.333 25.667 24 33c10.667 11.333 22.334 33.333 35.001 66c4 8.66699 10.667 19.334 20 32.001l12 25l25 38l17 32c19.333 30.667 30.333 48.667 33 54c0.666992 0.666992 2.33398 3.83398 5.00098 9.50098l12 25.5l17 36l2 2
c0.666992 1.33301 1.83398 3.5 3.50098 6.5s3.5 5.83301 5.5 8.5l27 49c10.667 20 19.667 33.667 27 41c4 5.33301 10.667 8 20 8zM431 347.002c16.667 0 30.333 -2.66797 41 -8.00098c34.667 -20 55 -48.667 61 -86c2 -14 4 -24.667 6 -32l2 -11l1 -6
c0 -1.33301 0.333008 -6.33301 1 -15s1 -14.334 1 -17.001c0 -2 -0.666992 -9 -2 -21l-1 -10l-6 -45c-4 -30 -17 -56.667 -39 -80c-18.667 -18 -42 -27 -70 -27c-26.667 0 -54.667 14 -84 42c-7.33301 6.66699 -13.666 18.334 -18.999 35.001
c-3.33301 14.667 -5 22.334 -5 23.001v30c0 10.667 -0.333008 19.667 -1 27v2c0 2 0.166992 4.33301 0.5 7s0.5 5.66699 0.5 9c1.33301 9.33301 2.33301 20.666 3 33.999l1 13l6 19c3.33301 21.333 10 41 20 59c14.667 24.667 26 39.334 34 44.001
c17.333 9.33301 33.666 14 48.999 14zM376.999 203.001l0.000976562 -6.99707v-14c0.666992 -0.666992 1 -2.33398 1 -5.00098l-3 -36v-16v-20c0 -12.667 1 -20.667 3 -24c8 -29.333 19.333 -46.333 34 -51c6 -2 13.667 -3 23 -3c12 0 22 5.33301 30 16
c5.33301 7.33301 8.66602 19.666 9.99902 36.999c0 0.666992 0.166992 1.66699 0.5 3s0.666016 3 0.999023 5s0.5 4 0.5 6c1.33301 4 2.33301 12.333 3 25c2 19.333 3 30.333 3 33c0 5.33301 -0.333008 11.666 -1 18.999l1 20l-2 15v45l-4 11.5
c-2 5.66699 -3.33301 10.167 -4 13.5c-4.66699 22 -18.667 33 -42 33c-21.333 0 -36 -6.33301 -44 -19c-3.33301 -6.66699 -5.66602 -19.667 -6.99902 -39l-2 -9l1 -13z" />
    <glyph glyph-name="ampersand" unicode="&#x26;" horiz-adv-x="567" 
d="M322 602c-1.33301 1.33301 -2.33887 5.3291 -3.00586 11.9961c-2 16.667 -12.333 25 -31 25c-13.333 0 -24.333 -5.33301 -33 -16c-14.667 -15.333 -22 -32 -22 -50c0 -0.666992 0.166992 -2.66699 0.5 -6s0.5 -5.33301 0.5 -6l-1 -28
c0 -3.33301 6.66699 -15.666 20 -36.999c12 -17.333 20.667 -28 26 -32c7.33301 -5.33301 21.333 -11.333 42 -18c1.33301 -1.33301 2 -2.66602 2 -3.99902c0 -3.33301 -2.66699 -5 -8 -5c-2.66699 0 -8.33398 0.166992 -17.001 0.5s-18.667 0.833008 -30 1.5h-9
c-15.333 1.33301 -34 -8.66699 -56 -30c-28 -16.667 -44 -54.667 -48 -114c-5.33301 -17.333 -8 -27.666 -8 -30.999c0 -6 0.333008 -10.667 1 -14c0 -2.66699 2.33301 -10.667 7 -24c2.66699 -7.33301 4 -13.666 4 -18.999c-2 -18 -3 -27.667 -3 -29
c0 -10 2.66699 -27.667 8 -53c2.66699 -14.667 6 -28.334 10 -41.001c5.33301 -12 10.333 -20.333 15 -25c15.333 -15.333 27.333 -25 36 -29c8 -3.33301 20.333 -6 37 -8c16 -4 26 -6 30 -6c6.66699 0 21.334 3.33301 44.001 10c2 0.666992 5.83301 1.83398 11.5 3.50098
s10.167 3.16699 13.5 4.5c4 2.66699 9.66699 9 17 19c0.666992 1.33301 1.66699 2.5 3 3.5s2.66602 2.16699 3.99902 3.5l3 3c12.667 12.667 21.334 23 26.001 31c14.667 25.333 21.334 45 20.001 59l-1 13c-2 26.667 -3.66699 43.667 -5 51
c-4 19.333 -11.333 33.333 -22 42c-4.66699 4 -8 6 -10 6c-5.33301 0 -12.333 -5.33301 -21 -16c-6 -6.66699 -12.333 -10 -19 -10c-9.33301 0 -16.666 5.66699 -21.999 17c-4.66699 9.33301 -7 19.333 -7 30c0 20 6.33301 36.333 19 49c1.33301 0.666992 3 2 5 4
s4.83301 4.33301 8.5 7s6.83398 5.33398 9.50098 8.00098c16.667 13.333 28 21.666 34 24.999c7.33301 2.66699 23 5.33398 47 8.00098l38 12l27 6c0.666992 0 7.33398 3.33301 20.001 10c4 1.33301 6.33301 2 7 2c4.66699 0 7 -1.66699 7 -5
c0 -2.66699 -9 -10.334 -27 -23.001l-18 -19l-21 -16c-10 -10 -17 -16.333 -21 -19l-10 -3l-18 -6c-3.33301 -1.33301 -5 -4.66602 -5 -9.99902s2.33301 -10.333 7 -15c4 -3.33301 10 -8 18 -14c21.333 -17.333 32 -46.333 32 -87c3.33301 -16.667 5 -28 5 -34
c0 -20.667 -0.666992 -35.667 -2 -45c-3.33301 -12 -11.333 -26 -24 -42c-3.33301 -4.66699 -8 -12.334 -14 -23.001c-10 -18 -19.333 -30.333 -28 -37c-11.333 -8 -21 -13 -29 -15l-18 -4c-40 -12.667 -79 -19 -117 -19c-17.333 0 -29.333 0.666992 -36 2
c-0.666992 0.666992 -5.33398 2.66699 -14.001 6c-28.667 11.333 -57.667 31.333 -87 60c-4.66699 4.66699 -15 12.667 -31 24c-6.66699 2 -15.334 12 -26.001 30c-0.666992 4 -4.66699 15 -12 33c-2.66699 6 -7 18 -13 36c0 0.666992 -0.666992 11 -2 31l-1 32
c0.666992 -2.66699 1.33398 -1.33398 2.00098 3.99902c0 4.66699 0.666992 13.667 2 27c0.666992 22.667 9.33398 52.334 26.001 89.001c10 23.333 22 40.333 36 51l27 21c8 4.66699 20.333 10 37 16c8 3.33301 12 7.66602 12 12.999c0 7.33301 -3.33301 16.333 -10 27
c-8.66699 14 -13.334 23 -14.001 27c-4.66699 14.667 -7 27.667 -7 39c0 15.333 4.66699 34.333 14 57c4.66699 12.667 10.334 23.334 17.001 32.001c12 13.333 29.667 26 53 38c12.667 6.66699 27.334 10 44.001 10c64 0 96 -28.333 96 -85c0 -31.333 -9.66699 -47 -29 -47
c-7.33301 0 -13.333 4.33301 -18 13c-3.33301 8 -4.66602 15.333 -3.99902 22v8z" />
    <glyph glyph-name="quotesingle" unicode="'" horiz-adv-x="168" 
d="M89 689c6.66699 0 14 -4.49805 22 -13.498s12 -16.833 12 -23.5l1 -14c2.66699 -6 4 -10.333 4 -13v-6c0 -16.667 -4 -35.334 -12 -56.001c-2.66699 -7.33301 -5.66699 -19.333 -9 -36c-6.66699 -42.667 -15 -64 -25 -64c-3.33301 0 -7.83301 2.16699 -13.5 6.5
s-8.5 7.83301 -8.5 10.5l3 66c0 1.33301 -1.33301 4.33301 -4 9c-6 11.333 -9 18.666 -9 21.999l-2 14l-8 41c0 5.33301 3 15 9 29c8.66699 18.667 22 28 40 28z" />
    <glyph glyph-name="parenleft" unicode="(" horiz-adv-x="293" 
d="M151 603c4 1.33301 10.334 9.33203 19.001 23.999l9 12l7 7c0.666992 0.666992 2 2.33398 4 5.00098s4.83301 6.83398 8.5 12.501l10.5 16.5c7.33301 11.333 14.333 17 21 17c4.66699 0 7 -2.66699 7 -8c0 -2.66699 -5.33301 -12.334 -16 -29.001l-22 -39l-10 -28l-6 -13
l-8 -25c-6.66699 -22 -10 -38 -10 -48v-27c0 -2.66699 -0.833008 -8.33398 -2.5 -17.001l-4.5 -23l-3 -14c-3.33301 -20 -5.66602 -38.333 -6.99902 -55l-2 -20c0 -2 0.333008 -4.33301 1 -7c0.666992 -3.33301 1 -8.33301 1 -15l1 -17l2 -22
c0 -2.66699 -1 -11.334 -3 -26.001c-0.666992 -3.33301 -1 -7.66602 -1 -12.999l5 -42c0 -21.333 0.333008 -44 1 -68c0.666992 -29.333 6.66699 -57.666 18 -84.999c2.66699 -6.66699 4.66699 -12 6 -16c6 -22.667 10.333 -36 13 -40l14 -22c3.33301 -7.33301 9 -17 17 -29
c6 -8.66699 9 -15 9 -19c0 -6 -2.66699 -9 -8 -9c-6.66699 0 -17 9.66699 -31 29c-11.333 16 -21.333 32 -30 48c-26 24 -43 54 -51 90c-1.33301 7.33301 -8.33301 27 -21 59l-7 27c-4 10 -9.33301 28 -16 54c-2.66699 13.333 -4 27 -4 41c0 2.66699 1.33301 10.667 4 24
c1.33301 33.333 3.66602 70.333 6.99902 111c1.33301 2.66699 8.33301 28 21 76l9 32c9.33301 17.333 20.666 41 33.999 71c5.33301 12 10 18.667 14 20z" />
    <glyph glyph-name="parenright" unicode=")" horiz-adv-x="298" 
d="M82 697c6.66699 0 15.6689 -10.6631 27.002 -31.9961c4.66699 -10 12 -20.667 22 -32l17 -26c7.33301 -10 14.333 -20.333 21 -31l19 -53c4 -5.33301 10.333 -16.333 19 -33c2 -4 3.66699 -10 5 -18l4 -29l15 -63l1 -34l4 -23c0 -3.33301 -0.333008 -6.66602 -1 -9.99902
l-2 -9c-0.666992 -4.66699 -1.33398 -10.334 -2.00098 -17.001s-1.33398 -12.5 -2.00098 -17.5s-1 -9.16699 -1 -12.5c-2 -11.333 -3.33301 -25.333 -4 -42c0 -7.33301 -3.33301 -21 -10 -41c-2.66699 -13.333 -7.66699 -27.333 -15 -42l-5 -11l-7 -15
c-8.66699 -22 -16 -39 -22 -51c-15.333 -26.667 -26.666 -44.334 -33.999 -53.001c-4 -4 -13 -15.667 -27 -35l-13 -15c-14.667 -18.667 -25.667 -28 -33 -28c-2 0 -3 0.333008 -3 1c0 4 5.33301 12.333 16 25c7.33301 8.66699 18.333 33 33 73
c12 25.333 18.667 40.666 20 45.999c4.66699 13.333 7 24.666 7 33.999c0.666992 0.666992 1.66699 5.33398 3 14.001c2 6.66699 4.66699 23 8 49l2 14l1 22l1 11l1 28l4 40c0 1.33301 -1.66699 18 -5 50c0 2 0.666992 10.333 2 25c0.666992 4.66699 1.16699 9 1.5 13
s0.666016 7.33301 0.999023 10s0.666016 5 0.999023 7s0.5 3.33301 0.5 4v1l-5 35l-1 13l-6 43c0 1.33301 0.166992 5.33301 0.5 12s0.5 10.667 0.5 12c0 5.33301 -3 18.666 -9 39.999c-1.33301 8 -6.66602 26.667 -15.999 56c-0.666992 2 -5 14 -13 36
c-2 6 -8.33301 15.333 -19 28c-9.33301 11.333 -14 18.666 -14 21.999c0 6 4 9 12 9z" />
    <glyph glyph-name="asterisk" unicode="*" horiz-adv-x="368" 
d="M75 618c4 0 10.6699 -2.66406 20.0029 -7.99707l9 -4l9 -7l17 -5c13.333 -7.33301 21.333 -11 24 -11c4 0 6 2 6 6l-3 14c2 15.333 3 23.666 3 24.999s-2 10.666 -6 27.999c-0.666992 2 -1 5 -1 9c0 13.333 5.66699 22 17 26c6 2.66699 11.667 4 17 4
c4.66699 0 9.66699 -4 15 -12l6 -26l-1 -15l-1 -40c0 -13.333 6 -20 18 -20c10.667 0 25.334 7.33301 44.001 22c2.66699 1.33301 9 2 19 2c10 3.33301 15.667 5 17 5c10.667 0 16 -13.667 16 -41c0 -8.66699 -4.33301 -15 -13 -19l-22 -2l-25 -7l-15 1
c-11.333 0 -17 -6.66699 -17 -20c0 -2.66699 3.33301 -8.33398 10 -17.001l8 -10l8 -10l6 -12c7.33301 -6 11.666 -10.667 12.999 -14c3.33301 -5.33301 5 -12.333 5 -21c0 -7.33301 -2.33301 -13.333 -7 -18c-10.667 -8.66699 -18.667 -13 -24 -13
c-8.66699 0 -19.334 12.333 -32.001 37l-7 13l-3 12l-10 24c-2 4.66699 -4.66699 7 -8 7s-10 -6.33301 -20 -19c-0.666992 -0.666992 -1.83398 -2.16699 -3.50098 -4.5l-4.5 -6.5c0 -0.666992 -0.5 -2.16699 -1.5 -4.5s-2.33301 -6.16602 -4 -11.499
s-3.16699 -10.666 -4.5 -15.999c-0.666992 -2 -6.33398 -6.33301 -17.001 -13c-4.66699 -2.66699 -10.334 -4 -17.001 -4c-6 0 -12.333 3.5 -19 10.5s-10 13.5 -10 19.5c0 5.33301 3.66699 12.666 11 21.999l8 13l10 9l10 12c10 9.33301 15 17.333 15 24
c0 3.33301 -3 6 -9 8c-17.333 3.33301 -36 9 -56 17l-11 3c-4.66699 1.33301 -8.16699 3 -10.5 5s-3.16602 4.33301 -2.49902 7l2 14c1.33301 9.33301 2.33301 16.666 3 21.999c2.66699 6.66699 9 10 19 10z" />
    <glyph glyph-name="plus" unicode="+" horiz-adv-x="461" 
d="M70 363c0.666992 0 2.50684 -0.166992 5.50684 -0.5s7.66699 -0.666016 14 -0.999023s13.166 -0.5 20.499 -0.5l40 3c1.33301 0 2.66602 -0.333008 3.99902 -1c12 -3.33301 20 -5 24 -5c7.33301 0 12.666 1.33301 15.999 4s4.66602 6.33398 3.99902 11.001v28
c2 16.667 3 26 3 28c-1.33301 6.66699 -2 13 -2 19v14l-4 37c0 20.667 7.33301 31 22 31c21.333 0 33.666 -4.66699 36.999 -14c2 -6.66699 3 -21.667 3 -45c0 -1.33301 0.333008 -5.5 1 -12.5s1 -11.833 1 -14.5c0 -4 -0.333008 -7.66699 -1 -11
c-1.33301 -12 -2 -19 -2 -21c0 -13.333 2.66699 -26.333 8 -39c3.33301 -5.33301 8.33301 -8 15 -8c6 0 13.667 0.333008 23 1c3.33301 0.666992 7 1 11 1c2 0 6 -0.333008 12 -1s10 -1 12 -1c4 0 11 0.666992 21 2s16.333 2 19 2c4 0 11.333 -0.666992 22 -2
c11.333 -2 17 -9.33301 17 -22c0 -20.667 -4.33301 -32 -13 -34c-4 0 -9.33301 -0.333008 -16 -1c-23.333 -2 -35.333 -3 -36 -3h-2h-4c-1.33301 0 -3.33301 0.166992 -6 0.5s-5.33398 0.5 -8.00098 0.5h-15c-30 0 -48 -3.66699 -54 -11
c-4.66699 -4.66699 -7 -11.667 -7 -21c0 -2 1.66699 -12.333 5 -31c1.33301 -6.66699 2 -11 2 -13c0 -1.33301 -0.5 -5.83301 -1.5 -13.5s-1.5 -12.834 -1.5 -15.501c0 -3.33301 1 -15.333 3 -36v-13c0 -11.333 -5.33301 -17 -16 -17c-2.66699 0 -8.33398 1 -17.001 3
l-13 -1c-8 0 -12.667 6.66699 -14 20c0 1.33301 -0.666992 8 -2 20c-0.666992 4 -1 8.33301 -1 13s1 12 3 22c0.666992 3.33301 1 6.66602 1 9.99902c0 6 -0.333008 12.667 -1 20l-1 8c0 2 0.333008 4 1 6c1.33301 16 2 24.333 2 25c0 8.66699 -5.33301 14.334 -16 17.001
c-6.66699 2 -11.667 2.66699 -15 2l-30 -2h-33l-20 -4c-1.33301 0.666992 -3.5 1.16699 -6.5 1.5s-5.16699 0.5 -6.5 0.5l-12 2c-6 1.33301 -10.5 3.16602 -13.5 5.49902s-4.16699 5.5 -3.5 9.5v15l-3 20c0 8.66699 8.33301 13 25 13z" />
    <glyph glyph-name="comma" unicode="," horiz-adv-x="198" 
d="M107 92c12.667 -1.33301 22.3311 -8.33789 28.998 -21.0049c2 -5.33301 5 -12.666 9 -21.999l9 -22c0.666992 -2.66699 1 -10.667 1 -24c0 -2 -1 -9 -3 -21c-4.66699 -23.333 -15.667 -41.666 -33 -54.999c-9.33301 -8 -15.666 -12.333 -18.999 -13
c-16 -5.33301 -33.333 -8 -52 -8c-4.66699 0 -7 2.33301 -7 7c0 4 2 9 6 15c2 2 12 9.66699 30 23c2 1.33301 4.16699 5.83301 6.5 13.5s3.5 12.834 3.5 15.501c0 14 -7 25.333 -21 34c-8.66699 4.66699 -13.667 8.33398 -15 11.001c-2.66699 2.66699 -4 7 -4 13
c0 18 6.33301 31.333 19 40c4.66699 2.66699 18.334 7.33398 41.001 14.001z" />
    <glyph glyph-name="hyphen" unicode="-" horiz-adv-x="198" 
d="M15 226l19.998 -0.99707h17l17 -2c4 0 10 1.33301 18 4c2 0.666992 4.66699 1 8 1c4 0 11.5 -0.5 22.5 -1.5s17.833 -1.5 20.5 -1.5s8.66699 0.666992 18 2s15.333 2 18 2c9.33301 0 17 -4 23 -12c2.66699 -2.66699 4 -5.33398 4 -8.00098
c0 -0.666992 -1.66699 -6 -5 -16c-1.33301 -18 -2.33301 -27.333 -3 -28c-3.33301 -5.33301 -6.66602 -8 -9.99902 -8c-2 0 -7.5 0.833008 -16.5 2.5s-14.833 2.5 -17.5 2.5c-8.66699 0 -17.667 -1 -27 -3c-0.666992 -0.666992 -1.66699 -1 -3 -1s-2.33301 -0.333008 -3 -1
l-28 4l-19 -3c-2.66699 0 -5.16699 0.166992 -7.5 0.5s-4.16602 0.666016 -5.49902 0.999023s-2.33301 0.5 -3 0.5l-20 -3l-12 -1c-1.33301 -0.666992 -4 -1 -8 -1c-4.66699 0 -8.66699 2.66699 -12 8c-0.666992 1.33301 -1 2.66602 -1 3.99902l3 26l3 27
c1.33301 2.66699 4.33301 4.66699 9 6z" />
    <glyph glyph-name="period" unicode="." horiz-adv-x="200" 
d="M86 92c4.66699 0 14 -3.33203 28 -9.99902c16.667 -7.33301 26 -12 28 -14c4.66699 -4.66699 7 -14 7 -28c0 -16 -3.33301 -27.333 -10 -34c-8.66699 -8.66699 -23.667 -13 -45 -13c-6.66699 0 -17.667 6.66699 -33 20c-8 7.33301 -12 17.666 -12 30.999
c0 32 12.333 48 37 48z" />
    <glyph glyph-name="slash" unicode="/" horiz-adv-x="428" 
d="M392 698c13.333 0 19.998 -4.67285 19.998 -14.0059c0 -5.33301 -1 -9.66602 -3 -12.999l-16 -32l-8.5 -17.5l-10.5 -22.5c-14 -24.667 -21.333 -39 -22 -43l-9 -31c-1.33301 -4 -12.333 -23.667 -33 -59l-60 -117c-2.66699 -3.33301 -8 -14.666 -16 -33.999
c-11.333 -27.333 -18 -41.666 -20 -42.999c-2.66699 -5.33301 -8 -14.666 -16 -27.999l-6 -23c-0.666992 -3.33301 -4.66699 -11.666 -12 -24.999l-12 -20l-13 -14c-0.666992 -0.666992 -5 -13.334 -13 -38.001c-4 -9.33301 -11.333 -20.666 -22 -33.999l-8 -24
c-20 -28 -31.333 -45 -34 -51c-9.33301 -23.333 -16 -37 -20 -41c-2.66699 -2.66699 -9.33398 -4 -20.001 -4c-8.66699 0 -15 2.66699 -19 8c-1.33301 1.33301 -2 2.66602 -2 3.99902c0 3.33301 2 8 6 14c3.33301 5.33301 9.33301 16.333 18 33l9 17l9 24
c9.33301 12.667 17.333 25.334 24 38.001l12 29l28 54c6.66699 16.667 15.334 36 26.001 58c4.66699 8.66699 10.334 18 17.001 28c10.667 16 16.334 25.333 17.001 28l10 27c4.66699 8 9.66699 18 15 30c10 21.333 20.667 43 32 65c10 18 20.333 35.333 31 52l6 18l21 43
c8 28.667 13 44.334 15 47.001c0.666992 0.666992 5.66699 8.66699 15 24c0.666992 0.666992 3 5.66699 7 15l10 23c3.33301 4 6.33301 9 9 15c6.66699 15.333 12.5 24.833 17.5 28.5s11.833 5.5 20.5 5.5z" />
    <glyph glyph-name="zero" unicode="0" horiz-adv-x="461" 
d="M223 689l40 -2c21.333 -2.66699 44.333 -17 69 -43l7 -8c5.33301 -5.33301 12.666 -15 21.999 -29c12 -18.667 20.667 -36 26 -52c3.33301 -8 6.33301 -25 9 -51c2.66699 -22 6 -44 10 -66l4 -33c0.666992 -7.33301 1.66699 -19 3 -35c1.33301 -13.333 2 -23 2 -29
c0 -7.33301 -1.66699 -21 -5 -41l-1 -21l-4 -36l-2 -23l-4 -30c0 -40 -13 -80.667 -39 -122c-1.33301 -1.33301 -3.33301 -4.33301 -6 -9c-26 -40 -53.333 -64 -82 -72c-21.333 -5.33301 -37.333 -8 -48 -8c-25.333 0 -52.333 12 -81 36c-36 31.333 -59 58.666 -69 81.999
c-7.33301 18 -12 32.333 -14 43l-2 10c-6 26.667 -9 46 -9 58v6c0.666992 4.66699 1 12.334 1 23.001c0 7.33301 -1 24.666 -3 51.999v7v2c0 0.666992 0.166992 2.33398 0.5 5.00098l1 8c0.333008 2.66699 0.5 5.83398 0.5 9.50098v10.5c0.666992 23.333 2 46 4 68l3 25
l8 37c2.66699 23.333 8.33398 48.333 17.001 75c2 6.66699 6 16.667 12 30c2 4.66699 5 11 9 19c17.333 39.333 34 64.666 50 75.999c24 18 47.667 27.333 71 28zM237 650c-15.333 0 -29.668 -4.66406 -43.001 -13.9971c-3.33301 -2 -7.66602 -5.33301 -12.999 -10
c-16.667 -8.66699 -27.667 -34.334 -33 -77.001l-2 -28l-1 -33l-3 -26l1 -21c0 -4 -0.666992 -12.667 -2 -26s-2 -21.333 -2 -24c0 -11.333 0.333008 -21.666 1 -30.999c0.666992 -4.66699 1 -8.33398 1 -11.001c0 -6 -2 -25.333 -6 -58l1 -32c0 -2 -0.666992 -9 -2 -21v-4
c0 -22.667 2 -46 6 -70l4 -24l6 -26c2.66699 -25.333 11.667 -48.333 27 -69c2 -2.66699 7 -8 15 -16c4 -4 15.667 -6.33301 35 -7c6 -0.666992 11.333 -1 16 -1v0c16 0 29.667 8.66699 41 26c8 11.333 14.667 26.666 20 45.999c1.33301 6.66699 2.66602 24 3.99902 52l4 27
l1 11l2 21l2 31l5 73c0 1.33301 -0.166992 3.33301 -0.5 6s-0.666016 6.66699 -0.999023 12s-0.5 10.666 -0.5 15.999l2 33l-2 34l-2 104c0 2 -3 16.333 -9 43c-3.33301 14 -10.333 35 -21 63c-12 20.667 -29 31 -51 31z" />
    <glyph glyph-name="one" unicode="1" horiz-adv-x="274" 
d="M168 692c17.333 0 25.333 -8.66797 24 -26.001l-1 -13v-33l-1 -24v-96l-5 -82l-5 -109v-48l-1 -15v-22v-23l2 -23v-37l2 -22c0 -5.33301 0.666992 -16 2 -32c1.33301 -4.66699 7 -15.334 17 -32.001c8.66699 -12.667 13 -22 13 -28c0 -6.66699 -2.66699 -12.667 -8 -18
c-8 -6 -13.333 -9 -16 -9l-43 2c-17.333 -1.33301 -36.333 -2 -57 -2c-19.333 0 -29 6.66699 -29 20c0 6.66699 2 14.667 6 24c0.666992 2 8 15 22 39c3.33301 5.33301 5 11.333 5 18l1 87l3 32c0.666992 4.66699 1.16699 12.334 1.5 23.001s0.5 18.667 0.5 24v18
c0 10 -0.333008 20.667 -1 32c-0.666992 3.33301 -1 7 -1 11c0 2 0.666992 15 2 39c0.666992 8 1.66699 39 3 93v26c-6 57.333 -10 88.333 -12 93c-4 8 -7.33301 13.667 -10 17c-1.33301 0.666992 -6.33301 3.83398 -15 9.50098l-21 13.5c-4 2 -6 6.33301 -6 13
c0 11.333 13.333 21.333 40 30l36 14c24 10.667 41.333 16 52 16z" />
    <glyph glyph-name="two" unicode="2" horiz-adv-x="421" 
d="M201 607c-2 0 -11.6709 -2.67188 -29.0039 -8.00488c-31.333 -4 -58.666 -15.333 -81.999 -34c-0.666992 -0.666992 -2.66699 -1 -6 -1c-8 0 -12 4 -12 12c0 8.66699 10.333 27.334 31 56.001c24.667 34.667 57.334 52 98.001 52c30 0 51.667 -1.33301 65 -4
c6.66699 -1.33301 16.334 -5.66602 29.001 -12.999l15 -9c23.333 -12 38 -21.667 44 -29c21.333 -24 31.666 -54 30.999 -90l-1 -30l1 -24c0 -17.333 -5.66699 -42 -17 -74c-8 -21.333 -25.667 -46.666 -53 -75.999l-3 -3c-1.33301 -1.33301 -3.33301 -3.5 -6 -6.5
l-9.5 -10.5l-15 -16l-21.5 -23l-23 -26l-27 -31c-10 -14 -20.667 -28 -32 -42l-33 -43l-10 -20c0 -6 7.33301 -10 22 -12c1.33301 0 3 -0.166992 5 -0.5s3.5 -0.666016 4.5 -0.999023s1.83301 -0.5 2.5 -0.5l32 2c12.667 1.33301 22.667 1.33301 30 0
c4.66699 0 14.334 -1 29.001 -3c3.33301 -0.666992 7 -1 11 -1c13.333 0 26.333 3.33301 39 10c5.33301 2.66699 9.66602 5.66699 12.999 9l16 21c0.666992 2 3.33398 3 8.00098 3c12 0 18 -6 18 -18l-8 -42l-3 -20c0 -1.33301 -1.33301 -9.66602 -4 -24.999
c-4 -25.333 -13.333 -38 -28 -38c-4 0 -13.333 0.5 -28 1.5s-24 1.5 -28 1.5c-8.66699 0 -16.334 -0.333008 -23.001 -1h-17c-13.333 0 -31.333 -1 -54 -3h-25c-11.333 0 -26.666 1 -45.999 3l-54 -3c-15.333 0 -23 7.33301 -23 22c0 10 6 26.667 18 50
c7.33301 14 12.666 23.333 15.999 28c0.666992 1.33301 10.334 13 29.001 35c6 8.66699 24 33 54 73l14 18l42 54l14 17c12.667 14.667 21.667 27 27 37c36.667 61.333 55 116 55 164c0 9.33301 -3 24 -9 44c-0.666992 8 -3 16.333 -7 25
c-0.666992 2.66699 -4.66699 6.66699 -12 12c-29.333 20.667 -50.666 31 -63.999 31z" />
    <glyph glyph-name="three" unicode="3" horiz-adv-x="435" 
d="M61 183c14 0 27.002 -8 39.002 -24c11.333 -15.333 17 -30 17 -44c0 -2.66699 -0.333008 -5 -1 -7c-1.33301 -17.333 -2 -26.333 -2 -27c0 -5.33301 1 -9 3 -11l8 -8c23.333 -23.333 41.666 -35 54.999 -35c24 0 46.667 7.66699 68 23
c9.33301 7.33301 15.333 12.666 18 15.999c0.666992 0 4.33398 5.33301 11.001 16l20 31c7.33301 18 12.333 44.333 15 79l1 14c0 6.66699 -1.33301 13 -4 19l-3 3c-1.33301 2.66699 -3.5 6.66699 -6.5 12s-6.5 10.666 -10.5 15.999c-10.667 20.667 -18.667 34 -24 40
c-16.667 20.667 -42.334 35.667 -77.001 45c-13.333 3.33301 -20 10.333 -20 21c0 9.33301 17.667 20.666 53 33.999c11.333 2.66699 25.666 19 42.999 49c15.333 26.667 23 50.667 23 72c0 10 -1.66699 20.667 -5 32c0 0.666992 -0.5 2 -1.5 4l-5 10
c-2.33301 4.66699 -4.5 9.33398 -6.5 14.001c-15.333 32 -43 48 -83 48c-32 0 -55.333 -5.33301 -70 -16c-9.33301 -6 -15.666 -9 -18.999 -9c-8 0 -12 5 -12 15c0 20.667 15.333 39 46 55c22 12 41.333 18 58 18c12.667 0 26 -3.33301 40 -10c38 -16 62.333 -27.667 73 -35
c19.333 -12.667 31 -22 35 -28c8.66699 -9.33301 16.667 -21 24 -35l10 -18c2.66699 -7.33301 4 -16 4 -26c0 -6.66699 -0.333008 -14 -1 -22c1.33301 -42 -20.334 -81.333 -65.001 -118c-15.333 -13.333 -23 -23.333 -23 -30c0 -4.66699 5.66699 -11.667 17 -21
c24.667 -18 44.667 -39.333 60 -64l11 -18c2.66699 -5.33301 5.33398 -10 8.00098 -14c5.33301 -16 8 -41.667 8 -77c0 -0.666992 -0.166992 -3.16699 -0.5 -7.5s-0.5 -7.83301 -0.5 -10.5c-1.33301 -30.667 -4.33301 -51.667 -9 -63c-10 -26.667 -23 -45 -39 -55
c-12.667 -8 -28.334 -16 -47.001 -24l-13 -8l-28 -8c-12.667 -6.66699 -22.667 -10.667 -30 -12c-8.66699 0 -16.667 -0.333008 -24 -1l-34 -2c-20 -0.666992 -44.333 12.333 -73 39c-12 10.667 -30 30.334 -54 59.001c-8 12.667 -12 30.334 -12 53.001
c0 34 11.667 51 35 51z" />
    <glyph glyph-name="four" unicode="4" horiz-adv-x="421" 
d="M337 658v-10c0 -2.66699 -0.166992 -9 -0.5 -19s-0.5 -16.667 -0.5 -20v-31v-130v-23c0 -5.33301 0.333008 -9.33301 1 -12v-5c0 -2.66699 -0.333008 -9.33398 -1 -20.001s-1 -17.667 -1 -21c0 -10 1 -16.667 3 -20l16 -14c2 -2 3 -9 3 -21
c0 -10.667 -4.33301 -21 -13 -31s-13 -15.333 -13 -16l1 -25l-1 -36l-1 -21l1 -24v-73c0 -4 0.166992 -10.333 0.5 -19s0.5 -13.667 0.5 -15c0 -33.333 -9.66699 -50 -29 -50c-34 0 -53.667 3 -59 9c-5.33301 7.33301 -7.66602 11.333 -6.99902 12
c6.66699 35.333 10 62.333 10 81c0 4.66699 -2.33301 16.667 -7 36v13c0 12 1 37.333 3 76l1 20c0 2 0.166992 5.33301 0.5 10s0.5 7.33398 0.5 8.00098c0 14.667 -12.667 22 -38 22h-42h-40h-39c-10.667 0.666992 -23.667 1 -39 1c-31.333 -1.33301 -47 7 -47 25
c0 8 4.66699 17.667 14 29l31 31c2.66699 2.66699 12.334 15.667 29.001 39l10 12c16.667 23.333 36 43.666 58 60.999l2 2c0.666992 1.33301 2.66699 3.83301 6 7.5s6.33301 7.16699 9 10.5l12 14l19 24c21.333 24 33.666 38.333 36.999 43
c3.33301 5.33301 10 12.333 20 21l22 29l17 22c3.33301 4.66699 9.66602 12.334 18.999 23.001c5.33301 3.33301 9.33301 5 12 5c13.333 0 20 -10 20 -30zM169 354l56.999 -7.00098c10.667 0 17.667 4 21 12c0.666992 8 3.66699 34 9 78v14v31l-2 44
c0 10.667 -1.66699 16 -5 16c-1.33301 0 -3 -1 -5 -3c-6 -3.33301 -14 -10.666 -24 -21.999c-7.33301 -9.33301 -20 -22 -38 -38c-2 -2 -7.66699 -9 -17 -21l-14 -20c-2.66699 -5.33301 -10.334 -17.666 -23.001 -36.999l-6 -9c-2.66699 -4 -4.66699 -6.66699 -6 -8
c-7.33301 -10.667 -11.666 -16.334 -12.999 -17.001c-1.33301 -1.33301 -2.66602 -3 -3.99902 -5l-2 -2c0 -2 6.66699 -4.66699 20 -8c11.333 -2 17.333 -3 18 -3s12 1.66699 34 5z" />
    <glyph glyph-name="five" unicode="5" horiz-adv-x="421" 
d="M70 174c11.333 0 20.5029 -4.50195 27.5029 -13.502s10.5 -19.5 10.5 -31.5c0 -2.66699 -0.666992 -10.667 -2 -24c-0.666992 -4.66699 -1 -9.66699 -1 -15c0 -30 14.333 -51 43 -63c12 -5.33301 25.333 -8.33301 40 -9l7 -1c15.333 -0.666992 34 6.66602 56 21.999
c8 5.33301 14.333 10.333 19 15c0 0.666992 4.33301 7 13 19l11 16l8 16c5.33301 11.333 8.33301 19.333 9 24c0 0.666992 0.666992 12.667 2 36v7l1 8c0 4 -0.333008 10 -1 18c-3.33301 58 -21.666 102 -54.999 132c-22.667 20 -41.667 33 -57 39
c-23.333 8.66699 -47.666 13.334 -72.999 14.001c-26.667 0.666992 -40 9.33398 -40 26.001c0 7.33301 3 30.333 9 69c0 2 0.166992 5 0.5 9s0.666016 9.83301 0.999023 17.5s0.5 14.5 0.5 20.5c0.666992 11.333 3.33398 30.666 8.00098 57.999c0.666992 2 1 15.333 1 40
c1.33301 31.333 6 49.333 14 54c4.66699 2 12 3 22 3h14c6.66699 0.666992 16 1 28 1c21.333 0 34.333 0.333008 39 1h7c1.33301 0 4.16602 -0.166992 8.49902 -0.5s7.16602 -0.5 8.49902 -0.5h4c3.33301 0 10.666 0.5 21.999 1.5s21.333 1.83301 30 2.5
c8 0 14 0.333008 18 1c3.33301 0.666992 6.33301 1 9 1c17.333 0 26 -5 26 -15c0 -6 -5.33301 -14.667 -16 -26c-4 -4 -8.66699 -10 -14 -18c-10 -13.333 -24 -22.333 -42 -27c-12 -3.33301 -29 -6.66602 -51 -9.99902c-6 -2 -12 -4.33301 -18 -7
c-6.66699 -2 -19.667 -2.66699 -39 -2c-9.33301 0 -15.333 -3.33301 -18 -10c-0.666992 -2 -1.66699 -10.667 -3 -26c0 -2 -1.33301 -7.66699 -4 -17s-4 -15.333 -4 -18c0 -7.33301 1.33301 -11.333 4 -12l16 -7c6 -3.33301 15.667 -6.66602 29 -9.99902
c4 -0.666992 18.333 -7 43 -19c15.333 -6.66699 24 -11 26 -13c5.33301 -4 12.666 -10.333 21.999 -19c2 -2 5.5 -5.16699 10.5 -9.5s8.83301 -7.5 11.5 -9.5c12.667 -14.667 19.667 -23.667 21 -27l16 -32l13 -20l10 -24l4 -17c4 -13.333 6 -22.333 6 -27
c0.666992 -10.667 1 -32.667 1 -66c-1.33301 -22 -2.66602 -36.333 -3.99902 -43c-7.33301 -25.333 -23 -57.333 -47 -96c-15.333 -26 -37 -47.333 -65 -64c-15.333 -10.667 -38.333 -16 -69 -16c-2.66699 0 -5.33398 0.333008 -8.00098 1h-11
c-14.667 1.33301 -25.334 3 -32.001 5c-12.667 3.33301 -25 8.33301 -37 15c-24 13.333 -39.333 25 -46 35c-21.333 29.333 -32 58.666 -32 87.999c0 14.667 4.33301 27.334 13 38.001c7.33301 8 16 12 26 12z" />
    <glyph glyph-name="six" unicode="6" horiz-adv-x="467" 
d="M349 702c12 0 17.998 -4.00195 17.998 -12.002c0 -3.33301 -1.33301 -6 -4 -8c-4.66699 -4.66699 -20 -13.667 -46 -27c-11.333 -6 -31.333 -24 -60 -54c-22.667 -23.333 -40 -47.333 -52 -72c-6.66699 -13.333 -13 -25 -19 -35c-2 -4 -7.66699 -14.667 -17 -32
c-11.333 -17.333 -18.333 -31 -21 -41c-6.66699 -24.667 -5.33398 -37 3.99902 -37c2 0 5.66699 0.666992 11 2c4.66699 1.33301 17.667 3 39 5c38.667 3.33301 60.667 5 66 5c20.667 0 35.334 -1.33301 44.001 -4c6.66699 -2.66699 19.334 -10 38.001 -22
c16.667 -10.667 26 -18 28 -22c10 -14.667 17.667 -26.334 23 -35.001c4 -5.33301 9.66699 -17 17 -35l9.5 -21c3 -6.66699 5.16699 -11.667 6.5 -15l3 -5c1.33301 -9.33301 2 -19.666 2 -30.999c0 -13.333 -0.333008 -26.333 -1 -39c0 -15.333 -1.66699 -28.666 -5 -39.999
c-19.333 -54 -48 -92.333 -86 -115c-24 -13.333 -43 -21 -57 -23c-15.333 -2.66699 -30 -4 -44 -4c-42.667 0 -68.667 2 -78 6c-10.667 4.66699 -30 20.667 -58 48c-20 19.333 -32 32.333 -36 39c-20 36 -31.333 60.333 -34 73c-1.33301 5.33301 -2.66602 20 -3.99902 44
l-3 50c-0.666992 10.667 1.33301 39.334 6 86.001c2 18.667 5.33301 35.667 10 51c11.333 34.667 20.333 58.667 27 72l15 25c4 8.66699 13.333 24.334 28 47.001c51.333 67.333 106 115.666 164 144.999c6 3.33301 11.833 6.33301 17.5 9l12.5 6l4 2
c15.333 9.33301 26 14 32 14zM212.998 358.998c-57.333 0 -86.333 -39.333 -87 -118c0 -4 -0.166992 -13.667 -0.5 -29s-0.5 -25 -0.5 -29c0 -14 12.333 -43.333 37 -88c16.667 -30 33.667 -47.667 51 -53c20 -5.33301 37.667 -8 53 -8c13.333 0 28.333 5.33301 45 16
c9.33301 5.33301 18.333 17.666 27 36.999s13 42.333 13 69c0 34 -0.333008 53 -1 57c-0.666992 16 -4.66699 34.667 -12 56c-0.666992 2.66699 -4 9.33398 -10 20.001c-15.333 25.333 -31 43 -47 53c-19.333 11.333 -42 17 -68 17z" />
    <glyph glyph-name="seven" unicode="7" horiz-adv-x="395" 
d="M219 574l-22.999 0.00390625l-24 1c-4 0 -8.83301 -0.166992 -14.5 -0.5s-13 -0.666016 -22 -0.999023s-16.833 -0.5 -23.5 -0.5c-20 -1.33301 -39.333 -14.333 -58 -39c-4 -5.33301 -9.66699 -8 -17 -8c-8.66699 0 -13 4 -13 12c0 7.33301 6.33301 36.666 19 87.999
c0.666992 0.666992 2 9 4 25c4 32 13 48 27 48c5.33301 0 9.66602 -1.66699 12.999 -5c2 -2 7 -8 15 -18c2.66699 -4.66699 30.667 -7.33398 84 -8.00098l33 -1c9.33301 0 17 0.333008 23 1c5.33301 0 21 -1 47 -3l19 2c12.667 -0.666992 24.667 -1 36 -1
c20.667 0 31 -5.33301 31 -16c0 -5.33301 -1.66699 -11.333 -5 -18l-36 -69l-13 -33l-6 -18c-2 -5.33301 -7 -18 -15 -38c-4 -12.667 -14 -39 -30 -79c-10 -30 -20.667 -60 -32 -90l-9 -20l-5 -15l-13 -29l-13 -35l-15 -40l-26 -74c-2.66699 -6 -6.16699 -15.333 -10.5 -28
s-7.16602 -20.667 -8.49902 -24c-4.66699 -22 -10 -34.667 -16 -38c-2 -1.33301 -10.333 -2.33301 -25 -3c-16 -4 -30 -6 -42 -6c-23.333 0 -35 5 -35 15c0 3.33301 6.66699 17.666 20 42.999c4 8 8.33301 16.167 13 24.5s7.66699 14.166 9 17.499l3 5
c1.33301 2.66699 11.666 20.667 30.999 54c16.667 27.333 31 59.666 43 96.999l38 71l8 17c2 4.66699 12.667 27 32 67c8.66699 16 15.667 32 21 48s14 36 26 60l15 39c0.666992 0.666992 1 1.66699 1 3l1 2c0 8 -5 12.333 -15 13l-14 2c-21.333 2 -32.333 3 -33 3z" />
    <glyph glyph-name="eight" unicode="8" horiz-adv-x="462" 
d="M268 691c8 0 14.666 -1.00293 19.999 -3.00293l16 -7c18 -6.66699 29.667 -12.667 35 -18c21.333 -20.667 36.666 -43.667 45.999 -69c4.66699 -14 8.33398 -26.333 11.001 -37c1.33301 -16 2 -30.333 2 -43c0 -4.66699 -1.66699 -17.667 -5 -39
c-6 -28.667 -15 -47.667 -27 -57c-0.666992 0 -2 -0.666992 -4 -2s-4.66699 -3 -8 -5l-10 -6c-14.667 -12.667 -22 -20.667 -22 -24s7 -10.333 21 -21c10.667 -8.66699 20 -17 28 -25l2 -4c1.33301 -2.66699 3.66602 -6.83398 6.99902 -12.501l10 -17.5l7 -12l6 -14
c6.66699 -16.667 10.334 -26.667 11.001 -30c0 -11.333 0.333008 -22.666 1 -33.999c0 -2.66699 0.166992 -7.5 0.5 -14.5s0.5 -11.167 0.5 -12.5c0 -41.333 -9 -76.333 -27 -105c-16 -25.333 -27.333 -41.666 -34 -48.999c-10.667 -12.667 -23 -22 -37 -28
c-39.333 -15.333 -66.666 -22.333 -81.999 -21h-22c-38.667 0.666992 -70.667 11.334 -96 32.001c-8 6 -17 14 -27 24c-1.33301 1.33301 -7.66602 11 -18.999 29c-12 18.667 -19 35.334 -21 50.001c-2.66699 21.333 -4 47.333 -4 78c0 22 4.66699 43 14 63
c4.66699 10.667 18 26.667 40 48c11.333 10 18.333 16 21 18c10.667 6.66699 16 13.334 16 20.001c0 10 -12.333 32.333 -37 67c-12 18 -19.667 45.667 -23 83c-1.33301 25.333 -2 39.666 -2 42.999c0 12.667 1.33301 22.667 4 30c5.33301 14 14.666 29 27.999 45l16 20
c13.333 15.333 30.333 27 51 35c3.33301 1.33301 11.333 5.33301 24 12c15.333 8.66699 38.333 13 69 13zM197.999 310.997c-18 -4 -31.332 -7.33203 -39.999 -9.99902c-4 -1.33301 -9 -6 -15 -14l-14 -17c-7.33301 -8.66699 -15.333 -20 -24 -34
c0 -1.33301 -0.5 -4.16602 -1.5 -8.49902l-4 -17.5l-5.5 -24l-2 -8c-3.33301 -14.667 -5 -24.334 -5 -29.001c0 -5.33301 3.33301 -17 10 -35c8.66699 -26 24 -46.667 46 -62c19.333 -14 32.666 -21.333 39.999 -22c10 -2 18.333 -3 25 -3c29.333 0 47.333 1 54 3
c12 2.66699 22 8.66699 30 18c31.333 35.333 47 70.333 47 105c0 7.33301 -1 17 -3 29c-3.33301 19.333 -6 30.666 -8 33.999c-1.33301 3.33301 -10.333 15 -27 35c-10 12 -19.667 22 -29 30c-11.333 6.66699 -25 13.334 -41 20.001c-12 5.33301 -23 8.66602 -33 9.99902z
M257 639.998c-33.333 0 -60.333 -10.333 -81 -31c-20 -19.333 -30 -41 -30 -65c0 -12 1 -22 3 -30c0.666992 -6.66699 9.66699 -21 27 -43c4.66699 -6 17.334 -17.667 38.001 -35c0.666992 -0.666992 4.16699 -3.83398 10.5 -9.50098s11.166 -9.83398 14.499 -12.501
c5.33301 -2 12 -3 20 -3c9.33301 0 16.333 1.33301 21 4c0 0.666992 4.66699 4.33398 14 11.001c2.66699 2.66699 5.66699 5.33398 9 8.00098c34.667 28.667 52 64.667 52 108c0 22 -9.66699 42.667 -29 62c-14 14 -23.667 23 -29 27c-10 6 -23.333 9 -40 9z" />
    <glyph glyph-name="nine" unicode="9" horiz-adv-x="461" 
d="M210 687l20 -1.00391l33 2c6 0 17.333 -4.33301 34 -13l7 -3l28 -20c32.667 -24 56 -47.333 70 -70c4.66699 -8.66699 10.667 -29 18 -61c4.66699 -19.333 7 -38.333 7 -57c0 -9.33301 1.33301 -27.666 4 -54.999c0.666992 -2.66699 1 -11 1 -25
c0 -18 -3.66699 -46.333 -11 -85l-21 -62l-8 -17c-7.33301 -17.333 -13 -29.666 -17 -36.999c0 -1.33301 -10.333 -14.666 -31 -39.999c-20.667 -28 -44.334 -53.667 -71.001 -77c-10 -9.33301 -22 -19.333 -36 -30c-2 -2 -8.33301 -5.33301 -19 -10l-85 -42
c-14 -4.66699 -22.667 -7 -26 -7c-9.33301 0 -14 4.33301 -14 13c0 6.66699 6.66699 13.667 20 21c4 2 16 9.33301 36 22l31 24l12 11c34.667 32.667 62.667 68.334 84 107.001l20 35l4 9c8 16.667 12 32.334 12 47.001c0 10.667 -3 16 -9 16c-4 -2 -8 -4.66699 -12 -8
c-11.333 -8.66699 -28.666 -12.334 -51.999 -11.001h-10l-25 1c-30.667 1.33301 -47.667 2.33301 -51 3c-4.66699 2 -14.334 8.33301 -29.001 19c-26 18 -49.333 47.333 -70 88c-9.33301 17.333 -16.666 35.333 -21.999 54c-2 6.66699 -3 25.667 -3 57
c0 42 7.66699 74.667 23 98c18.667 28 39.667 51.333 63 70c15.333 12 35.333 21 60 27c19.333 4.66699 31 7 35 7zM211 633.996c-13.333 0 -29.3311 -6.66797 -47.998 -20.001c-11.333 -8.66699 -21 -19.667 -29 -33c-10 -19.333 -15 -51.666 -15 -96.999
c0 -65.333 10.333 -110.333 31 -135c22 -25.333 47 -38 75 -38c26.667 0 42.667 0.666992 48 2c22 4.66699 40 15.667 54 33c8.66699 9.33301 12.667 22.333 12 39v36c0 7.33301 0.333008 13.333 1 18c0 4 0.166992 8.16699 0.5 12.5s0.666016 7.5 0.999023 9.5
s0.5 3.33301 0.5 4c0 16.667 -9.66699 46 -29 88c-4.66699 10 -11.334 22.667 -20.001 38c-20.667 28.667 -48 43 -82 43z" />
    <glyph glyph-name="colon" unicode=":" horiz-adv-x="200" 
d="M87 335c4.66699 0 14 -3.33398 28 -10.001c16.667 -7.33301 25.667 -11.666 27 -12.999c5.33301 -5.33301 8 -15 8 -29c0 -15.333 -3.33301 -26.333 -10 -33c-3.33301 -3.33301 -10.333 -6.66602 -21 -9.99902s-19 -5 -25 -5c-7.33301 0 -18 7.33301 -32 22
c-8 7.33301 -12 17.666 -12 30.999c0 31.333 12.333 47 37 47zM87 91.999c4.66699 0 14.001 -3.33301 28.001 -10c16.667 -7.33301 25.667 -12 27 -14c5.33301 -5.33301 8 -14.666 8 -27.999c0 -16 -3.33301 -27.333 -10 -34c-8.66699 -8.66699 -24 -13 -46 -13
c-6.66699 0 -17.334 6.66699 -32.001 20c-8 7.33301 -12 17.666 -12 30.999c0 32 12.333 48 37 48z" />
    <glyph glyph-name="semicolon" unicode=";" horiz-adv-x="198" 
d="M88 342c4.66699 0 14.001 -3.33496 28.001 -10.002c16.667 -7.33301 25.667 -11.666 27 -12.999c5.33301 -5.33301 8 -14.666 8 -27.999c0 -16 -3.33301 -27.333 -10 -34c-8.66699 -10 -24 -15 -46 -15c-6.66699 0 -17.334 7.33301 -32.001 22c-8 6.66699 -12 17 -12 31
c0 31.333 12.333 47 37 47zM107.001 91.998c12.667 -1.33301 22.3311 -8.33789 28.998 -21.0049c2 -5.33301 5 -12.666 9 -21.999l9 -22c0.666992 -2.66699 1 -10.667 1 -24c0 -2 -1 -9 -3 -21c-4.66699 -23.333 -15.667 -41.666 -33 -54.999
c-9.33301 -8 -15.666 -12.333 -18.999 -13c-16 -5.33301 -33.333 -8 -52 -8c-4.66699 0 -7 2.33301 -7 7c0 4 2 9 6 15c2 2 12 9.66699 30 23c2 1.33301 4.16699 5.83301 6.5 13.5s3.5 12.834 3.5 15.501c0 14 -7 25.333 -21 34
c-8.66699 4.66699 -13.667 8.33398 -15 11.001c-2.66699 2.66699 -4 7 -4 13c0 18 6.33301 31.333 19 40c4.66699 2.66699 18.334 7.33398 41.001 14.001z" />
    <glyph glyph-name="less" unicode="&#x3c;" 
d="M457 612v-37l-313 -204l313 -209v-99l-414 277v6z" />
    <glyph glyph-name="equal" unicode="=" horiz-adv-x="461" 
d="M72 420c-5.33301 0 3.66504 -1 26.998 -3l47 3h3c14 -2 25 -3 33 -3s15 0.333008 21 1c12 1.33301 38.333 2.33301 79 3c4 0 16.333 1 37 3h7l37 -2h18c11.333 0 18 -0.333008 20 -1c8 -2 11.667 -7.33301 11 -16v-14l2 -15c0 -8.66699 -7.33301 -13 -22 -13
c-15.333 0 -28 0.333008 -38 1c-3.33301 0.666992 -7.66602 1 -12.999 1c-6 0 -15.667 -1.33301 -29 -4h-12c-30.667 -1.33301 -52 -2 -64 -2c-10.667 0 -19 0.333008 -25 1c-22 -2.66699 -35.667 -4 -41 -4c-0.666992 0 -2.16699 0.166992 -4.5 0.5
s-5.66602 0.666016 -9.99902 0.999023s-8.83301 0.5 -13.5 0.5h-12c-0.666992 0 -9.66699 -0.666992 -27 -2l-42 2c-4.66699 0.666992 -8 1.83398 -10 3.50098s-2.66699 4.16699 -2 7.5l1 17l-2 20c0 9.33301 8 14 24 14zM71.998 307c9.33301 0 16 -0.332031 20 -0.999023
l7 -1l47 2h3c14 -2 24.667 -3 32 -3c2.66699 0 10 0.666992 22 2c16 1.33301 42.333 2 79 2c4 0 16.333 1 37 3h7c4 0 13.167 -0.333008 27.5 -1s23.5 -1 27.5 -1c11.333 0 18 -0.333008 20 -1c8 -2 11.667 -7.33301 11 -16v-15l2 -14c0 -8.66699 -7.33301 -13 -22 -13
s-27.334 0.333008 -38.001 1c-2.66699 0.666992 -7.66699 1 -15 1c-4.66699 0 -13.667 -1.33301 -27 -4h-12c-30.667 -1.33301 -51.667 -2 -63 -2c-10 0 -16.333 0.333008 -19 1h-7c-22 -2.66699 -36 -4 -42 -4c-0.666992 0 -2.16699 0.166992 -4.5 0.5
s-5.66602 0.666016 -9.99902 0.999023s-8.5 0.5 -12.5 0.5h-12c-0.666992 0 -9.66699 -0.666992 -27 -2l-42 3c-8.66699 1.33301 -12.667 4.33301 -12 9l1 18l-2 20c0 9.33301 8 14 24 14z" />
    <glyph glyph-name="greater" unicode="&#x3e;" 
d="M43 63v38l313 204l-313 209v98l414 -276v-6z" />
    <glyph glyph-name="question" unicode="?" horiz-adv-x="367" 
d="M168 691c5.33301 0 13.3311 -0.999023 23.998 -2.99902c7.33301 -0.666992 18.333 -2.33398 33 -5.00098c7.33301 -0.666992 17.666 -7.66699 30.999 -21c22.667 -24 39 -43 49 -57c12.667 -19.333 19 -56.333 19 -111c0 -8 -4 -22.667 -12 -44l-9 -22l-24 -33
c-4.66699 -10 -14 -25.333 -28 -46c-4 -6 -10.333 -13.333 -19 -22c-13.333 -24 -23 -41 -29 -51l-10 -18c-14 -36 -21.333 -55.333 -22 -58c-1.33301 -16 -2.66602 -28 -3.99902 -36c-2 -3.33301 -6 -5 -12 -5c-8.66699 0 -13 5.33301 -13 16c0 3.33301 2 25 6 65
c1.33301 8.66699 4.66602 20.334 9.99902 35.001c1.33301 3.33301 3.16602 9.5 5.49902 18.5l5.5 21.5c11.333 27.333 20 50 26 68l16 44l7 14l7 21c10.667 30 16 46.667 16 50l-2 22c-1.33301 16 -3 28 -5 36c0 0.666992 -0.5 2.83398 -1.5 6.50098s-1.83301 6.5 -2.5 8.5
c-5.33301 24 -15 43 -29 57c-10.667 9.33301 -26 14 -46 14c-18.667 0 -35.334 -5.33301 -50.001 -16c-10.667 -8 -16 -20.667 -16 -38c0 -5.33301 1 -10.333 3 -15c1.33301 -2 7.33301 -10 18 -24c3.33301 -4.66699 5 -11.334 5 -20.001c0 -18 -4.66699 -30.667 -14 -38
c-5.33301 -3.33301 -11.666 -5 -18.999 -5s-13.666 1.33301 -18.999 4c-3.33301 2 -8.66602 8 -15.999 18c-0.666992 1.33301 -2.66699 4.33301 -6 9c-6.66699 9.33301 -10 17.666 -10 24.999s2.66699 21 8 41c2.66699 12.667 7.66699 24 15 34
c0.666992 2 6.33398 8.33301 17.001 19c10.667 12 20.334 20 29.001 24c5.33301 2.66699 17.333 6.66699 36 12c18 3.33301 28.667 5 32 5zM157.998 91.001c4 0 11.999 -2.33203 23.999 -6.99902c9.33301 -2.66699 19.333 -6.66699 30 -12c6 -6.66699 9 -18 9 -34
c0 -14.667 -3.33301 -24.334 -10 -29.001c-3.33301 -3.33301 -13.333 -8 -30 -14c-4.66699 -2 -9 -3 -13 -3c-5.33301 0 -15.666 5.66699 -30.999 17c-10.667 8 -16 21.667 -16 41c0 27.333 12.333 41 37 41z" />
    <glyph glyph-name="at" unicode="@" horiz-adv-x="695" 
d="M383 499c16.667 0 29.001 -6.67285 37.001 -20.0059l7 -10l13 10l31 -2l24 -2c3.33301 -1.33301 5 -6.66602 5 -15.999c0 -4.66699 -0.666992 -11.667 -2 -21c-1.33301 -8.66699 -5.33301 -31.334 -12 -68.001l-12 -72l-4 -21
c-1.33301 -6.66699 -2.33301 -12.167 -3 -16.5s-1.33398 -8 -2.00098 -11s-1 -5.16699 -1 -6.5l-1 -2c0 -19.333 6.33301 -29 19 -29c16.667 0 35 10 55 30c40.667 40 60.667 73 60 99l-1 26c-1.33301 26.667 -2.33301 42.334 -3 47.001
c-0.666992 2.66699 -1.5 5.83398 -2.5 9.50098l-4 14.5l-4.5 16c-5.33301 21.333 -10.666 39 -15.999 53c-3.33301 15.333 -22.333 41 -57 77c-3.33301 3.33301 -8.5 8.83301 -15.5 16.5s-11.167 12.167 -12.5 13.5c-5.33301 4 -20.666 9.33301 -45.999 16
c-10.667 2.66699 -25.667 4.33398 -45 5.00098l-36 5l-9 -1c-10.667 -2.66699 -23.667 -7 -39 -13c-33.333 -14 -52 -22.333 -56 -25c-17.333 -13.333 -37.666 -31 -60.999 -53c-19.333 -21.333 -38.333 -48.333 -57 -81c-0.666992 -3.33301 -3.66699 -13 -9 -29l-6 -18
l-13 -75l5 -62c2 -22 3.33301 -33.667 4 -35l15 -52l10 -35c1.33301 -4 2.33301 -6.33301 3 -7c0.666992 -2 12 -14 34 -36c10 -14.667 17 -24 21 -28c6 -2.66699 16 -9 30 -19l35 -22c12.667 -6 24.667 -10 36 -12l30 -2c6 0 11.667 -0.166992 17 -0.5
s9.16602 -0.666016 11.499 -0.999023s3.83301 -0.5 4.5 -0.5c24.667 0 44.334 1.66699 59.001 5c10.667 3.33301 22.667 8.66602 36 15.999c11.333 6 31.333 16 60 30l22 18c39.333 30.667 62.333 46.667 69 48l22 7c2.66699 2 4.33398 3 5.00098 3c4 0 6 -2.33301 6 -7
c0 -7.33301 -7.66699 -20.666 -23 -39.999c-12.667 -16 -23.667 -27.667 -33 -35c-28 -25.333 -63.667 -47.666 -107 -66.999c-24 -8.66699 -44 -14.667 -60 -18c-2 -0.666992 -15.667 -1.66699 -41 -3c-28.667 -2 -47.334 -3 -56.001 -3c-30 0 -55.667 4 -77 12
c-12 3.33301 -29.333 14 -52 32c-2.66699 2.66699 -12.334 9.66699 -29.001 21l-24 23c-8 7.33301 -20 21 -36 41l-17 30l-27 44c-0.666992 0.666992 -3 10 -7 28c-2 5.33301 -3.83301 10.5 -5.5 15.5s-3 8.83301 -4 11.5s-1.83301 5.16699 -2.5 7.5s-1 3.83301 -1 4.5
c0 8 -0.333008 16.333 -1 25c-2 33.333 -3 47.333 -3 42c0 23.333 3 57 9 101c3.33301 16.667 11.666 40 24.999 70l16 33l14 18l9 13l15 16c10.667 14 29 33 55 57c53.333 36 112.666 54 177.999 54c75.333 0 135 -18 179 -54c35.333 -29.333 55 -46.666 59 -51.999
c14.667 -22 24 -36.667 28 -44c16.667 -32 28 -55 34 -69c5.33301 -14.667 8 -37 8 -67c0 -26.667 -3.33301 -51 -10 -73c-12.667 -46.667 -40.667 -83 -84 -109c-32 -18.667 -65 -33.334 -99 -44.001c-2 0 -4.5 -0.666992 -7.5 -2s-5.16699 -2 -6.5 -2l-28 1
c-4.66699 -0.666992 -10 -1 -16 -1c-12.667 0 -19.667 2 -21 6l-6 14c-1.33301 1.33301 -2.66602 2 -3.99902 2s-10 -3.66699 -26 -11c-4.66699 -2 -17.334 -5.33301 -38.001 -10l-20 -4c-6.66699 0 -16 2.33301 -28 7c-13.333 5.33301 -22 10 -26 14
c-9.33301 9.33301 -16.333 19 -21 29c-13.333 30 -20 52.667 -20 68c0 26 5.66699 55.333 17 88c16.667 46.667 41 79.334 73 98.001c14 8 34 15 60 21c18 4.66699 28.667 7 32 7zM385.001 430.994c-18 0 -34.998 -2.66797 -50.998 -8.00098
c-20 -7.33301 -36.333 -20.666 -49 -39.999c-8.66699 -11.333 -13.334 -21 -14.001 -29c-7.33301 -42 -11 -64 -11 -66c0 -16 4 -32.667 12 -50c8 -16.667 23.667 -25 47 -25c28.667 0 51 12.333 67 37c7.33301 14 13 26.667 17 38c1.33301 4 4.66602 19.333 9.99902 46
c0 1.33301 0.666992 4 2 8l5 21l1 23l2 21c0 5.33301 -2.33301 10 -7 14c-8.66699 6.66699 -19 10 -31 10z" />
    <glyph glyph-name="A" unicode="A" horiz-adv-x="535" 
d="M401 4c-1.33301 0 -2.66992 -0.333984 -4.00293 -1.00098c-13.333 -4.66699 -25.333 -7 -36 -7s-16 3.33301 -16 10c0 4.66699 4.66699 10.667 14 18c20 16 30 34.333 30 55c0 11.333 -3 26.333 -9 45c0 0.666992 -0.833008 2.83398 -2.5 6.50098l-7 16l-9.5 22.5
c-2 4 -7.33301 24.333 -16 61c-8.66699 24.667 -25 37 -49 37l-32 8c-10.667 4 -23.334 6 -38.001 6c-22.667 0 -39.667 -3 -51 -9c-8.66699 -2.66699 -16.667 -16.334 -24 -41.001c-4 -17.333 -8.33301 -29.666 -13 -36.999c-9.33301 -15.333 -15.666 -29 -18.999 -41
c0 -0.666992 -1.33301 -7.66699 -4 -21c-3.33301 -25.333 -5 -39 -5 -41c0 -13.333 1.66699 -22.666 5 -27.999l4 -4c2.66699 -2.66699 6.66699 -7 12 -13s11.333 -12.333 18 -19c7.33301 -7.33301 11 -12.333 11 -15c0 -8.66699 -8 -13 -24 -13
c-8.66699 0 -19.334 0.333008 -32.001 1h-10h-9h-17l-44 -1c-16 0 -24 5 -24 15c0 6 1.66699 10 5 12l19 15c4 2.66699 10.667 15 20 37c0.666992 2 6.33398 10 17.001 24c2.66699 3.33301 7.33398 18 14.001 44c2 3.33301 10.333 24 25 62l16 44l51 139
c0 1.33301 1.16699 4.83301 3.5 10.5l11.5 28.5l16 40c16.667 40 26.667 65.667 30 77c10.667 32 18.334 66.333 23.001 103c4 24.667 12 37 24 37c4 0 8.66699 -5.66699 14 -17c3.33301 -6.66699 14.333 -38 33 -94c0 -0.666992 5.66699 -12.667 17 -36
c0.666992 -4.66699 2.66699 -14 6 -28c0.666992 -2 1.5 -5 2.5 -9s2.5 -9.5 4.5 -16.5s3.66699 -13.167 5 -18.5s7 -18.333 17 -39l27 -70l9 -35l17 -55l24 -78c4.66699 -12 12.334 -35.667 23.001 -71c10 -32 21.667 -55.333 35 -70
c2 -0.666992 9.66699 -6.33398 23 -17.001c4 -3.33301 6 -8 6 -14c0 -9.33301 -6.33301 -15 -19 -17l-57 -2l-25 -2c-2 0 -14 2 -36 6zM258.996 477.999c-2 0 -3.66797 -0.666992 -5.00098 -2l-10 -17l-20 -35c-10 -29.333 -15 -50.333 -15 -63c0 -7.33301 1 -13.333 3 -18
c4 -9.33301 17.333 -16.333 40 -21c6 -0.666992 10.667 -1.66699 14 -3c8.66699 -2.66699 16.334 -4 23.001 -4c8.66699 0 13 4.66699 13 14c0 36 -4.33301 68 -13 96c-11.333 35.333 -21.333 53 -30 53z" />
    <glyph glyph-name="B" unicode="B" horiz-adv-x="521" 
d="M137 674l10.9961 -0.998047l16 -1l38 -3c17.333 -1.33301 26.333 -2 27 -2h68l14 -1c14.667 0 41.334 -13 80.001 -39c22 -10.667 36.667 -20 44 -28c26 -30 39 -70.333 39 -121c0 -20 -4 -36.333 -12 -49c-18 -28.667 -32 -47.667 -42 -57
c-14.667 -12 -23 -19.333 -25 -22c-1.33301 -2.66699 -2 -5 -2 -7c0 -7.33301 5 -14 15 -20c6 -4 17.667 -15.667 35 -35l14 -25c14.667 -23.333 22 -46.333 22 -69v-13c-0.666992 -7.33301 -1 -14.333 -1 -21c0.666992 -42 -17.666 -80.667 -54.999 -116
c-42.667 -32 -76.667 -47.667 -102 -47c-11.333 -0.666992 -24.333 -1 -39 -1h-47l-73 1c-4 0 -12.667 0.5 -26 1.5s-22 1.5 -26 1.5c-5.33301 0 -10 -0.333008 -14 -1c-16 -1.33301 -26 -2 -30 -2c-12 0 -18 4.66699 -18 14c0 5.33301 1 9 3 11l30 33
c9.33301 20 15 43.333 17 70c2 40 3 71.667 3 95l1 220c0 6 -0.666992 17 -2 33c3.33301 25.333 5 38.666 5 39.999c0 0.666992 -0.166992 2.5 -0.5 5.5s-0.666016 7.66699 -0.999023 14s-0.5 12.833 -0.5 19.5c-1.33301 14.667 -4 28 -8 40c-2 6.66699 -4 13 -6 19
c-3.33301 4.66699 -11.666 14 -24.999 28c-6 4.66699 -9 9.66699 -9 15c0 7.33301 2.66699 11.666 8 12.999c0.666992 0.666992 14 1.66699 40 3c3.33301 0 11.333 1 24 3c4 0.666992 7.33301 1 10 1zM249.996 333.002l-19.001 -0.00195312h-21
c-10.667 -0.666992 -18 -12 -22 -34c-2 -7.33301 -3 -16.666 -3 -27.999v-47l-3 -17c0 -1.33301 0.333008 -4.83301 1 -10.5s1 -9.16699 1 -10.5l-1 -61l-4 -43c0 -8 1.33301 -13.667 4 -17c6.66699 -10 17.667 -18.333 33 -25c10.667 -5.33301 18 -7.66602 22 -6.99902
l20 2c10.667 0.666992 22.667 1.66699 36 3c7.33301 3.33301 19.333 11.666 36 24.999c20.667 16.667 35 37 43 61c0.666992 6 1.66699 17 3 33c0 4.66699 0.333008 9.33398 1 14.001v26v23c-1.33301 20.667 -4 34 -8 40c-9.33301 14 -21.666 28 -36.999 42
c-20.667 20.667 -48 31 -82 31zM239.995 628c-4 0 -10.666 -3.16797 -19.999 -9.50098s-16 -11.5 -20 -15.5c-2 -2 -4.66699 -9 -8 -21c-1.33301 -5.33301 -2.33301 -15.666 -3 -30.999l-3 -27c0 -2.66699 0.333008 -5 1 -7c2.66699 -13.333 4 -31 4 -53
c0 -6.66699 -0.333008 -13.667 -1 -21v-9c0 -24 8.33301 -42.333 25 -55c9.33301 -6 17.666 -9 24.999 -9c21.333 0 38.333 4.33301 51 13l25 17l32 20c18.667 21.333 28 49.333 28 84c0 6 -1.66699 20.667 -5 44c-2 12 -9 22.333 -21 31c-8 5.33301 -13 10 -15 14
c-12.667 14.667 -21 23.334 -25 26.001c-0.666992 0 -2.16699 0.166992 -4.5 0.5s-6 0.666016 -11 0.999023s-10.167 0.5 -15.5 0.5z" />
    <glyph glyph-name="C" unicode="C" horiz-adv-x="635" 
d="M371 687c61.333 0 121.333 -17.334 180 -52.001c4.66699 -2.66699 17.334 -8 38.001 -16c8 -3.33301 12.333 -9.33301 13 -18c2 -16 3 -37.333 3 -64c0 -2 -0.333008 -7 -1 -15s-1 -13 -1 -15v-28c0 -7.33301 -3.33301 -11 -10 -11c-5.33301 0 -10 4 -14 12
c0 0.666992 -3.66699 8.66699 -11 24c-14 26 -21.667 39.667 -23 41c-4.66699 8 -10.667 14 -18 18l-30 21c-10 8 -28 20.333 -54 37c-6 2.66699 -22 6 -48 10c-18.667 3.33301 -31 5 -37 5c-10.667 0 -21 -3 -31 -9c-20.667 -4.66699 -42.667 -17.334 -66 -38.001
c-15.333 -8.66699 -25.333 -15 -30 -19c-22.667 -26 -38.334 -48 -47.001 -66c-15.333 -34 -23 -55.333 -23 -64v-44l-2 -12c-6.66699 -22 -10 -35.667 -10 -41c0 -2 0.333008 -4 1 -6c2 -15.333 3 -28.333 3 -39v-6l-2 -26v-5l2 -15v-34
c0 -10.667 7.33301 -30.334 22 -59.001c11.333 -20.667 22 -36.334 32 -47.001c27.333 -29.333 55 -48.666 83 -57.999c17.333 -5.33301 35.333 -8 54 -8l50 1c8 0 23.333 0.666992 46 2c4.66699 0 8.66699 0.333008 12 1c15.333 0.666992 26 3 32 7
c13.333 8 28 21.667 44 41c8 14.667 18 31 30 49c5.33301 6 9 13.667 11 23c2 15.333 8 23 18 23c9.33301 0 14 -7.66699 14 -23c0 -2.66699 -0.666992 -20.667 -2 -54v-28c-1.33301 -19.333 -2.66602 -31.666 -3.99902 -36.999
c-0.666992 -3.33301 -3.66699 -6.66602 -9 -9.99902l-10 -5l-6 -3c-2 -0.666992 -3.33301 -1.33398 -4 -2.00098c-22.667 -15.333 -35.667 -22.333 -39 -21l-29 -9c-26 -9.33301 -45 -14 -57 -14c-30 0 -51.333 0.333008 -64 1h-7.5h-7.5l-4 1
c-7.33301 0 -16 -0.333008 -26 -1c-13.333 0.666992 -24.333 2.33398 -33 5.00098c-5.33301 1.33301 -18.333 7 -39 17c-22 12.667 -33.333 19.334 -34 20.001l-24 18c-30 22 -52.333 40.667 -67 56c-16.667 19.333 -37 50.333 -61 93c-9.33301 16 -18 37.333 -26 64
c-3.33301 12 -5 41.333 -5 88c0 36 2.33301 65.667 7 89c7.33301 34.667 20.666 63.667 39.999 87c16 18 24.333 28 25 30l26 43c8.66699 14.667 37.667 33 87 55c34 15.333 57.333 25 70 29c26 7.33301 50.333 11 73 11z" />
    <glyph glyph-name="D" unicode="D" horiz-adv-x="627" 
d="M85 666c14 0 28.334 -1.66699 43.001 -5c5.33301 -1.33301 8.33301 -2 9 -2c2 0 16.667 3 44 9l55 3c0.666992 0 16.667 -0.666992 48 -2c22 -0.666992 49.667 -1.66699 83 -3c8.66699 -0.666992 32 -12 70 -34l7 -4l13 -12c26 -15.333 46.667 -33 62 -53
c11.333 -9.33301 25.666 -27 42.999 -53c11.333 -30.667 18 -52 20 -64c4 -28 6 -49 6 -63v-52v-48c0.666992 -16 -5 -44 -17 -84c-4 -14.667 -7.33301 -24 -10 -28c-2.66699 -6 -9 -17.333 -19 -34c-12.667 -22 -23.334 -38 -32.001 -48
c-13.333 -13.333 -26 -23.666 -38 -30.999c-1.33301 -0.666992 -4.83301 -2.66699 -10.5 -6l-13.5 -8c-6.66699 -3.33301 -27 -11 -61 -23c-4 -2 -10 -4.33301 -18 -7c-26.667 -9.33301 -46 -14.666 -58 -15.999c-8.66699 0 -20.667 -0.333008 -36 -1
c-19.333 -1.33301 -29.333 -2 -30 -2c-2 -0.666992 -4.66699 -1 -8 -1s-5.66602 -0.333008 -6.99902 -1c-1.33301 0 -5.16602 0.5 -11.499 1.5s-12.166 2.16699 -17.499 3.5c-4 0.666992 -16.333 1 -37 1c-11.333 0 -21.333 0.333008 -30 1l-29 -1l-35 1l-17 -1
c-10 0.666992 -15 7.33398 -15 20.001c0 6.66699 2.33301 12 7 16l25 15c17.333 13.333 25.666 35.333 24.999 66c-0.666992 5.33301 0.333008 16.666 3 33.999s4 28.333 4 33c0 8 -0.666992 23.333 -2 46c0 2.66699 -0.333008 5 -1 7c0 2.66699 0.333008 5.66699 1 9
c1.33301 12 2 26.667 2 44v5c-0.666992 4 -1.16699 8.5 -1.5 13.5s-0.5 9.5 -0.5 13.5l-1 50c0 11.333 -0.666992 28.333 -2 51c-0.666992 11.333 -1 20.666 -1 27.999c0 11.333 0.666992 22.333 2 33c2.66699 11.333 4 20 4 26s-1 14.667 -3 26
c-0.666992 12 -1.66699 20.667 -3 26c-4 19.333 -7.33301 31.333 -10 36c-2.66699 6 -7.33398 13 -14.001 21l-10.5 7c-5 3.33301 -9.16699 6 -12.5 8c-4 3.33301 -6 8.66602 -6 15.999c0 11.333 14 17 42 17zM294.001 622c-58.667 0 -88.998 -20.6641 -90.998 -61.9971
c-1.33301 -16 -4 -33.333 -8 -52c-0.666992 -0.666992 -1 -1.66699 -1 -3c0 -2 2.66699 -14.333 8 -37v-11c0 -0.666992 -0.166992 -2 -0.5 -4s-0.666016 -4.83301 -0.999023 -8.5s-0.5 -7.5 -0.5 -11.5l-3 -44c0 -24 -0.333008 -43.667 -1 -59
c-0.666992 -1.33301 -1.16699 -3.5 -1.5 -6.5s-0.5 -5.16699 -0.5 -6.5l5 -46c-0.666992 -12.667 -1.66699 -24.667 -3 -36l-1 -24l-2 -26c3.33301 -26.667 5 -40.667 5 -42c0 -6 -0.666992 -17.667 -2 -35c-0.666992 -1.33301 -1 -3.33301 -1 -6
c0 -16 5.83301 -30.667 17.5 -44s25.167 -20 40.5 -20c3.33301 0 15.333 3 36 9l30 5l23 5c11.333 2.66699 21.666 6.66699 30.999 12c4.66699 3.33301 11.667 10.333 21 21l23 27c1.33301 2 3.66602 4.66699 6.99902 8s5.66602 6 6.99902 8
c0.666992 1.33301 1.83398 3.16602 3.50098 5.49902s4 5.83301 7 10.5l8.5 13c1.33301 2 3.83301 5.5 7.5 10.5l8.5 11.5c4 6 7.33301 14.333 10 25c0 0.666992 0.5 6.16699 1.5 16.5s2.16699 19.833 3.5 28.5l7 39c0 5.33301 0.833008 16.166 2.5 32.499s2.5 26.5 2.5 30.5
l-3 27l-1 27c0 7.33301 -0.666992 22.333 -2 45c-0.666992 4 -8 17.667 -22 41c-6 13.333 -17.333 31.666 -34 54.999c-8.66699 8.66699 -23.334 19 -44.001 31c-12 7.33301 -19.333 12 -22 14c-18 12 -29.333 19 -34 21c-10 3.33301 -22.333 5 -37 5z" />
    <glyph glyph-name="E" unicode="E" horiz-adv-x="496" 
d="M71 670l22.0029 -1.00098c2 0 5.16699 0.166992 9.5 0.5s10.5 0.666016 18.5 0.999023s15.667 0.5 23 0.5c6.66699 0 14.334 0.333008 23.001 1c1.33301 0 5.5 0.166992 12.5 0.5s11.833 0.5 14.5 0.5c14 0 30.667 -2.33301 50 -7c2 -0.666992 4 -1 6 -1s9.33301 1 22 3
c0.666992 0.666992 5 1 13 1c8.66699 0 17.334 0.333008 26.001 1c6.66699 0.666992 14.667 1 24 1c14 0 29.333 -1.66699 46 -5c0.666992 0 2 -0.333008 4 -1s3.66699 -1 5 -1c2 0.666992 9.66699 2 23 4h7c14 0 21.667 -5.66699 23 -17c0.666992 -2.66699 2 -19.667 4 -51
c-0.666992 -6 -1 -11.667 -1 -17c0 -0.666992 0.166992 -2.33398 0.5 -5.00098s1 -7.5 2 -14.5s1.83301 -13.833 2.5 -20.5c0 -2 0.166992 -4.33301 0.5 -7s0.666016 -4.83398 0.999023 -6.50098s0.5 -3.33398 0.5 -5.00098v-3.5c0 -10.667 -3 -16 -9 -16
c-4.66699 2.66699 -11.667 7.33398 -21 14.001c-3.33301 2 -10 15 -20 39l-10 15c-0.666992 2 -5 8.33301 -13 19c-6 6.66699 -15.667 12 -29 16c-6 1.33301 -16.333 2.33301 -31 3c-0.666992 0.666992 -5.33398 2 -14.001 4c-20.667 6.66699 -37 10 -49 10
c-32 0 -48.333 -8.33301 -49 -25l-2 -22l-2 -15v-8c-4 -23.333 -6 -40.666 -6 -51.999v-3v-8c0 -3.33301 0.166992 -6.83301 0.5 -10.5s0.5 -7.66699 0.5 -12v-11.5l-1 -41c0 -32 11.333 -48 34 -48c10.667 0 20.334 3 29.001 9c24 16.667 40.667 30.667 50 42
c5.33301 7.33301 10.333 11 15 11s8.66699 -3.66699 12 -11c0 -0.666992 0.166992 -2 0.5 -4s0.666016 -5 0.999023 -9s0.5 -7.66699 0.5 -11l2 -19c0.666992 -12.667 0 -31 -2 -55l-2 -18l2 -21c0 -2 0.166992 -4.5 0.5 -7.5s0.833008 -5.5 1.5 -7.5v-3
c0 -4.66699 -2.66699 -13 -8 -25c-1.33301 -3.33301 -3.66602 -5 -6.99902 -5s-9 4.66699 -17 14l-11 14l-8 22l-17 17c-4.66699 6.66699 -8.33398 10.667 -11.001 12c-4.66699 4 -15 6 -31 6c-12 0 -19.333 -3 -22 -9c0 -0.666992 -0.666992 -17 -2 -49
c0 -5.33301 -1.83301 -17.166 -5.5 -35.499s-5.5 -30.833 -5.5 -37.5c0 -7.33301 0.333008 -14.666 1 -21.999l-1 -26c0 -4.66699 -0.666992 -19.667 -2 -45c0 -2 -0.166992 -3.83301 -0.5 -5.5s-0.5 -3.16699 -0.5 -4.5s-0.166992 -2.5 -0.5 -3.5s-0.5 -1.83301 -0.5 -2.5
v-1c0 -22 20 -33.667 60 -35c24 -2.66699 38.667 -4 44 -4s17.666 2.66699 36.999 8c10.667 2.66699 18 6 22 10l19 18c15.333 10 24 16.667 26 20c4 7.33301 11.333 25.333 22 54c3.33301 9.33301 9 14 17 14c8.66699 0 13 -7 13 -21c0 -46 -1.33301 -76.667 -4 -92l-3 -39
c-3.33301 -13.333 -11 -20 -23 -20c-2 0 -20.667 3.66699 -56 11c-18 -2.66699 -28.667 -4 -32 -4c-0.666992 0 -2.83398 0.166992 -6.50098 0.5s-9.5 0.666016 -17.5 0.999023s-16.667 0.5 -26 0.5l-74 -3c-2 0 -7.5 0.333008 -16.5 1s-14.833 1 -17.5 1h-7
c-22 0 -45.667 -0.333008 -71 -1l-43 -2c-11.333 0 -17 3.33301 -17 10c0 8.66699 4 15.334 12 20.001c8.66699 4.66699 16 8 22 10c11.333 14 18.333 23.667 21 29c1.33301 6.66699 3 18 5 34l3 29c0 3.33301 -0.166992 10.166 -0.5 20.499s-0.5 16.833 -0.5 19.5v36
c-0.666992 7.33301 -1 14 -1 20l1 10v8c0 44 1.66699 73 5 87c-0.666992 6.66699 -1.33398 16.334 -2.00098 29.001s-0.666992 27 0 43v28l2 43c1.33301 18.667 3.33301 36.334 6 53.001l-7 31c-4 21.333 -8.33301 35.333 -13 42c-8.66699 12.667 -24 26 -46 40
c-2.66699 2 -4 5.33301 -4 10c0 14 9.66699 21 29 21z" />
    <glyph glyph-name="F" unicode="F" horiz-adv-x="469" 
d="M52 666l21 -1c4.66699 0.666992 13 1.66699 25 3c3.33301 0.666992 6.66602 1 9.99902 1c5.33301 0 22.333 -2.33301 51 -7c5.33301 0 15 1 29 3l32 4c29.333 2 53.333 3 72 3c4 0 20.667 -1 50 -3l10 1c10 0 20 0.333008 30 1h19c6 0.666992 12.333 1 19 1
c16 0 24 -5.66699 24 -17l-1 -24c0 -1.33301 0.166992 -4.83301 0.5 -10.5s0.5 -10.167 0.5 -13.5v-24v-10v-43c0 -12.667 -3.66699 -19 -11 -19c-10 0 -22.333 12.333 -37 37c-0.666992 1.33301 -3.16699 6.83301 -7.5 16.5l-12.5 27.5c-5.33301 12 -16 21.667 -32 29
c-0.666992 0 -5 1.66699 -13 5c-4 2.66699 -7 4.33398 -9 5.00098l-41 -5c-1.33301 0 -2.66602 0.333008 -3.99902 1c-8 2.66699 -17 4 -27 4c-24 0 -41.333 -8.33301 -52 -25c-5.33301 -6 -8.33301 -15 -9 -27c-2.66699 -17.333 -4.33398 -28 -5.00098 -32v-26
c0 -3.33301 -0.666992 -12.333 -2 -27v-7c0 -8 1.33301 -23.667 4 -47v-3v-5c-2 -13.333 -3 -24.333 -3 -33c0 -14 4.66699 -22.667 14 -26c4.66699 -2 15 -3 31 -3c15.333 0 26.333 1.66699 33 5c24.667 15.333 41.334 30.333 50.001 45c9.33301 15.333 16 23 20 23
c8 0 12 -22 12 -66c0 -2 -0.333008 -4 -1 -6c-4 -25.333 -6 -42.666 -6 -51.999c0 -2 0.666992 -6.33301 2 -13c4 -21.333 6 -36.333 6 -45s-3.66699 -13 -11 -13c-5.33301 0 -9.33301 2.33301 -12 7l-20 37c-6 12 -17.667 22 -35 30c-13.333 7.33301 -27.333 11 -42 11
c-24 0 -36.667 -19 -38 -57c-1.33301 -22.667 -2.66602 -38 -3.99902 -46v-33v-8l1 -17v-24v-13v-54c0 -1.33301 1.66699 -9.33301 5 -24c4 -10.667 6.33301 -17.334 7 -20.001c2 -3.33301 9 -8.33301 21 -15c9.33301 -5.33301 14 -11 14 -17c0 -5.33301 -4.33301 -8 -13 -8
s-23.334 1 -44.001 3c-0.666992 0.666992 -2 1 -4 1s-3.66699 -0.333008 -5 -1l-14 -1l-37 4l-65 -4c-6.66699 0 -10 2.66699 -10 8s7.66699 14.666 23 27.999c9.33301 13.333 17 28 23 44c8 19.333 11.667 38 11 56v38v49l-1 16v27l-1 25v82l-1 24l5 33l-1 33l2 27
c-0.666992 4.66699 -1 10.667 -1 18c0.666992 13.333 0.333984 25 -0.999023 35l-8 34c-1.33301 4 -2.5 8.33301 -3.5 13s-1.5 7.33398 -1.5 8.00098l-2 3c-1.33301 1.33301 -3.33301 3.66602 -6 6.99902l-9 11c-4.66699 6 -8.33398 9.33301 -11.001 10l-20 10
c-3.33301 1.33301 -5 5.33301 -5 12c0 10.667 7.33301 16 22 16z" />
    <glyph glyph-name="G" unicode="G" horiz-adv-x="672" 
d="M362 685c31.333 0 67.668 -1.66699 109.001 -5c14 -1.33301 24.667 -3.66602 32 -6.99902l38 -17c12 -3.33301 26.667 -9.33301 44 -18c16.667 -12.667 25 -28.334 25 -47.001c0 -26 -1 -56.667 -3 -92c-0.666992 -14 -1.5 -24 -2.5 -30s-1.83301 -9.33301 -2.5 -10
s-2 -1 -4 -1c-10.667 0 -23.334 21 -38.001 63c-6 16 -11 26 -15 30c-0.666992 0.666992 -7.66699 5.66699 -21 15c-4.66699 8 -14 18.667 -28 32c-1.33301 2 -5.66602 5.33301 -12.999 10c-15.333 11.333 -33.666 19.333 -54.999 24c-28.667 5.33301 -45.334 8 -50.001 8
c-38.667 0 -75.334 -10.667 -110.001 -32c-19.333 -11.333 -34 -22.333 -44 -33c-16.667 -17.333 -30 -41.333 -40 -72c-5.33301 -16.667 -10.666 -36.334 -15.999 -59.001c-8 -32 -12 -51 -12 -57c0.666992 -4 1.66699 -13.667 3 -29v-15l-1 -5v-10.5v-11.5l-1 -45l-3 -30
c0 -2 3.66699 -18.667 11 -50c0 -2 7.33301 -19 22 -51c18 -43.333 52 -75.666 102 -96.999c28 -11.333 52 -17 72 -17c10.667 0 29.334 3.33301 56.001 10c7.33301 1.33301 16.333 2.33301 27 3c40.667 2 61 32 61 90c0 13.333 -4 25.166 -12 35.499
s-17.667 15.833 -29 16.5c-14.667 0.666992 -23.667 1.66699 -27 3s-5 5.33301 -5 12c0 4.66699 2.66699 8.66699 8 12c6 0 16.667 1.33301 32 4c28 4 42.333 6 43 6c4.66699 0 25.334 -2 62.001 -6h11c1.33301 0 5.33301 0.5 12 1.5s10.667 1.5 12 1.5
c9.33301 0 15 -5.66699 17 -17v-3c0 -6 -1 -10 -3 -12l-17 -19c-2 -3.33301 -3.66699 -17.666 -5 -42.999v-24l-1 -39c0 -12.667 -1.33301 -25.667 -4 -39c-0.666992 -10 -7.66699 -15 -21 -15c-4 0 -11.833 0.5 -23.5 1.5s-18.834 1.5 -21.501 1.5
c-4.66699 0 -18 -3.33301 -40 -10l-34 -3l-26 -3l-16 -2c-16 -1.33301 -28.667 -2.66602 -38 -3.99902c-3.33301 0 -6.33301 -0.166992 -9 -0.5s-4.66699 -0.5 -6 -0.5l-2 -1c-42 0 -68 1.66699 -78 5c-46.667 16.667 -85.334 39.334 -116.001 68.001
c-18.667 17.333 -32.334 32.666 -41.001 45.999c-24.667 35.333 -43 71.666 -55 108.999c-1.33301 3.33301 -3.5 9.33301 -6.5 18s-5.16699 15.334 -6.5 20.001c-10.667 26 -16 50.333 -16 73c0 11.333 0.333008 21.333 1 30c0 4 0.166992 8.5 0.5 13.5
s0.666016 8.83301 0.999023 11.5s0.5 4.66699 0.5 6c1.33301 30 9 62 23 96c15.333 37.333 38 74.666 68 111.999c14 17.333 30.667 31 50 41l11 8c18 14 40.333 25.333 67 34c14.667 4.66699 25.334 7.66699 32.001 9c24 1.33301 45.667 2 65 2z" />
    <glyph glyph-name="H" unicode="H" horiz-adv-x="713" 
d="M76 670c7.33301 0 15.335 -0.335938 24.002 -1.00293h11c8 -0.666992 21.667 -1 41 -1h29l45 1c14.667 0 22 -4.33301 22 -13c0 -5.33301 -1.66699 -9 -5 -11l-20 -16c-17.333 -14 -26 -41.333 -26 -82c0 -4.66699 1 -20.334 3 -47.001v-16
c0 -12.667 -0.666992 -25 -2 -37c-3.33301 -26.667 -5 -40.667 -5 -42c0 -20.667 15 -34.334 45 -41.001c10 -2 30.667 -3 62 -3h36c28.667 0 48.334 1.33301 59.001 4l56 -7c11.333 -2 28.333 2.66699 51 14c11.333 5.33301 17 13.333 17 24
c0 3.33301 -0.666992 9.66602 -2 18.999c0 3.33301 -0.333008 6 -1 8l1 9v43l3 47c-2 11.333 -3 18.666 -3 21.999c0 7.33301 0.333008 14 1 20c0.666992 2.66699 1 6 1 10c0 19.333 -4.66699 35.666 -14 48.999c-2 3.33301 -7 6.33301 -15 9c-12 4 -18 9.66699 -18 17
c0 8.66699 6.66699 13 20 13h8h14c2.66699 0 7.33398 0.166992 14.001 0.5s11.334 0.5 14.001 0.5c0.666992 0 1.66699 -0.166992 3 -0.5s3.16602 -0.666016 5.49902 -0.999023s4.83301 -0.5 7.5 -0.5c1.33301 -0.666992 3 -1 5 -1c3.33301 0 11.333 0.833008 24 2.5
s21 2.5 25 2.5c30 0 45 -3.66699 45 -11c0 -2.66699 -10.667 -13.667 -32 -33c-11.333 -11.333 -17 -37.333 -17 -78c0 -5.33301 0.333008 -9.66602 1 -12.999c0.666992 -6 1 -11 1 -15c0 -2.66699 -0.166992 -7.33398 -0.5 -14.001s-0.5 -10.667 -0.5 -12
c0 -8.66699 1.33301 -30.667 4 -66l-2 -20c0 -12.667 -0.333008 -27 -1 -43c0 -4 -0.666992 -14 -2 -30c-0.666992 -2 -1 -4.66699 -1 -8c0 -5.33301 1 -19.666 3 -42.999v-12l-1 -36l-1 -118c-1.33301 -35.333 5.33398 -60.666 20.001 -75.999l2 -1
c2 -1.33301 4.33301 -3.16602 7 -5.49902l9 -7.5c8 -6 12 -11.333 12 -16c0 -6.66699 -4.66699 -10 -14 -10c-8 0 -17.667 1 -29 3h-9h-43h-19h-25c-20 -1.33301 -31.333 -2 -34 -2c-8.66699 0 -13 3 -13 9c0 2 0.666992 3.66699 2 5l29 27c8 6.66699 13.333 21 16 43
c0.666992 8.66699 1.66699 29.334 3 62.001l1 12c-3.33301 12 -5 19 -5 21l1 46c0 3.33301 0.166992 6.5 0.5 9.5s0.666016 5.33301 0.999023 7s0.5 3.33398 0.5 5.00098v3.5c0 27.333 -2.66699 44.666 -8 51.999c-7.33301 9.33301 -27 14.333 -59 15l-17 1h-9
c-30.667 -1.33301 -47 -2 -49 -2c-0.666992 0 -9 0.666992 -25 2h-9c-0.666992 0 -2 -0.166992 -4 -0.5s-5.33301 -0.666016 -10 -0.999023s-9.33398 -0.5 -14.001 -0.5h-3c-4.66699 0 -16 1.33301 -34 4c-9.33301 1.33301 -17.333 2 -24 2
c-36.667 0 -57.334 -12.333 -62.001 -37v-34l-1 -25c0 -2 0.166992 -5.33301 0.5 -10s0.666016 -11.167 0.999023 -19.5s0.5 -16.5 0.5 -24.5v-11c0 -2 -1 -12 -3 -30c1.33301 -16 2 -24.333 2 -25l18 -50c14.667 -16.667 24.667 -27 30 -31c10 -6.66699 15 -12 15 -16
c0 -4.66699 -3.33301 -7 -10 -7h-14h-40h-36c-5.33301 0 -12 0.666992 -20 2c-2 0.666992 -6 1 -12 1c-4 0 -12.833 -0.5 -26.5 -1.5s-22.5 -1.5 -26.5 -1.5c-29.333 0 -44 5.66699 -44 17c0 7.33301 7.66699 13 23 17c22.667 4.66699 37.667 14.334 45 29.001
c3.33301 9.33301 5.66602 22.333 6.99902 39c0.666992 6 1 27.667 1 65c0 1.33301 -0.666992 14.666 -2 39.999c-0.666992 8.66699 -1 16.667 -1 24c0 2.66699 1.66699 26.667 5 72c-1.33301 28 -2 46 -2 54c0 12.667 2 30.334 6 53.001c0.666992 1.33301 1 4.33301 1 9
s-0.333008 9 -1 13c-0.666992 11.333 -1 25.333 -1 42c0 -1.33301 0.166992 -0.166016 0.5 3.50098s0.5 7.16699 0.5 10.5v33l-1 29v15v7c0 34.667 -14.667 56.667 -44 66c-10.667 2.66699 -16 8.66699 -16 18s9 14 27 14z" />
    <glyph glyph-name="I" unicode="I" horiz-adv-x="278" 
d="M74 671l59.9961 -3.00195c23.333 2.66699 39.333 4 48 4c29.333 0 44 -8.33301 44 -25c0 -4.66699 -3.66699 -9.66699 -11 -15c-12 -10 -19.333 -18.667 -22 -26c-6.66699 -20 -10 -67.333 -10 -142c0 1.33301 0.166992 -0.666992 0.5 -6s0.5 -10.666 0.5 -15.999
c1.33301 -24 2 -44.333 2 -61v-27c0 -34.667 -1 -63 -3 -85c-0.666992 -2 -1 -6.33301 -1 -13c0 -6 0.333008 -11.333 1 -16c0.666992 -10 1 -20 1 -30v-4c-0.666992 -2.66699 -1 -5.66699 -1 -9v-10c0 -5.33301 1.33301 -15.666 4 -30.999l1 -52l1 -17
c3.33301 -4.66699 7 -11.667 11 -21c0.666992 -2 2 -5 4 -9s3.33301 -7 4 -9l15 -15c5.33301 -7.33301 8 -13 8 -17c0 -10.667 -3.33301 -16 -10 -16h-27h-4c-13.333 -1.33301 -21.666 -2 -24.999 -2c-0.666992 0 -2 0.166992 -4 0.5s-4.66699 0.666016 -8 0.999023
s-6.66602 0.5 -9.99902 0.5l-44 -1c-10 -0.666992 -21.333 1.33301 -34 6c-6 3.33301 -9 8.33301 -9 15c0 4 1 7 3 9l26 22c6 8 9.33301 18.667 10 32c0 1.33301 0.333008 4 1 8s1.33398 9.16699 2.00098 15.5l2 19.5c0.666992 2 1 4.66699 1 8
c0 2.66699 -0.5 8.66699 -1.5 18s-1.5 15.333 -1.5 18c0 4 0.666992 18.667 2 44c2 20 3 35 3 45c0 2.66699 -1.66699 22.334 -5 59.001l3 32c0 0.666992 -0.166992 1.83398 -0.5 3.50098s-0.666016 4 -0.999023 7s-0.5 6.16699 -0.5 9.5v7v95
c0 4.66699 -0.333008 8.66699 -1 12l-5 51l-1 54c-1.33301 15.333 -9.33301 29.333 -24 42c-11.333 9.33301 -17 16.666 -17 21.999c0 10.667 7.66699 16.667 23 18z" />
    <glyph glyph-name="J" unicode="J" horiz-adv-x="287" 
d="M94 670c19.333 -2.66699 31.334 -3.99609 36.001 -3.99609h7c30 4 46.333 6 49 6c16.667 0 25 -7.33301 25 -22c0 -2.66699 -5 -8.33398 -15 -17.001c-1.33301 -1.33301 -2.66602 -7 -3.99902 -17l-1 -9l-1 -14c-2.66699 -38 -3 -77.333 -1 -118v-3v-4
c-2 -13.333 -3 -29 -3 -47v-8l2 -59l-1 -55l1 -67l-2 -41l2 -69v-23l-1 -15l1 -5c0 -3.33301 0.166992 -8.33301 0.5 -15s0.5 -14 0.5 -22l2 -42v-12c-0.666992 -34 -2.66699 -58.667 -6 -74c-0.666992 -6.66699 -4.33398 -18.334 -11.001 -35.001l-3 -7l-5 -12
c-6 -21.333 -11.333 -35.333 -16 -42c-8.66699 -16.667 -14.334 -25 -17.001 -25l-32 -31l-30 -30c-4 -1.33301 -6.66699 -2 -8 -2c-8.66699 0 -13 4.33301 -13 13c0 4.66699 4 13.667 12 27c2 3.33301 6.33301 14.333 13 33c6.66699 14.667 10.334 23 11.001 25
c0 0.666992 0.666992 7 2 19c2.66699 15.333 4 34.666 4 57.999v31v11l1 25l5 27v6l1 19c0 4.66699 2.33301 33.667 7 87c-4 47.333 -6 74 -6 80c0 3.33301 0.166992 11.333 0.5 24s0.5 21 0.5 25l-1 4v7.5v7.5c-1.33301 20 -2 35.667 -2 47l1 42l-1 19l1 22l2 30
c0 2 -1 7.33301 -3 16c-1.33301 7.33301 -2.33301 26.333 -3 57c-0.666992 7.33301 -1 18.666 -1 33.999v12c0 5.33301 0.333008 9 1 11l-7 33c-2.66699 14.667 -4.66699 23 -6 25c-2.66699 2.66699 -10.334 8.66699 -23.001 18c-11.333 7.33301 -17 15.333 -17 24
c0 6.66699 0.666992 10.667 2 12c2 2 18.667 5 50 9z" />
    <glyph glyph-name="K" unicode="K" horiz-adv-x="604" 
d="M70 667c28 -1.33301 42.334 -2 43.001 -2c3.33301 0 9.33301 0.333008 18 1s13.667 1 15 1h13l9 1h7c0.666992 0 2.5 -0.166992 5.5 -0.5s7.33301 -0.666016 13 -0.999023s11.167 -0.5 16.5 -0.5c12.667 -0.666992 22 -2.33398 28 -5.00098
c8 -3.33301 12 -8.33301 12 -15c0 -4 -1.66699 -8.66699 -5 -14c-2 -2 -14.333 -8 -37 -18c-10 -4.66699 -17.333 -25 -22 -61c0 -3.33301 -0.166992 -6.5 -0.5 -9.5s-0.666016 -5.16699 -0.999023 -6.5s-0.5 -2.33301 -0.5 -3l3 -39c0 -0.666992 -1.66699 -12 -5 -34v-12
c0 -4.66699 2 -13.667 6 -27c1.33301 -10 3.66602 -20 6.99902 -30c2.66699 -2.66699 6.66699 -4 12 -4c8 0 16.667 3.66699 26 11l3 3c2 1.33301 4.83301 3.5 8.5 6.5s7.5 6.5 11.5 10.5c19.333 18 31.333 29.667 36 35c21.333 16 53.666 45 96.999 87
c16 18.667 25.333 30 28 34c7.33301 11.333 11 22 11 32c0 8 -1.33301 13 -4 15l-19 16c-5.33301 5.33301 -8 11 -8 17c0 10 5.66699 15 17 15l80 -8c4 -0.666992 9 -1 15 -1c2.66699 0 8.5 0.333008 17.5 1s14.5 1 16.5 1c25.333 0 38 -5 38 -15c0 -8 -7 -16.667 -21 -26
c-3.33301 -2 -8.5 -5.33301 -15.5 -10s-12.5 -8 -16.5 -10l-33 -31c-36.667 -26 -57 -41 -61 -45l-2 -2c-1.33301 -2 -3.33301 -4.33301 -6 -7l-9 -9c-10 -10 -25.333 -23.667 -46 -41l-22 -18l-13 -11c-20 -17.333 -37.333 -33.333 -52 -48
c-6.66699 -7.33301 -10 -14.666 -10 -21.999c0 -5.33301 2 -11 6 -17c1.33301 -2 7 -8.66699 17 -20c12.667 -12.667 34.667 -38.667 66 -78c9.33301 -11.333 21 -24 35 -38c18 -15.333 44.333 -41 79 -77l43 -45l20 -20.5l28 -28.5c13.333 -11.333 20 -21.333 20 -30
c0 -7.33301 -5.33301 -11 -16 -11c-10 0 -19 0.333008 -27 1c-5.33301 0.666992 -14 1.66699 -26 3h-5c-9.33301 -1.33301 -27 -2.33301 -53 -3c-8 -0.666992 -15.333 -1 -22 -1v0c-17.333 0 -26 5 -26 15c0 4 1.33301 7.33301 4 10l21 19l-6 9l-24 32
c-26.667 25.333 -41.667 41 -45 47c-4.66699 8 -7.33398 12.333 -8.00098 13l-22 16l-64 63c-13.333 14 -22 22.333 -26 25l-13 6c-0.666992 0.666992 -2 1.66699 -4 3c-1.33301 1.33301 -2.66602 2.33301 -3.99902 3c-9.33301 8 -15.666 12 -18.999 12
c-10 0 -14.333 -6.66699 -13 -20l1 -41c0 -2 -1 -9.33301 -3 -22c-1.33301 -20 -2 -30.333 -2 -31c0 -4.66699 1.33301 -13.667 4 -27l3 -35l3 -21c0 -2 0.333008 -4.16699 1 -6.5s1 -4.16602 1 -5.49902s0.166992 -2.83301 0.5 -4.5s0.666016 -3 0.999023 -4
s0.833008 -2.16699 1.5 -3.5s1.33398 -2.5 2.00098 -3.5s1.5 -2 2.5 -3l3.5 -3.5c1.33301 -1.33301 2.83301 -2.66602 4.5 -3.99902s3.83398 -2.66602 6.50098 -3.99902c6 -4.66699 13.667 -10.334 23 -17.001c2.66699 -2 4 -5 4 -9c0 -6.66699 -3.66699 -10 -11 -10
c-4.66699 0 -9.33398 0.333008 -14.001 1h-25c-4.66699 0.666992 -9 1 -13 1l-19 -1h-9c-12.667 0 -35.667 -0.666992 -69 -2c-6.66699 -0.666992 -14.334 -1 -23.001 -1s-13 4 -13 12c0 6.66699 7.66699 13 23 19c18 6.66699 27 30 27 70l-1 6
c0 3.33301 -0.166992 9.16602 -0.5 17.499s-0.5 17.5 -0.5 27.5c0 4 0.5 12 1.5 24s1.5 19.333 1.5 22c0 -0.666992 0 0.333008 0 3v6.5c0 1.66699 -0.166992 4.5 -0.5 8.5s-0.5 8 -0.5 12l-2 73c0 24 -0.333008 47.333 -1 70c-0.666992 8.66699 -1 17.667 -1 27
c0 1.33301 0.666992 22.666 2 63.999v20c0 15.333 -3.33301 47.666 -10 96.999c0 15.333 -0.333008 24.333 -1 27c-1.33301 4 -13.333 14.333 -36 31c-6 5.33301 -9 11.333 -9 18c0 8.66699 6.66699 13 20 13h7z" />
    <glyph glyph-name="L" unicode="L" horiz-adv-x="454" 
d="M75 666l67.999 -2.00293c11.333 1.33301 29.333 2.33301 54 3l28 1c15.333 1.33301 23 -3.66699 23 -15c0 -4.66699 -2 -8 -6 -10l-12 -7l-13 -17c-6.66699 -6.66699 -10.334 -11.667 -11.001 -15c-12.667 -34 -19 -75 -19 -123c0 -30.667 1 -61 3 -91l-1 -44v-30v-41
v-24c0 -2.66699 -1 -11 -3 -25c-0.666992 -3.33301 -1 -9.33301 -1 -18c0 -6.66699 1 -16 3 -28c0.666992 -13.333 1.66699 -22.666 3 -27.999l2 -26c0 -4.66699 -1.33301 -13.667 -4 -27v-8c0 -31.333 15.667 -47 47 -47c6.66699 0 18.334 1.33301 35.001 4
c12.667 0 26.334 0.333008 41.001 1l10 1h26c6 0 16 8 30 24c18 21.333 28.333 35 31 41c14 26.667 23.667 40 29 40c7.33301 0 10.333 -4.66699 9 -14l-3 -43l3 -35v-12l1 -17c0 -16 -5 -26.667 -15 -32c-6.66699 -1.33301 -19.334 -2 -38.001 -2h-25l-67 2
c-0.666992 0 -1.83398 -0.166992 -3.50098 -0.5s-4.5 -0.666016 -8.5 -0.999023s-7.66699 -0.5 -11 -0.5h-9c-10.667 -1.33301 -19 -2 -25 -2c-14.667 0 -33 1.33301 -55 4c-8 1.33301 -15.667 2 -23 2c-10 0 -29 -0.666992 -57 -2c-0.666992 0 -2.66699 -0.333008 -6 -1
l-15.5 -3l-20.5 -4c-2 -0.666992 -4.66699 -1 -8 -1c-16.667 0 -25 4.33301 -25 13c0 6.66699 3 13.667 9 21c6 4 12.333 9.33301 19 16c17.333 15.333 27 36.666 29 63.999c2 12.667 3.66699 41.334 5 86.001v44v13.5v14.5c0 4.66699 -0.166992 9 -0.5 13
s-0.5 7.33301 -0.5 10v4c0 16.667 1.66699 36.667 5 60c0.666992 1.33301 1 5 1 11l-1 3v9c0 4 -0.166992 8.16699 -0.5 12.5s-0.666016 9.33301 -0.999023 15s-0.5 10.834 -0.5 15.501v105l-2 25c-0.666992 4 -1.16699 10.167 -1.5 18.5s-0.5 14.833 -0.5 19.5
c-3.33301 4.66699 -7.66602 12 -12.999 22l-11 17c-2 2 -5.66699 4 -11 6c-5.33301 2.66699 -11 5 -17 7c-4.66699 2.66699 -7 7 -7 13c0 8 5.33301 12.333 16 13c2 0.666992 5.5 1.16699 10.5 1.5s8.83301 0.5 11.5 0.5z" />
    <glyph glyph-name="M" unicode="M" horiz-adv-x="773" 
d="M147 181l0.00195312 -45.9951c0 -13.333 4.33301 -34 13 -62c2.66699 -9.33301 17.334 -24 44.001 -44c13.333 -11.333 20 -19.666 20 -24.999c0 -7.33301 -8.33301 -11 -25 -11c-1.33301 0 -14.666 0.666992 -39.999 2c-14 0 -28.667 0.333008 -44 1
c-43.333 0.666992 -68.333 2 -75 4c-7.33301 3.33301 -11 9 -11 17c0 4 0.666992 6.66699 2 8c2 2.66699 9.66699 7.66699 23 15c26.667 14 42 45.333 46 94c-1.33301 21.333 -0.333008 69.333 3 144l1 18l5 95c0 15.333 -2.66699 38.333 -8 69
c0 1.33301 -0.666992 35.666 -2 102.999c-1.33301 20 -4.33301 33.333 -9 40c-2.66699 4.66699 -16.667 14 -42 28c-11.333 7.33301 -17 15.333 -17 24c0 9.33301 3.66699 14.666 11 15.999c4.66699 0 10.667 0.333008 18 1h25c1.33301 0 3.66602 -0.166992 6.99902 -0.5
s8 -0.666016 14 -0.999023s11.333 -0.5 16 -0.5c4.66699 -0.666992 8.66699 -1 12 -1c12.667 0 30.667 1.33301 54 4c4 0.666992 8.33301 1 13 1c10.667 0 17.667 -4.66699 21 -14c0 -2.66699 1.33301 -12.334 4 -29.001c1.33301 -26 4.66602 -51.333 9.99902 -76
c9.33301 -39.333 31.333 -94.333 66 -165c0 -0.666992 0.333008 -2 1 -4s1.66699 -4.66699 3 -8s2.66602 -7 3.99902 -11c6.66699 -22 11.334 -35.667 14.001 -41c2.66699 -6.66699 6.66699 -18 12 -34c0 -0.666992 9.33301 -16.334 28 -47.001
c8.66699 -14.667 13.334 -24.667 14.001 -30c2.66699 -8.66699 6.33398 -13 11.001 -13c6.66699 0 16 9 28 27c0.666992 0.666992 2.66699 3.66699 6 9c8.66699 12 22 41 40 87l6 14l9 24l18 45l25 72l16 49l15 38l22 61c1.33301 2.66699 2.66602 6.5 3.99902 11.5
s2.66602 8.5 3.99902 10.5c2.66699 8 7 13.333 13 16c11.333 3.33301 30.666 5 57.999 5c8 0 16.667 -0.666992 26 -2h3l31 1c4.66699 0.666992 11 -3.33301 19 -12c3.33301 -4.66699 5 -8.33398 5 -11.001c0 -6 -2 -9.66699 -6 -11l-18 -8c-10.667 -4 -21 -16.333 -31 -37
c-2.66699 -6 -4.66699 -18.667 -6 -38c-2 -20.667 -3.33301 -48 -4 -82c0 -26 0.333008 -46.333 1 -61c0 -6.66699 0.166992 -13.167 0.5 -19.5s0.666016 -11.166 0.999023 -14.499s0.5 -5.33301 0.5 -6c0 -50 -0.333008 -79.333 -1 -88v-20v-25l1 -79
c0 -2.66699 -0.166992 -8.83398 -0.5 -18.501s-0.5 -15.5 -0.5 -17.5c0 -5.33301 2.33301 -17 7 -35c7.33301 -26 13.333 -40.333 18 -43l25 -15c4 -3.33301 6 -8.33301 6 -15c0 -5.33301 -1.16699 -9.5 -3.5 -12.5s-5.83301 -4.16699 -10.5 -3.5l-21 2h-43h-9
c-5.33301 -0.666992 -10 -1 -14 -1l-63 1c-2.66699 0 -9.66699 -0.166992 -21 -0.5s-18.666 -0.5 -21.999 -0.5c-13.333 0 -20 3.33301 -20 10c0 2 0.166992 3.66699 0.5 5s1.16602 2.83301 2.49902 4.5s2.66602 3 3.99902 4l7.5 5.5l10.5 8c24 17.333 38.667 31.333 44 42
c2.66699 6 4.66699 12.667 6 20c-1.33301 10.667 -0.333008 38.667 3 84l1 17l1 15c0.666992 2.66699 1 7 1 13s0.333008 10.667 1 14l2 11c0 2.66699 -1 10.667 -3 24l-1 36c0 14.667 -1 29.334 -3 44.001c0 4 -0.166992 7.66699 -0.5 11s-0.833008 5.66602 -1.5 6.99902v3
c0 5.33301 0.666992 15.333 2 30c2 20.667 3 35.667 3 45c0 8.66699 -2.66699 13 -8 13c-4.66699 0 -8.33398 -4 -11.001 -12l-4 -11c-4 -9.33301 -7 -17 -9 -23c-4.66699 -14 -8.66699 -23 -12 -27l-13 -17c-2.66699 -2 -9 -18.667 -19 -50
c-11.333 -22.667 -19.666 -40.667 -24.999 -54c-1.33301 -6 -9.33301 -33.667 -24 -83l-18 -35c-4.66699 -10 -12 -30.667 -22 -62l-17 -36c-2 -5.33301 -8.33301 -20.333 -19 -45c-2.66699 -4 -5.66699 -6 -9 -6c-4.66699 0 -9.33398 4.33301 -14.001 13
c-2.66699 4.66699 -8 21.334 -16 50.001c-2 6.66699 -12.333 31.667 -31 75c-9.33301 23.333 -19.333 47 -30 71l-30 54c-11.333 19.333 -21.666 46.666 -30.999 81.999c-7.33301 25.333 -21.666 57.333 -42.999 96c-1.33301 1.33301 -2.66602 3 -3.99902 5l-1 3
c-6.66699 14.667 -11.334 22 -14.001 22c-7.33301 0 -10.333 -4 -9 -12l2 -48l-5 -44l-1 -38c0.666992 -10 1 -20 1 -30c0 -1.33301 -0.166992 -4.83301 -0.5 -10.5s-1 -15.334 -2 -29.001s-1.83301 -26.5 -2.5 -38.5c3.33301 -28.667 5 -43.334 5 -44.001z" />
    <glyph glyph-name="N" unicode="N" horiz-adv-x="671" 
d="M103 478l-0.00195312 24.999c0 21.333 -1.33301 37.333 -4 48c-4.66699 23.333 -10 38.666 -16 45.999c-4 4 -18.333 12.667 -43 26c-10.667 4.66699 -16 12 -16 22c0 12 4.66699 18 14 18l26 -1c2.66699 0.666992 11.334 1.66699 26.001 3
c0.666992 0 2.83398 0.166992 6.50098 0.5s9.66699 0.666016 18 0.999023s17.166 0.5 26.499 0.5l64 3c18.667 0 28 -6.66699 28 -20c0 -3.33301 -0.333008 -6 -1 -8c-2 -13.333 -3 -22.333 -3 -27c0 -16.667 20.333 -55.334 61 -116.001l10 -16
c2 -2.66699 7.33301 -11.167 16 -25.5s19 -30.5 31 -48.5s25.667 -36.333 41 -55s34 -39.667 56 -63c1.33301 -2 2.83301 -3.83301 4.5 -5.5s3 -3.16699 4 -4.5s2 -2.5 3 -3.5l2.5 -2.5c7.33301 -12 14.666 -19.667 21.999 -23l26 -13c7.33301 0 13 7 17 21
c2 6 4.66699 26.333 8 61l4 52l-1 53c0 4.66699 0.666992 14.334 2 29.001c0.666992 1.33301 1 3 1 5l-3 27l-1 14c-4 23.333 -7 48 -9 74c-4.66699 19.333 -22.667 38.666 -54 57.999c-7.33301 4 -11 9.33301 -11 16c0 2 1.33301 5.33301 4 10s5 7 7 7l59 -6
c0.666992 0 5.33398 1.33301 14.001 4s14.667 4 18 4h30c18.667 0 30 -0.666992 34 -2c8 -2.66699 12 -7.66699 12 -15c0 -5.33301 -2.33301 -9.33301 -7 -12l-19 -11c-19.333 -10 -29.333 -24.333 -30 -43c-0.666992 -8 -1.66699 -29.667 -3 -65
c0 -4.66699 -0.166992 -9.66699 -0.5 -15s-0.833008 -9.66602 -1.5 -12.999v-5v-3c0.666992 -2.66699 1.16699 -6.5 1.5 -11.5s0.5 -10.167 0.5 -15.5c0 -16 0.333008 -33 1 -51v-24l-1 -4c0 -2 -0.166992 -4.66699 -0.5 -8s-0.666016 -7.16602 -0.999023 -11.499
s-0.666016 -9 -0.999023 -14s-0.5 -9.5 -0.5 -13.5v-75c-2.66699 -20.667 -4 -34 -4 -40s1.33301 -21 4 -45v-35v-21c0.666992 -15.333 1 -29.666 1 -42.999c0 -9.33301 0.333008 -15.333 1 -18c0 -4 0.166992 -8 0.5 -12s0.666016 -7.16699 0.999023 -9.5
s0.5 -3.83301 0.5 -4.5c0 -21.333 -7.66699 -32 -23 -32c-6.66699 0 -10.334 1.33301 -11.001 4l-25 40c0 0.666992 -4.33301 6.33398 -13 17.001c-20.667 20 -32.667 32.667 -36 38c-9.33301 14.667 -17 26.334 -23 35.001c-3.33301 4.66699 -15 18.667 -35 42l-9 9l-17 23
l-20 25l-19 25l-21 26l-14.5 18.5c-7 9 -12.833 16.167 -17.5 21.5c-1.33301 1.33301 -5.83301 7.33301 -13.5 18l-21.5 30c-10 14 -18 26 -24 36c-5.33301 8 -19 26.667 -41 56l-35 50c-7.33301 0 -12 -6 -14 -18v-58l-1 -47c-0.666992 -43.333 -2 -86 -4 -128
c-2 -24.667 -3 -40.334 -3 -47.001c0 -8 1 -18.333 3 -31c0 -1.33301 0.666992 -13.333 2 -36l1 -13c1.33301 -20 2.33301 -34 3 -42c4.66699 -32 25 -51.333 61 -58c10.667 -2 16 -9 16 -21c0 -8 -14.667 -12 -44 -12c-6.66699 0 -13.667 0.333008 -21 1
c-13.333 0.666992 -32.666 1 -57.999 1c-10.667 0 -19 -0.333008 -25 -1h-7c-6.66699 0 -17.334 1.66699 -32.001 5c-10 3.33301 -15 8.33301 -15 15c0 4 2.66699 8 8 12l21 11c16 8 27 21.333 33 40c5.33301 15.333 8.33301 46.333 9 93c0 14 0.333008 24.667 1 32l1 15
c0 6.66699 -0.333008 17 -1 31v10c0 9.33301 1.33301 24.333 4 45c0.666992 4.66699 1 8.33398 1 11.001l-1 18v20c0 2.66699 -0.166992 5.66699 -0.5 9s-0.666016 6 -0.999023 8s-0.5 3.33301 -0.5 4c0 6.66699 1.33301 18 4 34c0.666992 2 1 10.333 1 25
c0 2.66699 0.333008 9.16699 1 19.5s1 17.166 1 20.499z" />
    <glyph glyph-name="O" unicode="O" horiz-adv-x="741" 
d="M401 686c30.667 0 57 -3.99805 79 -11.998c15.333 -6 33.666 -17.333 54.999 -34c1.33301 -1.33301 11 -8.33301 29 -21l3 -3c2 -1.33301 5 -3.83301 9 -7.5l13 -12.5c9.33301 -8 18 -16 26 -24c2.66699 -2.66699 6.66699 -8.33398 12 -17.001l18 -30
c16 -24.667 25.333 -39.334 28 -44.001c0.666992 -0.666992 3 -10 7 -28c4.66699 -11.333 9.33398 -24.333 14.001 -39c0 -10.667 0.333008 -19 1 -25l3 -40c0 -3.33301 -1 -15.333 -3 -36l2 -45c0.666992 -8 -0.666016 -20 -3.99902 -36c-2 -8 -10 -26.667 -24 -56l-16 -32
l-15 -18l-11 -13l-14 -17c-10 -12 -29.333 -30.667 -58 -56c-55.333 -35.333 -118 -53 -188 -53c-42 0 -74 3.33301 -96 10c-74.667 22 -131.334 70.333 -170.001 145c-19.333 37.333 -33 69 -41 95c-6 18.667 -10.333 36.667 -13 54l-1 6c0 4 -0.166992 10.5 -0.5 19.5
s-0.5 18.5 -0.5 28.5c0 2 -0.166992 4.66699 -0.5 8s-0.5 6.33301 -0.5 9l-1 3c0 24.667 5.33301 53 16 85c4.66699 14 17 38 37 72l37 57c29.333 31.333 66 57 110 77c30.667 13.333 51 21 61 23c2 0.666992 16 2 42 4c28.667 2 47 3 55 3zM345 640.002
c-13.333 -1.33301 -26.001 -6.00684 -38.001 -14.0068l-38 -25c-16.667 -16.667 -32.334 -34.667 -47.001 -54c-4.66699 -5.33301 -13 -19.666 -25 -42.999l-14 -25l-8 -21c-0.666992 -2 -5 -12.333 -13 -31c-2 -8 -3 -22.333 -3 -43c0 -10 0.333008 -19 1 -27v-30l-2 -64
c0 -3.33301 5 -25.666 15 -66.999l12 -42c0.666992 -2.66699 10.667 -14.667 30 -36c8 -14 14.333 -23.333 19 -28c8 -5.33301 17 -11.666 27 -18.999c21.333 -16 36.666 -25.667 45.999 -29c6.66699 -2.66699 21.334 -5 44.001 -7c4.66699 0 9.16699 -0.166992 13.5 -0.5
s7.83301 -0.666016 10.5 -0.999023s4.33398 -0.5 5.00098 -0.5c20 0 35 1.66699 45 5c8 3.33301 17 8.66602 27 15.999c6.66699 5.33301 21.667 15.333 45 30c7.33301 5.33301 15.333 15.333 24 30c0 1.33301 2 4.33301 6 9c10.667 14.667 27.334 43 50.001 85
c4 14 6.33301 27.333 7 40c0 3.33301 0.166992 6.33301 0.5 9s0.5 4.33398 0.5 5.00098v1v26v11v13v19v4v6.5c0 2.33301 -0.166992 5.83301 -0.5 10.5s-0.5 9.33398 -0.5 14.001c-0.666992 4.66699 -1.16699 12.334 -1.5 23.001s-0.5 18.667 -0.5 24
c-1.33301 2.66699 -3.33301 9.66699 -6 21c-6 26.667 -17.333 54 -34 82c-7.33301 14 -24.666 36 -51.999 66c-12 14.667 -20.667 24.667 -26 30c-4.66699 4.66699 -16 9 -34 13c-0.666992 0 -2.33398 0.333008 -5.00098 1s-4.33398 1.33398 -5.00098 2.00098
c-9.33301 3.33301 -23.666 5.33301 -42.999 6z" />
    <glyph glyph-name="P" unicode="P" horiz-adv-x="499" 
d="M37 666c1.33301 0 4.50195 -0.5 9.50195 -1.5s8.5 -1.5 10.5 -1.5c0.666992 0 1.83398 0.166992 3.50098 0.5s4 0.666016 7 0.999023s5.5 0.5 7.5 0.5c2.66699 0 5.16699 0.166992 7.5 0.5s4.16602 0.666016 5.49902 0.999023s2.33301 0.5 3 0.5l50 -5
c3.33301 -0.666992 6 -1 8 -1c4 0 11.833 1.5 23.5 4.5s18.834 4.5 21.501 4.5l14 -1l9 1l27 -1c4 0 10.167 -0.166992 18.5 -0.5s14.166 -0.833008 17.499 -1.5c1.33301 -0.666992 9.66602 -2.66699 24.999 -6c51.333 -4 95.333 -43 132 -117
c8 -17.333 13 -30.666 15 -39.999c3.33301 -16 4.33301 -27.667 3 -35v-14c-2 -44.667 -18.667 -79.667 -50 -105c-25.333 -27.333 -46 -43 -62 -47l-20 -5l-19.5 -4c-6.33301 -1.33301 -10.833 -2.33301 -13.5 -3l-4 -1h-21l-33 -3l-25 1
c-8.66699 1.33301 -14.667 -3.66699 -18 -15c-0.666992 -1.33301 -2 -9.66602 -4 -24.999l-2 -29l-2 -30c-0.666992 -4 0 -12 2 -24s3 -20.333 3 -25v-9l-2 -33c0.666992 -32 15.667 -57.667 45 -77c9.33301 -6 14 -11.333 14 -16c0 -5.33301 -5 -8 -15 -8
c-2.66699 0 -11.334 0.666992 -26.001 2c-8.66699 0.666992 -17.334 1 -26.001 1l-35 1l-39 -4l-15 -1l-11 -1c-27.333 -2 -41 3.66699 -41 17c0 4.66699 2.66699 8.66699 8 12l19 13c10.667 6.66699 19.334 25.334 26.001 56.001c4.66699 23.333 7.66699 39 9 47
c2 20 3 47 3 81c0 5.33301 -1 20.666 -3 45.999c0 6 0.333008 11.333 1 16l2 18l-1 37l-1 44l-3 67c0 3.33301 0.166992 11.666 0.5 24.999s0.5 22 0.5 26c0 10.667 -1 26.334 -3 47.001c-3.33301 33.333 -23 59.333 -59 78c-11.333 6 -17 14 -17 24
c0 11.333 6.66699 17 20 17zM271.002 621l-24.001 0.00195312l-18 1c-13.333 1.33301 -25.666 -8.33398 -36.999 -29.001c-6.66699 -10.667 -10 -21.334 -10 -32.001c0 -2 0.666992 -9.66699 2 -23v-9c0 -6.66699 -0.333008 -12.334 -1 -17.001
c-0.666992 -8.66699 -1 -16.667 -1 -24v-28l-2 -24c-2 -10.667 -3 -17.667 -3 -21c0 -0.666992 0.666992 -5.66699 2 -15c2 -8 3 -13.333 3 -16c2 -12 4.5 -22.167 7.5 -30.5s6.16699 -14 9.5 -17s6.83301 -5.16699 10.5 -6.5s6.83398 -1.33301 9.50098 0l33 5
c17.333 0.666992 28.666 1.66699 33.999 3c15.333 6 28.333 16.333 39 31c6.66699 8 11.667 14.333 15 19c4.66699 4.66699 8 12.334 10 23.001l6 32l8 32v-1c0 2 -1.66699 10.333 -5 25c-0.666992 2.66699 -2 16.334 -4 41.001c0 7.33301 -4.66699 16.666 -14 27.999
c-18 18 -35 33.667 -51 47c-6 3.33301 -12.333 5.33301 -19 6z" />
    <glyph glyph-name="Q" unicode="Q" horiz-adv-x="746" 
d="M347 687c4.66699 0 21.002 -1.66602 49.002 -4.99902c18.667 0 35 -0.333008 49 -1l5 -1l19.5 -6.5l27.5 -9.5l30 -9c3.33301 -1.33301 8.33301 -5 15 -11c13.333 -13.333 21.333 -21 24 -23l30 -31l13 -15c8 -7.33301 18.333 -18.666 31 -33.999
c12.667 -16.667 21.334 -30.667 26.001 -42l11 -27c17.333 -42.667 26 -76.667 26 -102c0 -46.667 -2.33301 -82.667 -7 -108l-4 -19c1.33301 -5.33301 -4.33398 -19.666 -17.001 -42.999l-7 -13c-2.66699 -7.33301 -7 -16.333 -13 -27l-6 -12l-12 -18l-6 -10l-7 -7l-8 -9
l-7 -4c-26 -24.667 -39 -38.334 -39 -41.001c0 -6 4.66699 -9 14 -9c8 0 23.667 8.66699 47 26c6.66699 4.66699 14.667 7 24 7h14c8.66699 -0.666992 16.334 -1 23.001 -1h5c3.33301 0.666992 7 1 11 1c14 0 21 -9.33301 21 -28l-2 -20
c-0.666992 -12.667 -2 -21.667 -4 -27c-3.33301 -5.33301 -10.333 -9.33301 -21 -12c-8.66699 -2.66699 -18 -4 -28 -4c-4.66699 -0.666992 -14 -0.333984 -28 0.999023l-4 1c-2.66699 0 -8.33398 -0.5 -17.001 -1.5s-14.334 -1.5 -17.001 -1.5
c-1.33301 0 -5.33301 0.166992 -12 0.5s-11 0.5 -13 0.5c-7.33301 0 -12.666 -0.333008 -15.999 -1c-16.667 -2.66699 -28 -4 -34 -4c-8.66699 0 -21.334 2.33301 -38.001 7c-0.666992 0.666992 -2.33398 1 -5.00098 1c-2 0 -10 -2.33301 -24 -7
c-1.33301 0 -2.66602 -0.166992 -3.99902 -0.5s-2.66602 -0.833008 -3.99902 -1.5h-1l-40 5l-26 -5l-25 -2l-37 -4c-16.667 0 -46.334 11.333 -89.001 34c-4.66699 2 -11 5 -19 9c-19.333 11.333 -35.333 22.333 -48 33c-28 24 -47 44.333 -57 61
c-28 47.333 -45.333 77.666 -52 90.999c-8.66699 16.667 -13.334 32.667 -14.001 48l-4 38c-2 21.333 -3 38 -3 50c0 19.333 1.66699 40 5 62l2.5 14.5c1 5.66699 1.5 9.16699 1.5 10.5c0 2 4.66699 13.333 14 34c8 28.667 13.667 47 17 55c13.333 25.333 36.333 54 69 86
c11.333 10.667 20 17.667 26 21l24 13c11.333 9.33301 30 21.333 56 36c28 7.33301 57.667 11 89 11zM388.002 634.001h-29.001c-16.667 0 -27 -0.333008 -31 -1c-9.33301 1.33301 -31 -11.334 -65 -38.001c-1.33301 -0.666992 -12.666 -10.334 -33.999 -29.001
c-3.33301 -3.33301 -12 -15 -26 -35c-7.33301 -10 -13.666 -19.333 -18.999 -28l-13 -36c-9.33301 -26.667 -15 -47.667 -17 -63c-1.33301 -7.33301 -2.66602 -16.333 -3.99902 -27s-2.33301 -17.667 -3 -21l-3 -77c0 -27.333 7 -55 21 -83
c2 -5.33301 5.33301 -11.666 10 -18.999c13.333 -29.333 35.333 -57 66 -83c17.333 -10.667 35.666 -21 54.999 -31c5.33301 -2 13 -5.33301 23 -10c1.33301 0 12 -3.33301 32 -10l23 -7l11 -1h18c2.66699 0 8 1.33301 16 4c3.33301 0 9.33301 1 18 3
c12 2 22.333 5.66699 31 11c48.667 32.667 76 61 82 85c21.333 47.333 33.333 82.666 36 105.999c4 26.667 6 67.334 6 122.001c0 14 -3 34 -9 60c-2 29.333 -16 63.333 -42 102c-8 12.667 -18 26 -30 40c-11.333 12.667 -24 25 -38 37c-6.66699 6 -14.667 10.667 -24 14
l-16 4c-0.666992 0 -1.83398 0.333008 -3.50098 1s-3.5 1.33398 -5.5 2.00098l-6 2c-10 4 -20 6 -30 6z" />
    <glyph glyph-name="R" unicode="R" horiz-adv-x="503" 
d="M72 666l29.0049 -0.00488281l42 2c4 0 12.833 -0.833008 26.5 -2.5s22.5 -2.5 26.5 -2.5c3.33301 0 6 0.333008 8 1c15.333 2 27 3 35 3c12 0 29.667 -1.66699 53 -5c1.33301 -0.666992 3.16602 -1.16699 5.49902 -1.5s4.16602 -0.5 5.49902 -0.5
c28 -4 44.667 -7.66699 50 -11c34 -25.333 56.667 -47 68 -65c6 -10 11.333 -23.333 16 -40l8 -17c5.33301 -12 8 -26.667 8 -44c0 -23.333 -6 -47.666 -18 -72.999c-4 -8.66699 -12.333 -21.667 -25 -39c-2 -2 -14 -9.33301 -36 -22c-14.667 -8.66699 -22 -18 -22 -28
c14.667 -14.667 24 -24.334 28 -29.001c4 -6.66699 8.33301 -21.334 13 -44.001c2.66699 -12.667 7.66699 -26 15 -40c2 -6.66699 4.66699 -17 8 -31l5 -26c2 -24.667 7.33301 -44.667 16 -60c3.33301 -5.33301 8 -9 14 -11c1.33301 -0.666992 9.33301 -2 24 -4
c13.333 -1.33301 20 -8.33301 20 -21c0 -7.33301 -2.66699 -13.666 -8 -18.999c-2 -3.33301 -12.333 -9.33301 -31 -18c-34 -16.667 -56.333 -25 -67 -25c-7.33301 0 -14 4 -20 12c0 2 -3.33301 12 -10 30l-4.5 13.5l-6 18l-5.5 16.5c0 0.666992 -0.333008 2.16699 -1 4.5
s-1.33398 6.33301 -2.00098 12s-1.33398 10.834 -2.00098 15.501l-9 38l-8 50l-6 24c-7.33301 26.667 -13.666 43.667 -18.999 51c-6.66699 9.33301 -18.667 19.333 -36 30c-11.333 6.66699 -25.666 10 -42.999 10c-7.33301 0 -14.5 -3.33301 -21.5 -10
s-10.5 -13.667 -10.5 -21l1 -37c0 -2 -0.333008 -4 -1 -6c0 -1.33301 -0.5 -8.33301 -1.5 -21s-2.16699 -24.667 -3.5 -36l-3 -33c1.33301 -24 5.66602 -54 12.999 -90c4 -8.66699 10.333 -15 19 -19c25.333 -12 38 -22.333 38 -31c0 -8 -4 -12.333 -12 -13
c-0.666992 0 -11.334 -0.666992 -32.001 -2l-32 1h-20c-23.333 3.33301 -35.333 5 -36 5c-2.66699 0 -10.667 -1.66699 -24 -5h-9h-22c-12.667 -0.666992 -19 5.33301 -19 18c0 6 3.66699 12 11 18c12 8.66699 20.333 16.334 25 23.001c10 13.333 16.333 23.666 19 30.999
c2.66699 8 4 17.667 4 29l1 87v16.5c0 5.66699 0.166992 11 0.5 16s0.666016 9.66699 0.999023 14s0.5 7.83301 0.5 10.5v4c0 -0.666992 0 0.5 0 3.5s-0.166992 6.16699 -0.5 9.5s-0.5 7 -0.5 11c-0.666992 11.333 -1 30 -1 56l1 40l-2 53v18v20v10l-1 9
c0 4.66699 -0.166992 10.334 -0.5 17.001s-0.666016 11.834 -0.999023 15.501s-0.5 6.5 -0.5 8.5c0 4.66699 -2.33301 17.667 -7 39c0 2 -2.33301 12.667 -7 32c-2.66699 6.66699 -9.33398 13.334 -20.001 20.001c-10 6 -15 11.667 -15 17
c0 6.66699 1.33301 11.334 4 14.001c4 4 10.667 6 20 6zM226.005 353.995l11 -0.00292969h22c8.66699 0 19.667 4 33 12c22 14 37.333 27 46 39c8 10.667 13.667 24.334 17 41.001c0.666992 3.33301 1.16699 6.5 1.5 9.5s0.833008 5.5 1.5 7.5s1.16699 3.83301 1.5 5.5
s0.5 2.83398 0.5 3.50098v2c0 7.33301 -1.66699 20 -5 38c-1.33301 4.66699 -3 12 -5 22c-2.66699 16 -14 33 -34 51c-11.333 15.333 -20 25.333 -26 30c-12 8 -24 12 -36 12l-19 -2c-18.667 -3.33301 -28.667 -5.66602 -30 -6.99902c-6 -5.33301 -12 -18.333 -18 -39
c-5.33301 -18 -8 -28 -8 -30l3 -31l-1 -38l2 -22v-14c0 -17.333 -0.333008 -28.333 -1 -33c-0.666992 -1.33301 -1 -3 -1 -5c1.33301 -10.667 2.33301 -19 3 -25c2 -12.667 4.66699 -20.667 8 -24c2.66699 -2 14 -3 34 -3z" />
    <glyph glyph-name="S" unicode="S" horiz-adv-x="523" 
d="M58 211c5.33301 0 8.99609 -2.33301 10.9961 -7l20 -57l6 -12l16 -31c1.33301 -0.666992 9.66602 -7.66699 24.999 -21l18 -17c10.667 -9.33301 22 -17.333 34 -24c10.667 -8.66699 17.667 -13.334 21 -14.001c12 -4.66699 19 -7 21 -7l30 4
c22.667 0.666992 38.334 2.83398 47.001 6.50098s18.334 11.167 29.001 22.5c12.667 12.667 21 22 25 28l6 10c2 3.33301 3.66699 6 5 8l4 6l3 4.5c0.666992 1 1 1.83301 1 2.5c6.66699 15.333 10 28 10 38c0 61.333 -32.667 103 -98 125l-33 15l-69 19l-18 10
c-8 4 -24 13.333 -48 28c-8.66699 8.66699 -18.334 19 -29.001 31c-18.667 22 -29.667 36.667 -33 44c-3.33301 6.66699 -6.33301 14 -9 22l-1 19c0 6.66699 -0.166992 13.5 -0.5 20.5s-0.666016 12.333 -0.999023 16s-0.5 6.16699 -0.5 7.5c0 15.333 4.33301 32 13 50
c5.33301 11.333 13.666 24.666 24.999 39.999c8 11.333 25.667 27 53 47l20 14l14 7c28 13.333 54.667 20 80 20c36 0 57.667 -0.333008 65 -1c16.667 -0.666992 41.334 -7.33398 74.001 -20.001c6.66699 -0.666992 16 -5.66699 28 -15c8 -10 14.667 -26.333 20 -49
c10 -40.667 14.333 -61.667 13 -63v-9l3 -21c0 -6.66699 -3.33301 -10 -10 -10c-7.33301 0 -13.666 2.66699 -18.999 8c-3.33301 4 -8.66602 15.333 -15.999 34c-3.33301 6.66699 -10.333 15.334 -21 26.001c-0.666992 0.666992 -9 6.33398 -25 17.001l-12 10l-10 8
c-20 20 -31.333 31 -34 33c-8.66699 6 -19 9 -31 9c-4 0 -13.667 -1 -29 -3c-20 -2.66699 -33 -5.33398 -39 -8.00098c-10 -4 -18.667 -10.667 -26 -20c-16.667 -18.667 -26.334 -30 -29.001 -34c-7.33301 -14 -11.666 -24 -12.999 -30c-2 -10 -3 -17.667 -3 -23
c0 -14.667 4.66699 -32.334 14 -53.001c6.66699 -16 24.334 -31.667 53.001 -47c7.33301 -4.66699 20.333 -9 39 -13l11 -2c6 -2 19.667 -5.33301 41 -10c4 -1.33301 15.333 -7.33301 34 -18c11.333 -4.66699 21.666 -9.33398 30.999 -14.001c10 -5.33301 19.333 -12 28 -20
c28 -24 45.333 -42 52 -54l18 -35l13 -26c4 -23.333 6 -44.666 6 -63.999l1 -23c1.33301 -25.333 -10.667 -52.333 -36 -81c-6.66699 -8.66699 -20.667 -22.334 -42 -41.001c-3.33301 -3.33301 -14.666 -10.666 -33.999 -21.999c-19.333 -10 -31.666 -15.667 -36.999 -17
c-16 -4 -29.333 -5.66699 -40 -5l-57 3h-26l-17 1l-33 8l-65 12c-27.333 8 -42 20.667 -44 38l-4 26c-2.66699 14.667 -4.33398 30.334 -5.00098 47.001c0 10 -0.333008 20.333 -1 31c-0.666992 4.66699 -1 9.33398 -1 14.001c0 34 6 51 18 51z" />
    <glyph glyph-name="T" unicode="T" horiz-adv-x="517" 
d="M299 156l0.00585938 -56.999c0 -38 17 -61.667 51 -71c1.33301 -0.666992 3.83301 -3.83398 7.5 -9.50098s5.5 -9.5 5.5 -11.5c0 -8 -7 -12 -21 -12h-10h-6c-28 1.33301 -49 3 -63 5h-2c-4 0 -12.333 -1.33301 -25 -4c-9.33301 -1.33301 -16.333 -2 -21 -2
c-4 0 -16 1 -36 3c-2 0.666992 -4 1 -6 1s-6.33301 -0.666992 -13 -2s-11.334 -2 -14.001 -2c-7.33301 0 -11 3 -11 9c0 6.66699 4 13 12 19l10 5c5.33301 2.66699 9.16602 4.66699 11.499 6l10 6c4.33301 2.66699 7.5 5.16699 9.5 7.5l7 8.5
c2.66699 3.33301 4.66699 7 6 11c5.33301 14 9 38 11 72v10v19v18l-2 70v11l1 49l1 21c0 14.667 0.333008 26.667 1 36c0.666992 10 1 18.333 1 25c0 2.66699 -0.333008 6.33398 -1 11.001c0 1.33301 -0.666992 18.666 -2 51.999v18l1 57c0 5.33301 -1.33301 13 -4 23l-3 12
c-2.66699 12.667 -6.33398 19.334 -11.001 20.001h-17c-6 0 -13.333 1.33301 -22 4c-6 2.66699 -11.333 4 -16 4c-18 0 -33.667 -4.66699 -47 -14c-7.33301 -5.33301 -14 -13 -20 -23c-3.33301 -8.66699 -8 -22 -14 -40c-4 -11.333 -12 -17 -24 -17
c-6.66699 0 -10 4.66699 -10 14l1 82c0 2 -0.333008 3.33301 -1 4l-4 32c-1.33301 10.667 -2.33301 18.167 -3 22.5s-1 6.83301 -1 7.5c1.33301 3.33301 5.66602 5 12.999 5l8 -2c33.333 -8 58.666 -12 75.999 -12c1.33301 0 3.33301 0.333008 6 1
s6.66699 1.33398 12 2.00098l16 2c32 0 57 1.66699 75 5c10.667 1.33301 16.334 2 17.001 2c-3.33301 0 2.66699 -1 18 -3l62 -9c15.333 -2 27 -2.66699 35 -2c2.66699 0 7 0.333008 13 1c7.33301 1.33301 18.333 2.66602 33 3.99902
c21.333 1.33301 36.333 2.66602 45 3.99902c0.666992 0 2.16699 0.333008 4.5 1s5.5 1.5 9.5 2.5s8 2.16699 12 3.5c11.333 3.33301 19.666 5 24.999 5c11.333 0 17 -4.33301 17 -13c0 -2.66699 -2.66699 -10.334 -8 -23.001l-4 -10
c-4.66699 -10.667 -9.66699 -28.667 -15 -54s-10.333 -43.333 -15 -54c-4 -7.33301 -10 -11 -18 -11c-8.66699 0 -13.334 7.33301 -14.001 22c-0.666992 20 -7 35.333 -19 46c-6 4 -18.333 6.66699 -37 8c-0.666992 0 -4.5 0.833008 -11.5 2.5s-13.833 3.16699 -20.5 4.5
c-2 0.666992 -4.66699 1 -8 1c-6 0 -13 -2 -21 -6c-2.66699 -0.666992 -7.66699 -8 -15 -22c-8 -11.333 -11.667 -20 -11 -26l1 -29l3 -24v-12l1 -20c0 -19.333 -0.333008 -33.666 -1 -42.999l-2 -20v-15v-34v-6v-34l1 -33c0 -2 -0.333008 -4.66699 -1 -8
c-2.66699 -20.667 -4 -38.667 -4 -54z" />
    <glyph glyph-name="U" unicode="U" horiz-adv-x="699" 
d="M488 626c-6.66699 6 -13.6631 11.001 -20.9961 15.001c-10.667 6 -16 11.333 -16 16c0 6.66699 8.66699 10 26 10c10 0 24.333 -1.33301 43 -4c9.33301 -1.33301 19 -2 29 -2c0.666992 0 5 0.333008 13 1s13.667 1 17 1h44l27 1c12 1.33301 18 -3 18 -13
c0 -7.33301 -8 -18.666 -24 -33.999l-12 -7c-3.33301 -1.33301 -7 -3 -11 -5c-6 -4.66699 -12.667 -16 -20 -34c-4 -8.66699 -6 -19.334 -6 -32.001c0 -4.66699 0.333008 -10.334 1 -17.001c0.666992 -7.33301 1 -18 1 -32l2 -94l-2 -22v-20l-2 -26l-1 -67
c0 -4.66699 1 -17.667 3 -39c0.666992 -4.66699 1 -9 1 -13c0 -10 -2 -24.667 -6 -44c-2.66699 -10 -4 -17 -4 -21c-2 -10 -3.66699 -17 -5 -21c0 -0.666992 -0.333008 -1.83398 -1 -3.50098s-1.5 -4.16699 -2.5 -7.5s-2.16699 -6.66602 -3.5 -9.99902
c-7.33301 -21.333 -16 -37.333 -26 -48c-32 -36 -60 -56.333 -84 -61c-0.666992 0 -2.5 -0.333008 -5.5 -1s-6.16699 -1.33398 -9.5 -2.00098l-10 -2c-2 -1.33301 -17 -2.33301 -45 -3c-18 -2.66699 -32 -4 -42 -4c-24 0 -46.333 3 -67 9
c-51.333 14.667 -81.666 24.667 -90.999 30c-14.667 6.66699 -29.667 20.334 -45 41.001c-2.66699 2.66699 -6.33398 7 -11.001 13c-12.667 14.667 -21 27.334 -25 38.001c-8 23.333 -12 48.666 -12 75.999v7l1 28l-2 34l-4 22c0 6 -0.333008 18.167 -1 36.5
s-1 30.166 -1 35.499c0 37.333 2.66699 66 8 86l2 6l-8 58c0 0.666992 0.166992 2 0.5 4s0.666016 4.66699 0.999023 8s0.5 6.33301 0.5 9v14c0 50 -12.333 81 -37 93c-11.333 4.66699 -18.333 9 -21 13c-2 1.33301 -3 3.66602 -3 6.99902c0 9.33301 8 14 24 14l24 1h11
c3.33301 -0.666992 6.33301 -1 9 -1c9.33301 0 19 0.333008 29 1h30c14 0 23.667 0.333008 29 1c4 0.666992 14.667 1 32 1l38 1c19.333 0 29 -6.33301 29 -19c0 -5.33301 -2 -10.666 -6 -15.999c-2.66699 -2.66699 -11.334 -6 -26.001 -10
c-25.333 -9.33301 -42.333 -23 -51 -41c-5.33301 -14 -8 -29.333 -8 -46c-1.33301 -17.333 -1.33301 -35.666 0 -54.999l2 -22c0.666992 -3.33301 1 -8.33301 1 -15s0.333008 -11.667 1 -15c0 -1.33301 -0.166992 -3.16602 -0.5 -5.49902s-0.666016 -6 -0.999023 -11
s-0.5 -9.83301 -0.5 -14.5v-12c0 -3.33301 -0.333008 -8.16602 -1 -14.499s-1.33398 -11.666 -2.00098 -15.999s-1 -7.16602 -1 -8.49902s1.66699 -25.333 5 -72v-13v-18l-1 -18c-2.66699 -44.667 0.333008 -75.334 9 -92.001c16.667 -30 26.667 -47.667 30 -53
c4.66699 -5.33301 14.667 -12 30 -20c2.66699 -1.33301 11.667 -7.33301 27 -18c6.66699 -4.66699 12.334 -7 17.001 -7c6.66699 0 20 2 40 6c1.33301 0.666992 3 1 5 1l49 -2c11.333 1.33301 28 6.33301 50 15c22.667 12.667 36.667 22.667 42 30
c1.33301 1.33301 8.66602 13.666 21.999 36.999c12.667 22 19.667 35.667 21 41c0 7.33301 1 22.666 3 45.999l4 55l4 92l-2 25l-1 54v6l1 23c0 0.666992 -0.333008 1.66699 -1 3c-1.33301 8 -2.33301 16.333 -3 25c0 3.33301 -3 12 -9 26c-1.33301 4.66699 -4 21 -8 49
c-0.666992 3.33301 -1.16699 6.16602 -1.5 8.49902s-0.833008 4.33301 -1.5 6s-1.33398 2.66699 -2.00098 3s-1.33398 0.5 -2.00098 0.5l-21 16c-2.66699 2 -9 10.333 -19 25z" />
    <glyph glyph-name="V" unicode="V" horiz-adv-x="594" 
d="M30 673l19.001 -2l10 -1l47 -3c9.33301 -0.666992 17.333 -1 24 -1c7.33301 0 22 1.33301 44 4l18 -2c10.667 2 17.667 3 21 3c23.333 0 35 -5.33301 35 -16c0 -4.66699 -6 -11 -18 -19c-29.333 -21.333 -43.333 -37.333 -42 -48l1 -13c0 -24.667 1 -41.334 3 -50.001
c3.33301 -8 7 -19 11 -33l15 -45l15 -31l8 -27c14 -32 22.333 -52.333 25 -61c1.33301 -3.33301 3.33301 -15.666 6 -36.999c0 -2.66699 3.33301 -12 10 -28l14 -34l11 -25c8 -19.333 13.667 -29 17 -29c4 0 10.333 11 19 33l4 10.5c1.33301 3.66699 2 5.83398 2 6.50098
c2.66699 7.33301 6 15.666 10 24.999c2 6.66699 4.83301 17 8.5 31s6.5 24 8.5 30l15 46c0.666992 2.66699 7.33398 15.667 20.001 39l9 25l16 33l9 29l10 24l4 22l6 22c6 20 9 33.333 9 40c0 7.33301 -9.33301 18.333 -28 33c-16.667 12.667 -25 24.334 -25 35.001
c0 7.33301 5 11 15 11c8 0 13.667 -0.333008 17 -1c30 -4 48 -6 54 -6c3.33301 0 6.33301 0.333008 9 1c26.667 3.33301 44.334 5 53.001 5c12.667 0 19 -6.66699 19 -20c0 -6 -1.66699 -11.667 -5 -17c-1.33301 -1.33301 -7.66602 -4 -18.999 -8
c-8.66699 -2.66699 -17 -11.334 -25 -26.001c-1.33301 -2 -9 -20.667 -23 -56l-24 -50l-18 -53c-8.66699 -18.667 -18.334 -43.334 -29.001 -74.001c-6.66699 -21.333 -14 -41.666 -22 -60.999l-11 -27c-0.666992 -2 -14 -35.667 -40 -101l-18 -46l-16 -46
c-12 -36.667 -22.667 -64.667 -32 -84c-6 -10 -12.333 -15 -19 -15c-4.66699 0 -8.33398 2 -11.001 6c-0.666992 0.666992 -4 13.667 -10 39c-4.66699 18.667 -13.334 41 -26.001 67l-6 22l-8 26l-7 24l-18 61c-5.33301 24.667 -9 39.334 -11 44.001
c-0.666992 2 -15.334 36.667 -44.001 104c-0.666992 2.66699 -3.33398 12 -8.00098 28c-9.33301 34.667 -23.666 73.667 -42.999 117c-2 4 -11 20.667 -27 50c-6.66699 12 -14 24.333 -22 37c-1.33301 1.33301 -11 9.66602 -29 24.999c-7.33301 6 -11 12.333 -11 19
c0 12 8 18.333 24 19z" />
    <glyph glyph-name="W" unicode="W" horiz-adv-x="819" 
d="M354 668l41.9961 0.00292969h15c6.66699 0.666992 11.5 -1 14.5 -5s4.5 -10 4.5 -18c0 -11.333 -1 -17.333 -3 -18l-21 -14c-3.33301 -2 -5 -6 -5 -12c0 -8.66699 6.66699 -30 20 -64c6 -13.333 14.667 -20 26 -20c4.66699 0 9.33398 2 14.001 6
c1.33301 1.33301 3 6.33301 5 15c6 16.667 9.33301 28 10 34c1.33301 13.333 2 21.333 2 24c0 7.33301 -2.66699 14.666 -8 21.999c-2 2.66699 -8.66699 5.66699 -20 9c-4.66699 0.666992 -7 4.33398 -7 11.001c0 5.33301 2.33301 12.666 7 21.999
c2.66699 6.66699 7.66699 10 15 10c1.33301 0 5.33301 -0.166992 12 -0.5s11.334 -0.5 14.001 -0.5h25c13.333 0.666992 30.666 1 51.999 1c18 0 27 -7 27 -21c0 -6.66699 -2.33301 -12.334 -7 -17.001c-3.33301 -3.33301 -11.666 -10 -24.999 -20
c-11.333 -7.33301 -25.666 -26.333 -42.999 -57c0 -0.666992 -4.66699 -9 -14 -25c-2.66699 -7.33301 -7.33398 -24.333 -14.001 -51c0 -0.666992 -4.33301 -10.667 -13 -30c-2 -4 -3 -8 -3 -12c0 -3.33301 1 -9.33301 3 -18l3.5 -11l7 -23c3 -10 6.16699 -19.667 9.5 -29
c2 -8 8 -29.667 18 -65c5.33301 -12 13.333 -32.667 24 -62l3 -16c6 -30.667 12.333 -46 19 -46c4.66699 0 10.334 10 17.001 30c9.33301 24.667 17.333 49 24 73l11 40l16 57c6 13.333 11.667 25.333 17 36c1.33301 2 7 19.333 17 52l8 27l6 26c6 26 9 41 9 45v4.5
c0 1 -0.166992 2 -0.5 3s-0.666016 2.16699 -0.999023 3.5s-0.833008 2.5 -1.5 3.5s-1.66699 2.66699 -3 5l-3.5 6l-5 8.5l-6.5 11c-1.33301 3.33301 -3.5 8.16602 -6.5 14.499s-5.5 11.166 -7.5 14.499l-15 10c-2.66699 2.66699 -4 7.33398 -4 14.001c0 4 2 8.5 6 13.5
s8 7.16699 12 6.5c37.333 -4 59.333 -6 66 -6c26.667 0 41 0.333008 43 1h24c19.333 0 29 -7 29 -21c0 -4.66699 -2 -8.66699 -6 -12l-25 -16c-12 -9.33301 -22.667 -25 -32 -47l-29 -67l-44 -143l-48 -144l-40 -135c-4 -14 -8 -32.667 -12 -56
c-3.33301 -27.333 -11.666 -41 -24.999 -41c-6 0 -11 2.33301 -15 7c-3.33301 8 -8 20 -14 36l-12 34l-12 36l-15 29l-6 19l-12 21l-9 33c-10.667 27.333 -18.667 50 -24 68c-4 13.333 -7.66699 20 -11 20c-4.66699 0 -10.334 -7.33301 -17.001 -22
c-4 -9.33301 -8.66699 -22 -14 -38l-13 -33l-22 -81c-23.333 -58 -35.333 -90.333 -36 -97c-4 -18.667 -9.66699 -28 -17 -28c-3.33301 0 -8.33301 3.83301 -15 11.5s-10.334 13.5 -11.001 17.5l-8 26l-10 25l-20 60l-25 62l-11 34l-8 18l-16 50l-17 42l-21 61l-17 45l-9 32
c-5.33301 21.333 -11.333 39.333 -18 54l-6 12c-16.667 36.667 -29 59.334 -37 68.001c-6.66699 6.66699 -16 13 -28 19c-14 7.33301 -21 17.333 -21 30c0 12 7 18 21 18c18 0 41 -1 69 -3c6 -0.666992 12.333 -1 19 -1s12.334 0.333008 17.001 1l14 2
c40.667 0 63.334 -1.33301 68.001 -4c9.33301 -4 14 -13.667 14 -29c0 -7.33301 -1 -12 -3 -14l-17 -19c-9.33301 -11.333 -14 -30.333 -14 -57c0 -27.333 4.33301 -54 13 -80c6 -21.333 20.333 -56 43 -104l15 -51l20 -57l10 -39c8.66699 -25.333 13.667 -39.333 15 -42
c2.66699 -6 6.66699 -9 12 -9c8 0 16.333 15 25 45c2.66699 8 6 15.667 10 23c4.66699 8 10.667 24 18 48c14 36.667 21 59 21 67c0 19.333 -12.667 53.666 -38 102.999c-6.66699 12 -14 32.333 -22 61c-2 6 -7.66699 21.333 -17 46c-6.66699 18 -15.334 36.667 -26.001 56
c-2 2.66699 -10.333 8 -25 16c-4.66699 2 -7 8.33301 -7 19c0 14.667 8.33301 21.667 25 21z" />
    <glyph glyph-name="X" unicode="X" horiz-adv-x="569" 
d="M160 -1l-14.998 -0.000976562c-8.66699 0 -21.667 2 -39 6c-4 1.33301 -7.33301 2 -10 2c-4 0 -12 -0.666992 -24 -2s-19.333 -2 -22 -2l-12 -1h-10l-6 -1c-12.667 0 -19 6 -19 18c0 5.33301 2.33301 10.333 7 15c1.33301 2 11.333 6.66699 30 14
c5.33301 2 10.666 5.66699 15.999 11l28 37l21 26c3.33301 3.33301 11 13.333 23 30c0 0.666992 6.33301 12.334 19 35.001c0 0.666992 1 2.33398 3 5.00098l9.5 13c4.33301 6 8.5 12.333 12.5 19c2.66699 4.66699 5.16699 9.5 7.5 14.5l5.5 11.5
c1.33301 2.66699 2.33301 4.33398 3 5.00098c0.666992 1.33301 2.16699 3.66602 4.5 6.99902l9 13l11.5 17c6.66699 10.667 10 23.334 10 38.001c0 6.66699 -2 13.667 -6 21c-3.33301 5.33301 -8.66602 12.333 -15.999 21c-3.33301 4 -5.66602 8.33301 -6.99902 13l-14 39
c-4 10 -10.667 21 -20 33l-22 42c-2 4 -7.16699 13.667 -15.5 29s-14.833 27.666 -19.5 36.999c-7.33301 15.333 -12 23.333 -14 24c-0.666992 0 -1.83398 0.666992 -3.50098 2s-4.16699 3 -7.5 5l-10 6c-2.66699 0.666992 -9 6.66699 -19 18c-2 2 -5 5.16699 -9 9.5
l-10 10.5c-2 4 -3 7.66699 -3 11c0 10 9.33301 14.667 28 14c5.33301 0 10.333 0.333008 15 1c13.333 0.666992 28.666 1 45.999 1h2c0.666992 0 2.83398 -0.166992 6.50098 -0.5s7.83398 -0.5 12.501 -0.5l24 -2l16 -2c14 -2 35.333 -3.66699 64 -5c6 0 9 -8.66699 9 -26
c0 -5.33301 -1.66699 -10.666 -5 -15.999c-0.666992 -0.666992 -2.33398 -2.5 -5.00098 -5.5s-5.5 -5.83301 -8.5 -8.5s-5.83301 -5.33398 -8.5 -8.00098c-6.66699 -6 -10 -16.333 -10 -31c0 -8 1.66699 -16.333 5 -25c1.33301 -3.33301 11 -22.666 29 -57.999l6 -17
c10.667 -19.333 18 -31 22 -35c6.66699 -5.33301 14 -8 22 -8c6 0 13.667 5 23 15l2 2c1.33301 2 2.66602 3.66699 3.99902 5c3.33301 3.33301 16.333 20.666 39 51.999l10 13c3.33301 6.66699 9.33301 15.334 18 26.001c12.667 15.333 20.334 26 23.001 32
c4 9.33301 6 18.666 6 27.999c0 12 -4 21.333 -12 28c-3.33301 2 -12 4 -26 6c-7.33301 1.33301 -11 6.66602 -11 15.999c0 6 1.5 10.5 4.5 13.5s7.16699 4.16699 12.5 3.5l41 -1l8 2c15.333 2.66699 28.666 4 39.999 4c0.666992 0 1.66699 -0.166992 3 -0.5
s3.16602 -0.666016 5.49902 -0.999023s4.83301 -0.5 7.5 -0.5c18.667 0 32.667 -0.333008 42 -1c18.667 -0.666992 28 -7.33398 28 -20.001c0 -6 -3.66699 -11 -11 -15c-2 -1.33301 -9 -4.33301 -21 -9c-28.667 -7.33301 -64.667 -45 -108 -113
c-6.66699 -11.333 -15.667 -24.666 -27 -39.999l-19 -28c-3.33301 -3.33301 -8.33301 -8.83301 -15 -16.5l-15 -17.5c-14 -17.333 -21 -29.666 -21 -36.999c0 -6.66699 1.66699 -13.334 5 -20.001l23 -47c4.66699 -7.33301 13.667 -30 27 -68c2 -2 8 -11.333 18 -28l26 -41
l11 -19c4 -9.33301 9 -19.333 15 -30c4 -6.66699 13.333 -16.334 28 -29.001c6 -4.66699 18.667 -16.667 38 -36c16.667 -16 25 -26.333 25 -31c0 -10 -4.66699 -15 -14 -15l-21 1l-14 -1h-51l-30 2c-2 0 -4 -0.333008 -6 -1h-9c-7.33301 0 -21.666 2 -42.999 6
c-2 0 -5 0.166992 -9 0.5s-7 0.833008 -9 1.5c-16.667 0.666992 -25 6 -25 16c0 4 2 8.66699 6 14c2 2 10.333 8 25 18c6.66699 4.66699 10 12 10 22c0 7.33301 -0.333008 13.666 -1 18.999c-3.33301 15.333 -8 27.333 -14 36l-19 30
c-1.33301 2 -3.66602 7.33301 -6.99902 16c-4.66699 15.333 -11.334 29 -20.001 41l-25 37c-2.66699 4 -5 6 -7 6c-7.33301 0 -17.333 -9 -30 -27l-9 -11l-12 -18l-6 -8c-14.667 -26 -29 -48.667 -43 -68c-10 -12 -15 -24.667 -15 -38c0 -18 8.33301 -36.333 25 -55
c13.333 -15.333 20 -25.666 20 -30.999c0 -4.66699 -2.66699 -7.66699 -8 -9c-0.666992 -0.666992 -8.33398 -1 -23.001 -1z" />
    <glyph glyph-name="Y" unicode="Y" horiz-adv-x="567" 
d="M298 0c-2 0 -4.00098 -0.334961 -6.00098 -1.00195c-18.667 -1.33301 -28.667 -2 -30 -2c-4 0 -7.66699 0.333008 -11 1c-7.33301 0.666992 -13.666 1 -18.999 1l-13 -1h-23c-15.333 -1.33301 -23 2 -23 10c0 6 2.33301 10 7 12l22 10
c5.33301 3.33301 14.333 14.666 27 33.999c13.333 16.667 20 28.667 20 36v5c0 2.66699 -0.166992 5 -0.5 7s-0.5 3.66699 -0.5 5v3.5v1.5l3 59c0 10 1 25 3 45c0 3.33301 0.333008 6 1 8l-4 54c-1.33301 12.667 -2.33301 25.334 -3 38.001c0 1.33301 -8 15.333 -24 42
l-34 59l-21 27c-12.667 16 -22 29.667 -28 41c-0.666992 2 -7.33398 13 -20.001 33c-15.333 25.333 -25.333 40.333 -30 45l-20 19l-18 20l-15 13c-17.333 11.333 -26.666 17.666 -27.999 18.999c-2.66699 2.66699 -4 6 -4 10c0 2.66699 1.33301 5.33398 4 8.00098
c0.666992 0.666992 14 1.66699 40 3c20 2 31 3 33 3c4 0 13.667 -1.33301 29 -4c2.66699 0 8.83398 0.5 18.501 1.5s15.834 1.5 18.501 1.5c0.666992 0 2 -0.166992 4 -0.5s4.83301 -0.666016 8.5 -0.999023s7.16699 -0.5 10.5 -0.5c1.33301 -0.666992 9 -1 23 -1
c19.333 0 29 -5.33301 29 -16c0 -4 -2.33301 -8.33301 -7 -13l-15 -17c-6 -6 -9 -13 -9 -21c0 -9.33301 10.667 -30.333 32 -63c12.667 -21.333 20.667 -33.333 24 -36l4 -4l7 -7l8 -8c3.33301 -3.33301 8.66602 -11.666 15.999 -24.999l14 -22
c8.66699 -18.667 15 -28 19 -28c19.333 0 43.666 30.667 72.999 92l12 24l25 32c8 10 12 19.333 12 28c0 9.33301 -3.66699 19.666 -11 30.999l-2 2c-0.666992 1.33301 -2 3 -4 5s-3.66699 4 -5 6l-3 2c-1.33301 0.666992 -3.33301 2.16699 -6 4.5l-9 7.5
c-2.66699 2 -4 5.33301 -4 10c0 10.667 9.66699 16 29 16h10c4 0 8.33301 -0.166992 13 -0.5s8.33398 -0.666016 11.001 -0.999023s4.66699 -0.5 6 -0.5c2 0 9 1 21 3c3.33301 0.666992 7.66602 1 12.999 1c6 0 19.333 -1.33301 40 -4c18.667 -2.66699 28 -8.66699 28 -18
c0 -6 -1.66699 -10.5 -5 -13.5s-14.333 -9.5 -33 -19.5c-10 -4.66699 -22 -15.667 -36 -33l-2 -3l-8.5 -8.5c-3.66699 -3.66699 -7.5 -7.83398 -11.5 -12.501c-4.66699 -5.33301 -12.667 -19.666 -24 -42.999l-15 -22l-11 -17l-7 -10l-5 -7l-10 -15l-26 -39
c-11.333 -13.333 -19 -25 -23 -35c-4.66699 -14 -6.66699 -32.333 -6 -55v-57v-8c-2 -17.333 -3 -26.666 -3 -27.999c0 -2 0.833008 -7.33301 2.5 -16s2.16699 -14.334 1.5 -17.001l-2 -46l-1 -31c-0.666992 -16 2 -30.667 8 -44c4.66699 -10.667 14.667 -22.667 30 -36
c11.333 -9.33301 17 -17 17 -23s-2.66699 -8.33301 -8 -7l-22 1c-3.33301 -0.666992 -10.333 -1 -21 -1z" />
    <glyph glyph-name="Z" unicode="Z" 
d="M207 622c-32.667 0 -62.668 -7.6709 -90.001 -23.0039c-10 -5.33301 -17.667 -14 -23 -26c-4 -10.667 -7 -19 -9 -25c-4.66699 -10.667 -10.334 -16 -17.001 -16c-3.33301 0 -6.5 1.5 -9.5 4.5s-4.16699 5.83301 -3.5 8.5l3 19l-1 25c0 2.66699 0.833008 9 2.5 19
s2.5 16.333 2.5 19s-0.333008 4.33398 -1 5.00098c0 4 -0.166992 8 -0.5 12s-0.666016 7.16699 -0.999023 9.5s-0.5 3.83301 -0.5 4.5c0 9.33301 4 14 12 14c1.33301 0 11 -2 29 -6c5.33301 -1.33301 9.33301 -2 12 -2h4c3.33301 0.666992 8.16602 1.5 14.499 2.5
s13.166 1.83301 20.499 2.5c1.33301 0.666992 4.33301 1 9 1c1.33301 0 12 -1.66699 32 -5c11.333 -2.66699 23.666 -4 36.999 -4c5.33301 0 18.666 1.33301 39.999 4l64 2c2 0 4.33301 -0.333008 7 -1c22.667 -1.33301 34.334 -2 35.001 -2c1.33301 0 3.5 0.166992 6.5 0.5
s7.33301 0.666016 13 0.999023s11.5 0.5 17.5 0.5h18c21.333 0 32 -7 32 -21c0 -9.33301 -10.667 -31.666 -32 -66.999c-16.667 -28 -27 -46.667 -31 -56c-28 -59.333 -47.333 -101.666 -58 -126.999c-2.66699 -4.66699 -7.33398 -13.667 -14.001 -27s-11.667 -23 -15 -29
l-15 -25l-12 -31c-1.33301 -2.66699 -4.33301 -9 -9 -19s-9 -18.667 -13 -26c-5.33301 -8.66699 -14 -20.667 -26 -36l-8 -15l-6 -13l-26 -62l-6 -9c-4 -9.33301 -6 -17.666 -6 -24.999c0 -12 2.33301 -20.333 7 -25c8.66699 -7.33301 42.334 -11 101.001 -11
c26 0 50.667 4 74 12c9.33301 3.33301 15.666 7 18.999 11c0.666992 0.666992 1.5 1.83398 2.5 3.50098s2.16699 3.5 3.5 5.5l4 6c2.66699 4 7.66699 9.66699 15 17c6 6 9.33301 11 10 15c1.33301 3.33301 2.33301 10 3 20c2 10.667 7.66699 16 17 16
c10.667 0 16 -7.33301 16 -22c0 -0.666992 -0.166992 -3.83398 -0.5 -9.50098s-0.5 -9.83398 -0.5 -12.501v-21l-2 -20c-1.33301 -24.667 -2.66602 -42.334 -3.99902 -53.001c-2 -6.66699 -3.66699 -10 -5 -10l-26 2c-2 0.666992 -7.16699 0.333984 -15.5 -0.999023
s-13.166 -2 -14.499 -2c-10.667 0 -17 -0.333008 -19 -1l-19 -1c-1.33301 0 -3 0.166992 -5 0.5s-5 0.666016 -9 0.999023s-7.66699 0.5 -11 0.5c-6 0.666992 -26.333 1 -61 1c-9.33301 0 -26 -1.33301 -50 -4h-17l-11 -1c-3.33301 0.666992 -10.333 1.66699 -21 3l-19 4
c-8 2.66699 -24.667 4 -50 4c-3.33301 0 -15.666 -1.66699 -36.999 -5c-1.33301 -0.666992 -3.66602 -1 -6.99902 -1c-13.333 0 -20 5.66699 -20 17c0 14 5 28.333 15 43c14.667 24 30.334 52 47.001 84c4 5.33301 13 20 27 44l6 12l11 17l5 10
c0 0.666992 2.83301 5.66699 8.5 15s10.167 17.333 13.5 24c3.33301 8 6 13 8 15c8.66699 12.667 14.667 23.334 18 32.001c6.66699 11.333 20.667 44.333 42 99l18 37c2.66699 3.33301 9 13 19 29l17 26c10 16.667 19 34.334 27 53.001c8 12.667 12 23.667 12 33
c0 14.667 -5 23.334 -15 26.001c-0.666992 0 -9 0.666992 -25 2l-37 2h-24c-3.33301 0 -6.5 0.166992 -9.5 0.5s-5.16699 0.833008 -6.5 1.5h-3z" />
    <glyph glyph-name="bracketleft" unicode="[" horiz-adv-x="296" 
d="M126 688c0.666992 0 2.16797 -0.167969 4.50098 -0.500977s5.66602 -0.666016 9.99902 -0.999023s8.5 -0.5 12.5 -0.5l17 1c10 -2 16 -3 18 -3c3.33301 0 11.333 1.33301 24 4l22 1c12 1.33301 18.667 2 20 2c14.667 0 22.334 -6.33301 23.001 -19
c1.33301 -11.333 -1.66699 -17 -9 -17l-28 1c-1.33301 0 -2.33301 -0.333008 -3 -1c-0.666992 0 -9 -0.666992 -25 -2c-17.333 -0.666992 -30.333 -17.667 -39 -51c-6 -26.667 -9 -48.334 -9 -65.001c0 -4.66699 1 -21 3 -49l-4 -56l1 -52v-35
c-0.666992 -10.667 -1 -20.667 -1 -30c0 -6 0.666992 -17.667 2 -35l-3 -39c-0.666992 -4.66699 0.666016 -20.667 3.99902 -48v-2v-5c-3.33301 -23.333 -5 -38.333 -5 -45c1.33301 -14.667 2.33301 -27.667 3 -39v-27c3.33301 -15.333 5.33301 -29.666 6 -42.999
c3.33301 -32 11 -52.333 23 -61c7.33301 -5.33301 13.333 -8 18 -8h22c22.667 -0.666992 34 -7.66699 34 -21c0 -9.33301 -4.66699 -13.333 -14 -12l-24 2l-22 -4c-1.33301 0 -2.66602 0.333008 -3.99902 1c-8.66699 2.66699 -17.667 4 -27 4
c-0.666992 0 -12.334 -0.666992 -35.001 -2c-6 -0.666992 -15 -1 -27 -1c-16.667 0 -27.667 3.66699 -33 11s-8 19.333 -8 36c0 14 1.33301 30.667 4 50c3.33301 25.333 5 42.666 5 51.999v3c-0.666992 1.33301 -1.16699 3.5 -1.5 6.5s-0.5 6.33301 -0.5 10
s-0.166992 7.66699 -0.5 12s-0.5 8.5 -0.5 12.5v2c2 18 3 29 3 33c0 3.33301 -1 16 -3 38c-0.666992 4.66699 -1 10.334 -1 17.001c0 10 1 24.667 3 44c0.666992 4 1 8 1 12l-2 78c-3.33301 28 -5 42.667 -5 44c0 6 1.33301 19.333 4 40c0.666992 3.33301 1 12 1 26
c0 16.667 -0.333008 31 -1 43l-1 28c-0.666992 2.66699 -1.16699 6.5 -1.5 11.5s-0.5 8.83301 -0.5 11.5v13c0 13.333 3.66699 37.333 11 72c0 0.666992 0.666992 11 2 31c0 14 12.333 21 37 21z" />
    <glyph glyph-name="backslash" unicode="\" horiz-adv-x="428" 
d="M38 698c7.33301 0 14.0039 -1.99902 20.0039 -5.99902c4 -2.66699 9.66699 -12 17 -28c0 -0.666992 1.33301 -3.16699 4 -7.5s5.5 -9.5 8.5 -15.5s5.16699 -11.333 6.5 -16c1.33301 -3.33301 7.66602 -14.333 18.999 -33c2.66699 -4 8.66699 -21.333 18 -52l21 -43l6 -18
c10.667 -16.667 21 -34 31 -52c7.33301 -12.667 18 -34.334 32 -65.001c4.66699 -12 9.66699 -22 15 -30l10 -27c0.666992 -2.66699 6.33398 -12 17.001 -28c8.66699 -13.333 15 -24 19 -32c2.66699 -8 10.667 -26 24 -54l28 -54l11 -29
c7.33301 -14 15.666 -26.667 24.999 -38l9 -24l9 -17c2 -2.66699 4.83301 -7.66699 8.5 -15s6.5 -13.333 8.5 -18c4.66699 -5.33301 7 -10 7 -14c0 -8 -7 -12 -21 -12c-10.667 0 -17.334 1.33301 -20.001 4c-2 2.66699 -8.66699 16.334 -20 41.001
c-1.33301 2.66699 -13 19.667 -35 51l-7 24c-10.667 13.333 -18 24.666 -22 33.999c-6.66699 20.667 -11 33.334 -13 38.001l-13 14l-12 20c-6.66699 12 -10.334 18.667 -11.001 20c-2.66699 8 -5 17.333 -7 28c-6.66699 10 -12.334 19.333 -17.001 28
c-6.66699 14.667 -15.667 35.667 -27 63l-8 14c-10 16 -21 37 -33 63c-8.66699 19.333 -25.667 51 -51 95c-5.33301 8 -11.333 24.333 -18 49c-4 9.33301 -11.333 23.666 -22 42.999l-19 40c-12.667 25.333 -19 40 -19 44c0 10 7 15 21 15z" />
    <glyph glyph-name="bracketright" unicode="]" horiz-adv-x="296" 
d="M39 -35c1.33301 0 3.83496 -0.333984 7.50195 -1.00098s5.83398 -1 6.50098 -1l16 2c13.333 1.33301 21.666 2.66602 24.999 3.99902c11.333 5.33301 19.666 16 24.999 32c8 24.667 12 46.667 12 66c0 2.66699 -0.333008 5 -1 7c-0.666992 8.66699 -1 22 -1 40
c0 12 1.33301 27.333 4 46c1.33301 9.33301 2 14.333 2 15c0 6.66699 -1 18 -3 34c-0.666992 6.66699 -1 15.334 -1 26.001c0 2.66699 0.666992 18 2 46c0.666992 7.33301 1 14 1 20c0 2.66699 -0.666992 14.667 -2 36c-1.33301 22.667 -2 34.667 -2 36l-1 47
c4.66699 27.333 7 45 7 53c-1.33301 14 -2 26.667 -2 38l-1 38l-5 22l1 31c0 4 -3 14.333 -9 31c-3.33301 6 -10.666 12 -21.999 18c-4.66699 2.66699 -9.33398 4 -14.001 4h-16c-25.333 1.33301 -38 8.33301 -38 21c0 5.33301 1 9 3 11s5.33301 2.66699 10 2l23 -2
c10.667 2.66699 17.667 4 21 4c2.66699 0 10.667 -1.33301 24 -4c3.33301 -0.666992 7.66602 -1 12.999 -1h7c16.667 2 26 3 28 3c24.667 0 39.667 -0.666992 45 -2c12.667 -4.66699 19 -19.334 19 -44.001c0 -18 -0.333008 -32.333 -1 -43c-4 -57.333 -6 -96 -6 -116v-25
c0 -4 1.33301 -18 4 -42c0.666992 -2 1 -8.66699 1 -20c0 -12 -0.333008 -19.667 -1 -23l-3 -42c0 -4.66699 0.666992 -17 2 -37l3 -36c-1.33301 -34 -3 -57 -5 -69c0 -8 -0.333008 -18.667 -1 -32l-1 -13l2 -22l-1 -15l2 -35v-18v-35
c0 -1.33301 -0.5 -4.16602 -1.5 -8.49902s-2.33301 -9.83301 -4 -16.5s-3.16699 -13.667 -4.5 -21c0 -17.333 -1 -27.666 -3 -30.999c-3.33301 -5.33301 -11 -9 -23 -11c-1.33301 -0.666992 -3.5 -1.16699 -6.5 -1.5s-5.16699 -0.5 -6.5 -0.5c-4 0 -14 0.833008 -30 2.5
s-26.667 2.5 -32 2.5l-24 -5l-45 -2c-12.667 -0.666992 -19 5 -19 17c0 13.333 6.66699 20 20 20z" />
    <glyph glyph-name="asciicircum" unicode="^" 
d="M524 286h-37l-204 313l-209 -313h-97l275 414h6z" />
    <glyph glyph-name="underscore" unicode="_" 
d="M0 -87h500v-42h-500v42z" />
    <glyph glyph-name="grave" unicode="`" 
d="M182 519c5.33301 0 11.668 -2.33301 19.001 -7c1.33301 -0.666992 14.666 -14.667 39.999 -42c0.666992 -0.666992 2 -1.83398 4 -3.50098l9 -7.5l11 -9c12 -9.33301 18 -18.333 18 -27c0 -6.66699 -3.33301 -10 -10 -10c-3.33301 0 -15 4.33301 -35 13l-41 12l-13 4
c-14.667 4.66699 -24 8 -28 10c-8.66699 4.66699 -13 12.334 -13 23.001s4 20.667 12 30s17 14 27 14z" />
    <glyph glyph-name="a" unicode="a" horiz-adv-x="334" 
d="M163 320h-13.0029c-10 -1.33301 -16 -3 -18 -5l-2 -2c-0.666992 -1.33301 -2 -3 -4 -5s-3.66699 -4 -5 -6c-4 -4 -10.333 -9 -19 -15c-9.33301 -6.66699 -16 -10 -20 -10c-12 0 -18 7.66699 -18 23s6.66699 28.666 20 39.999c4 4 14.667 8.66699 32 14l12 6
c10.667 5.33301 19.667 8 27 8c24.667 0 42.334 -2 53.001 -6c16 -5.33301 32.333 -20.333 49 -45c7.33301 -11.333 11 -25.333 11 -42c0 -0.666992 -0.166992 -3.16699 -0.5 -7.5s-0.5 -7.83301 -0.5 -10.5l-1 -129c0 -11.333 0.333008 -20.666 1 -27.999
c2 -9.33301 8 -20 18 -32c4.66699 -6 9 -9.33301 13 -10l15 -6c1.33301 -1.33301 2 -3 2 -5c0 -4 -5.33301 -12.667 -16 -26c-15.333 -19.333 -30.666 -29 -45.999 -29c-5.33301 0 -12 1.66699 -20 5c-1.33301 0.666992 -6.66602 4.66699 -15.999 12
c-6.66699 5.33301 -11.667 8 -15 8c-0.666992 0 -4.5 -2.16699 -11.5 -6.5s-16.833 -8.5 -29.5 -12.5s-26.667 -6 -42 -6c-29.333 0 -55 11 -77 33c-5.33301 5.33301 -8.66602 13 -9.99902 23c-0.666992 1.33301 -1.16699 3 -1.5 5s-0.5 3.66699 -0.5 5
c-0.666992 8 -1.66699 13.667 -3 17c0 2.66699 0.333008 5 1 7l2 29c1.33301 12 5.33301 23 12 33c13.333 17.333 35.333 34.333 66 51c0.666992 0 2.66699 0.666992 6 2s8.16602 3.5 14.499 6.5s13.166 5.83301 20.499 8.5c16.667 6 29.334 13.333 38.001 22
c10 10.667 15 21 15 31c0 6 -5.33301 17.667 -16 35c-8 12 -15.667 18.667 -23 20zM195.997 204c-6 0 -15.999 -6.00195 -29.999 -18.002c-1.33301 -0.666992 -4 -3 -8 -7c-14 -10.667 -24 -19 -30 -25c-17.333 -21.333 -26 -41.666 -26 -60.999c0 -14 5 -24.333 15 -31
c15.333 -11.333 31 -17 47 -17c21.333 0 33.666 17 36.999 51c0 2 0.5 8 1.5 18s2.16699 19.667 3.5 29c0.666992 4.66699 1 9 1 13l-1 20c-1.33301 12.667 -2 19.334 -2 20.001c-1.33301 5.33301 -4 8 -8 8z" />
    <glyph glyph-name="b" unicode="b" horiz-adv-x="422" 
d="M73 146c0 14 0.999023 42.333 2.99902 85c0.666992 4.66699 1 10.334 1 17.001c0 12 -1 32.333 -3 61c-0.666992 8 -1 16.333 -1 25c0 5.33301 0.5 17.166 1.5 35.499s1.5 29.833 1.5 34.5c0 28 -1.33301 51.667 -4 71c-0.666992 10 -2 20 -4 30
c-1.33301 16 -3 28.333 -5 37c-5.33301 16.667 -9.66602 24.334 -12.999 23.001l-14 7c-10.667 4.66699 -16 12 -16 22c0 6.66699 9 13.667 27 21c27.333 10 50.333 23 69 39c5.33301 4.66699 12.666 7 21.999 7c11.333 0 17 -6.33301 17 -19
c0 -0.666992 -0.666992 -4.33398 -2 -11.001c-8 -30 -11.667 -52 -11 -66l1 -43v-4c-0.666992 -3.33301 -1 -11.666 -1 -24.999c0 -11.333 1 -36.666 3 -75.999c0.666992 -8 1 -16 1 -24c0 -28.667 1 -45 3 -49c0.666992 -2.66699 2.33398 -4 5.00098 -4
c0.666992 0 5.66699 3.66699 15 11c6.66699 5.33301 18.334 9.66602 35.001 12.999l11 1h32c20.667 0 43.667 -10.667 69 -32c46 -37.333 70.667 -76 74 -116l4 -68c0 -43.333 -18 -83 -54 -119c-26.667 -26 -64.667 -39 -114 -39c-19.333 0 -34.666 4.66699 -45.999 14
s-16 14 -14 14c-2.66699 -0.666992 -10 -5.66699 -22 -15c-3.33301 -2.66699 -6.33301 -4 -9 -4l-35 1c-6.66699 0 -12.334 -0.333008 -17.001 -1h-18c-16.667 0 -25 4 -25 12c0 3.33301 2.66699 7.66602 8 12.999c15.333 15.333 23.666 25 24.999 29
c1.33301 12 2 22.333 2 31zM183.999 301c-12 0 -21.334 -5.33203 -28.001 -15.999c-6.66699 -8.66699 -10 -19.334 -10 -32.001v-14v-10c0 -12 -0.333008 -22 -1 -30c-0.666992 -4 -1 -8.66699 -1 -14c0 -3.33301 0.166992 -11.333 0.5 -24s0.5 -21 0.5 -25
c0 -14 1.66699 -26 5 -36c4.66699 -10.667 11.334 -22 20.001 -34c10.667 -14.667 17.667 -23.667 21 -27c7.33301 -5.33301 12 -8 14 -8l15 -1c2 0 6 -0.333008 12 -1s9.66699 -1 11 -1c26.667 0 47 14.667 61 44c10.667 22 16 48.333 16 79
c0 46.667 -9.66699 83.667 -29 111c-8 10.667 -17.333 18 -28 22c-5.33301 2.66699 -17 6.66699 -35 12l-23 2c-15.333 2 -22.333 3 -21 3z" />
    <glyph glyph-name="c" unicode="c" horiz-adv-x="339" 
d="M183 366c19.333 0.666992 41 0.331055 65 -1.00195c23.333 -2 42.666 -13 57.999 -33c7.33301 -11.333 11 -22.333 11 -33c0 -8 -2.83301 -15.167 -8.5 -21.5s-12.167 -9.5 -19.5 -9.5c-18 0 -37.667 13 -59 39c-9.33301 12 -18 18.333 -26 19
c-4.66699 0.666992 -18 1.66699 -40 3c-13.333 -0.666992 -27.333 -11.667 -42 -33c-10.667 -14.667 -16 -42 -16 -82c0 -1.33301 0.166992 -4.16602 0.5 -8.49902s0.5 -7.16602 0.5 -8.49902v-26c0 -1.33301 4 -10 12 -26l7.5 -15.5l5.5 -11.5l1 -3
c7.33301 -16.667 16.333 -32.667 27 -48c4.66699 -6 13 -13 25 -21c12.667 -8 22.334 -11.667 29.001 -11h13c23.333 1.33301 43.333 6 60 14c8.66699 5.33301 14.334 8 17.001 8c3.33301 0 5 -1.66699 5 -5s-4 -8 -12 -14c-37.333 -30 -61 -45 -71 -45
c-40.667 0 -71 4.33301 -91 13c-10 4.66699 -22.333 12.667 -37 24c-10 8 -20.333 19.333 -31 34c-9.33301 12 -16.666 24 -21.999 36c-2.66699 9.33301 -5.33398 22.333 -8.00098 39c-6 28 -9 46 -9 54c0 42.667 14 80 42 112c15.333 18 28.666 30.667 39.999 38
c22 14 46.333 21.667 73 23z" />
    <glyph glyph-name="d" unicode="d" horiz-adv-x="405" 
d="M191 363c18.667 0 33.998 -6.99902 45.998 -20.999c6 -7.33301 10 -11 12 -11c4.66699 0 7 4.33301 7 13c0 1.33301 -0.333008 5.33301 -1 12s-1 11 -1 13l3 28l1 22c0 7.33301 0.666992 18.333 2 33c0.666992 6 1 11.667 1 17c0 2.66699 -0.333008 9.16699 -1 19.5
s-1 17.5 -1 21.5v31c0 8 -3.33301 16.333 -10 25c-0.666992 1.33301 -8.66699 6.33301 -24 15c-3.33301 2 -5 6.33301 -5 13s3.66699 12.667 11 18c2 1.33301 7 4.33301 15 9c10 2.66699 26 10.334 48 23.001c11.333 9.33301 22.333 14 33 14c13.333 0 20 -6 20 -18
c0 -3.33301 -0.666992 -8.33301 -2 -15c-3.33301 -15.333 -5.66602 -31.333 -6.99902 -48c-1.33301 -6 -3.33301 -21.667 -6 -47c-0.666992 -1.33301 -1 -4 -1 -8c0 -5.33301 0.5 -17.5 1.5 -36.5s1.5 -31.167 1.5 -36.5c0 -1.33301 -0.333008 -6.5 -1 -15.5
s-1 -15.5 -1 -19.5l-1 -41l-1 -286c0 -8.66699 1 -15.334 3 -20.001l9 -14l8 -18c6.66699 -10.667 10 -18.334 10 -23.001c0 -10 -8 -15 -24 -15c-2 0 -9.66699 0.666992 -23 2c-1.33301 0.666992 -3.66602 1 -6.99902 1c-1.33301 -0 -4.5 -0.166992 -9.5 -0.5
s-8.16699 -0.5 -9.5 -0.5c-13.333 0 -21.666 1.66699 -24.999 5l-9 17c-0.666992 0.666992 -2 1 -4 1c-3.33301 0 -12.333 -4 -27 -12c-12 -6 -19.333 -9 -22 -9l-18 -1l-22 -4c-6.66699 0 -17.334 2.33301 -32.001 7c-16 4.66699 -27 9.66699 -33 15
c-12 10 -21.333 20.667 -28 32c-11.333 16 -20 31 -26 45c-8.66699 16.667 -13 35.667 -13 57c0 76 16 130.667 48 164c16 17.333 43 30.333 81 39zM204.998 288.001c-19.333 0 -37.332 -3 -53.999 -9c-20 -7.33301 -35.333 -22.333 -46 -45
c-7.33301 -16 -11 -47.333 -11 -94c0 -20 8.33301 -42.333 25 -67c12 -18.667 31 -28 57 -28c29.333 0 50.666 12 63.999 36c11.333 20.667 17 39 17 55l-1 47c0 2.66699 0.333008 4.66699 1 6l2 19l-4 29c-1.33301 18.667 -3 30 -5 34c-10 11.333 -25 17 -45 17z" />
    <glyph glyph-name="e" unicode="e" horiz-adv-x="328" 
d="M178 367c37.333 0 72.665 -18.0029 105.998 -54.0029c14.667 -16.667 22 -32.334 22 -47.001c0 -23.333 -10.333 -35 -31 -35c-2 0 -6.33301 0.333008 -13 1s-11 1 -13 1c-10.667 0 -19.667 -0.333008 -27 -1c-17.333 -1.33301 -26.666 -2 -27.999 -2h-9h-6
c-9.33301 0 -16 0.333008 -20 1c-19.333 2 -31.333 3 -36 3c-13.333 0 -24.666 -4.33301 -33.999 -13c-4.66699 -4 -7 -10.667 -7 -20c0 -5.33301 0.333008 -11 1 -17c3.33301 -26 5.66602 -40.667 6.99902 -44c5.33301 -10.667 18.333 -24.667 39 -42
c15.333 -13.333 27.333 -21.333 36 -24c12.667 -4 24 -6 34 -6c12.667 0 32.334 3 59.001 9c8.66699 2 17.334 5.33301 26.001 10c2.66699 1.33301 4.66699 2 6 2c4.66699 0 7 -2.66699 7 -8c0 -3.33301 -1.33301 -7.66602 -4 -12.999l-1 -1
c0 -0.666992 -0.166992 -1.66699 -0.5 -3s-0.5 -2.66602 -0.5 -3.99902c-4 -13.333 -9.66699 -23.666 -17 -30.999c-1.33301 -1.33301 -6 -5 -14 -11c-10 -7.33301 -20.333 -13.333 -31 -18c-12.667 -5.33301 -32.334 -8 -59.001 -8c-7.33301 0 -20 3 -38 9
c-16.667 6.66699 -25.334 10.334 -26.001 11.001c-7.33301 4.66699 -16.666 14.667 -27.999 30c-6.66699 8.66699 -19 28 -37 58c-9.33301 28 -14 48.333 -14 61c0 0.666992 2 13.667 6 39c7.33301 44 17.333 73.333 30 88c7.33301 10.667 18.333 25.667 33 45
c26.667 22.667 54 34 82 34zM162.999 330.997c-18 0 -33.6689 -7 -47.002 -21c-8.66699 -9.33301 -13 -19 -13 -29c0 -6.66699 3 -11 9 -13c10.667 -4 41.334 -6 92.001 -6c17.333 0 26 5 26 15c0 12.667 -7 25.667 -21 39c-11.333 10 -26.666 15 -45.999 15z" />
    <glyph glyph-name="f" unicode="f" horiz-adv-x="229" 
d="M58 349l-30.9961 -0.99707c-6 1.33301 -9 5 -9 11c0 7.33301 8.33301 13.333 25 18c17.333 6 26 12.667 26 20l-1 50c0 0.666992 4.33301 20.667 13 60l2 10c0.666992 7.33301 7 29 19 65c6 17.333 21.667 36.666 47 57.999c16.667 13.333 33.667 20 51 20
c10 0 22 -4 36 -12c10.667 -6.66699 16 -19.334 16 -38.001c0 -20.667 -8.33301 -31 -25 -31c-8.66699 0 -16 1.33301 -22 4c-3.33301 1.33301 -8.33301 7.66602 -15 18.999c-2.66699 6 -8 9 -16 9c-12.667 0 -20.334 -8.33301 -23.001 -25l-4 -24
c-7.33301 -34.667 -10.333 -53.667 -9 -57l1 -24l1 -28l2 -23l4 -29c2.66699 -6 10 -10.667 22 -14c26.667 -6.66699 40 -15.334 40 -26.001c0 -4 -1.33301 -7.33301 -4 -10c-1.33301 -1.33301 -15 -3 -41 -5c-8 -1.33301 -13 -7 -15 -17c-4 -22 -6 -41 -6 -57l1 -26l-1 -22
l1 -25c0 -2 -0.166992 -5.66699 -0.5 -11s-0.5 -8.66602 -0.5 -9.99902c0 -12 2 -37 6 -75c0.666992 -12.667 2.66699 -26 6 -40c11.333 -21.333 30.666 -35 57.999 -41c5.33301 -1.33301 8 -5.33301 8 -12c0 -5.33301 -3.66699 -8.66602 -11 -9.99902h-24h-21h-13h-4h-22
h-41h-7c-43.333 0 -65 6 -65 18c0 8 6.33301 13.333 19 16c6.66699 1.33301 16.334 6 29.001 14c5.33301 3.33301 8.66602 7.66602 9.99902 12.999l1 24l3 22l1 19c1.33301 26.667 1.66602 42.667 0.999023 48c0 6 -0.333008 14.5 -1 25.5s-1.33398 19.167 -2.00098 24.5
c-0.666992 8.66699 -1 15.667 -1 21c0 9.33301 1.33301 25 4 47c0 28 -1 43.333 -3 46c-3.33301 5.33301 -8.33301 9 -15 11z" />
    <glyph glyph-name="g" unicode="g" horiz-adv-x="387" 
d="M217 366c6.66699 0 14.001 -0.670898 22.001 -2.00391c8.66699 -4 21.667 -10.333 39 -19c1.33301 -0.666992 4.33301 -1 9 -1c1.33301 0 5.66602 3.5 12.999 10.5s14 10.5 20 10.5c9.33301 0 17.333 -3.5 24 -10.5s10 -14.833 10 -23.5
c0 -6.66699 -1.66699 -13.334 -5 -20.001c-0.666992 -0.666992 -1.66699 -1.83398 -3 -3.50098s-3.5 -4 -6.5 -7s-5.83301 -6.16699 -8.5 -9.5c-2 -2 -3 -7 -3 -15c0 -5.33301 0.666992 -12.666 2 -21.999l3 -27v-30c0 -18 -1 -31.333 -3 -40
c-2.66699 -12.667 -10.334 -26.667 -23.001 -42c-4.66699 -6 -13 -13 -25 -21c-14.667 -11.333 -26 -18.666 -34 -21.999c-2.66699 0 -11 -1.33301 -25 -4c-6.66699 -0.666992 -13.167 -1.5 -19.5 -2.5s-10.833 -1.5 -13.5 -1.5l-5 -1h-9c-30 2 -47.333 3 -52 3
c-13.333 0 -20 -5 -20 -15c0 -13.333 13 -22 39 -26l54 -7l52 1c1.33301 0 9.33301 -4.33301 24 -13c16.667 -6 30.667 -13 42 -21c15.333 -10 29 -27.333 41 -52c2.66699 -8 3.66699 -25.333 3 -52l-1 -16v-12l-1 -17c-0.666992 -21.333 -4 -39.333 -10 -54
c-10 -21.333 -26.667 -38.666 -50 -51.999c-1.33301 -0.666992 -5.66602 -3.33398 -12.999 -8.00098c-33.333 -22.667 -65.333 -34 -96 -34c-37.333 0 -66.333 6.33301 -87 19c-20 12 -34.667 23.667 -44 35c-19.333 24.667 -29 48.334 -29 71.001c0 19.333 1.33301 40 4 62
s13.667 40 33 54c14.667 10.667 22 18.334 22 23.001c0 0.666992 -1.33301 2.83398 -4 6.50098s-5 7.83398 -7 12.501s-4.33301 10.5 -7 17.5s-4.66699 15.667 -6 26s-2 21.5 -2 33.5c0 6.66699 0.666992 12 2 16l18 28c-10.667 11.333 -18 22.333 -22 33
c-10.667 20.667 -16 51 -16 91c0 36 8.66699 65.667 26 89c12.667 17.333 26.334 30 41.001 38c7.33301 4 18.666 7.66699 33.999 11c4 1.33301 11 4.33301 21 9c4 2 21.333 3 52 3zM221.001 -75.0039c-1.33301 0 -5.16699 -0.500977 -11.5 -1.50098
s-10.833 -1.5 -13.5 -1.5h-4c-2 0.666992 -5.83301 1.5 -11.5 2.5s-11.5 1.83301 -17.5 2.5c-10.667 -3.33301 -21.334 -11 -32.001 -23c-3.33301 -3.33301 -6.33301 -6 -9 -8c-20 -16.667 -30 -40 -30 -70c0 -22.667 5.33301 -41.667 16 -57c14 -22.667 41 -34 81 -34
c52.667 0 93.334 17 122.001 51c8 9.33301 12 23.333 12 42c0 16.667 -5.33301 31.667 -16 45c-10.667 12.667 -27 25.334 -49 38.001l-10 6c-10.667 5.33301 -19.667 8 -27 8zM180 310.995c-16 0 -31.335 -6 -46.002 -18c-0.666992 -0.666992 -5 -6.66699 -13 -18
c-14.667 -20.667 -22 -36.334 -22 -47.001c0 -24.667 2 -41 6 -49c0 -2 3.66699 -9.66699 11 -23c18.667 -34.667 36.334 -52 53.001 -52c41.333 0 68.333 9.33301 81 28c0.666992 2.66699 4.33398 9.33398 11.001 20.001c8 16 12 28.333 12 37c0 26 -4.66699 52 -14 78
c-3.33301 10 -10 18.667 -20 26c-12 4 -20.333 6.66699 -25 8c-18 6.66699 -29.333 10 -34 10z" />
    <glyph glyph-name="h" unicode="h" horiz-adv-x="408" 
d="M138 663c6 0 12 -2.99902 18 -8.99902c4 -4 6 -6.66699 6 -8c-6.66699 -46.667 -10 -73.667 -10 -81v-32v-13c0.666992 -12.667 1 -27 1 -43v-17l1 -28c-1.33301 -3.33301 -2.33301 -9.66602 -3 -18.999c-3.33301 -30 -5 -45.667 -5 -47c0 -8.66699 3 -13 9 -13
c2 0 8.66699 4 20 12c6.66699 4 18 6 34 6c24 0 47.333 -6.33301 70 -19c17.333 -10.667 29.666 -20.667 36.999 -30c4.66699 -6.66699 9.33398 -20.334 14.001 -41.001c4.66699 -22 7.66699 -43.667 9 -65c1.33301 -8.66699 2.33301 -20 3 -34c0.666992 -2 1 -4 1 -6
c0 -2.66699 -0.333008 -5 -1 -7c-0.666992 -5.33301 -1 -11.333 -1 -18l1 -32v-32c0 -15.333 0.666992 -29 2 -41c0.666992 -6.66699 5 -13.334 13 -20.001c12 -10 18 -17.333 18 -22c0 -5.33301 -6.33301 -8 -19 -8c-4 0 -21 2.66699 -51 8c-2 0.666992 -6.33301 1 -13 1
c-3.33301 0 -6 -0.333008 -8 -1l-29 -5c-6.66699 0 -10 3.33301 -10 10c0 6 2.33301 12.333 7 19c7.33301 10.667 13 23 17 37c1.33301 9.33301 2 23.333 2 42c0 0.666992 0.5 4.16699 1.5 10.5s1.83301 14.166 2.5 23.499s1 18 1 26c0 7.33301 -2.33301 18.333 -7 33
c-3.33301 12 -5 28 -5 48c0 1.33301 0.166992 4.83301 0.5 10.5s0.5 9.5 0.5 11.5c0 13.333 -5 26.666 -15 39.999c-10 14.667 -21.333 22 -34 22c-16 0 -29.333 -3.33301 -40 -10c-18.667 -9.33301 -27.334 -26.666 -26.001 -51.999l3 -49l1 -41
c-2.66699 -16 -4 -26.667 -4 -32c0 -8 1.66699 -22 5 -42c0.666992 -0.666992 1 -2.33398 1 -5.00098c-2 -19.333 -3 -30 -3 -32c0 -7.33301 1.66699 -16 5 -26c0.666992 -4 6.33398 -10.667 17.001 -20c8.66699 -6.66699 13 -13 13 -19c0 -4.66699 -5 -7 -15 -7
c-8 0 -21.667 1.33301 -41 4c-8.66699 0 -20.334 0.333008 -35.001 1l-14 1c-16 -2.66699 -27.333 -4 -34 -4c-13.333 0 -20 3 -20 9c0 4 2.33301 7.66699 7 11c2 1.33301 8 5 18 11c6 4 10 9 12 15l2 14c4.66699 14 7 26.333 7 37c0 7.33301 -0.333008 12.666 -1 15.999
c0 8.66699 -0.333008 19.667 -1 33v18v17v11l2 10l1 40l3 31v10c0 16 -2 40 -6 72l1 11c0 -0.666992 0.166992 4.5 0.5 15.5s0.5 22.5 0.5 34.5l1 31v11l-1 25c0 0.666992 0.166992 2.16699 0.5 4.5s0.666016 5.83301 0.999023 10.5s0.5 9.33398 0.5 14.001
c-3.33301 14 -6.66602 25.333 -9.99902 34c-2.66699 6 -5 9.33301 -7 10l-22 8c-6.66699 0.666992 -10 5 -10 13c0 6.66699 10 15.334 30 26.001c6.66699 3.33301 18.334 12 35.001 26c1.33301 1.33301 4 3.83301 8 7.5s7.33301 6.83398 10 9.50098c12 12 21 18 27 18z" />
    <glyph glyph-name="i" unicode="i" horiz-adv-x="212" 
d="M132 364c9.33301 0 14.002 -7 14.002 -21c0 -4.66699 -1 -16 -3 -34l1 -9v-12c0 -3.33301 -0.666992 -17.666 -2 -42.999c-1.33301 -24 -2 -37.667 -2 -41l3 -26v-76l2 -15c0.666992 -20 5.33398 -35.667 14.001 -47c9.33301 -14.667 14 -24.334 14 -29.001
c0 -9.33301 -10 -14 -30 -14c-2 0 -11 0.666992 -27 2c-4.66699 0.666992 -11.334 1 -20.001 1h-7l-33 -3c-8 0.666992 -12 6 -12 16c0 4 0.333008 6.33301 1 7c3.33301 2.66699 9.33301 9.66699 18 21c6 7.33301 8.33301 11.666 7 12.999v30l4 29l1 70c0 2 -1 13.333 -3 34
v2c0 3.33301 0.666992 9 2 17l1 11c0.666992 2 1.16699 5.33301 1.5 10s0.5 8 0.5 10c0 4.66699 -2 9.33398 -6 14.001c-2.66699 2.66699 -10.334 8.66699 -23.001 18c-1.33301 2.66699 -2 6 -2 10c0 8 5.66699 14.667 17 20c12 5.33301 20.667 10 26 14
c23.333 14 37.666 21 42.999 21zM100.002 492c13.333 0 25.332 -3.99902 35.999 -11.999c11.333 -8 17 -18.667 17 -32c0 -9.33301 -5 -20 -15 -32c-9.33301 -12 -18.666 -18 -27.999 -18c-8 0 -19.667 4.66699 -35 14c-7.33301 2.66699 -11.333 8.66699 -12 18
c-2 13.333 -3 20.333 -3 21c0 7.33301 3.66699 16.666 11 27.999c6 8.66699 15.667 13 29 13z" />
    <glyph glyph-name="j" unicode="j" horiz-adv-x="220" 
d="M75 76l0.00195312 62.999c0 2 -0.666992 11.667 -2 29c0 8 -0.333008 19.333 -1 34c0 5.33301 -2.33301 17.666 -7 36.999c-0.666992 4.66699 -2.33398 13 -5.00098 25c-1.33301 2.66699 -7.33301 9.66699 -18 21c-2 2 -3 6.66699 -3 14c0 10 3.33301 16.333 10 19l3 1
c1.33301 0.666992 4 1.66699 8 3s7.66699 2.66602 11 3.99902l24 15c12.667 6 22 11.333 28 16c13.333 11.333 21.666 17 24.999 17c9.33301 0 14 -6 14 -18c0 -17.333 -5.33301 -34.666 -16 -51.999c-2.66699 -4.66699 -4 -7.33398 -4 -8.00098l4 -36v-3
c-2 -8 -3 -17.333 -3 -28c0 -19.333 1 -40.666 3 -63.999c0.666992 -2 1 -5 1 -9c0 -2 -0.333008 -4.33301 -1 -7c-2 -23.333 -3 -57.333 -3 -102c0 -2 0.333008 -6.33301 1 -13s1 -11 1 -13l-9 -90l-1 -16l-2 -16c-0.666992 -3.33301 -1.5 -9 -2.5 -17
s-1.83301 -13.667 -2.5 -17c-2 -7.33301 -7.33301 -17.666 -16 -30.999c-5.33301 -9.33301 -16 -24.333 -32 -45c-12.667 -12.667 -22.334 -19 -29.001 -19s-10 3.66699 -10 11c0 8.66699 4.33301 20.334 13 35.001c4 6.66699 7 17 9 31l3 11
c0.666992 10 3.33398 24.667 8.00098 44l-2 20l2 23c-2 12.667 -3 19.667 -3 21c0 2.66699 1 12.667 3 30v39v7zM96.002 487.999c17.333 0 31.665 -5.99902 42.998 -17.999c6 -6.66699 9 -15 9 -25c0 -13.333 -7.33301 -26.333 -22 -39
c-9.33301 -7.33301 -16.666 -11 -21.999 -11c-8 0 -19.333 4.33301 -34 13c-4.66699 2.66699 -8 6.66699 -10 12c0 0.666992 -0.166992 1.66699 -0.5 3s-0.666016 3.16602 -0.999023 5.49902s-0.5 4.5 -0.5 6.5l-3 16c0 2.66699 2.16699 8 6.5 16s7.83301 13 10.5 15
c5.33301 4 13.333 6 24 6z" />
    <glyph glyph-name="k" unicode="k" horiz-adv-x="412" 
d="M146 458l0.000976562 -19.001c1.33301 -8.66699 1.33301 -20.667 0 -36c-0.666992 -11.333 -1 -23 -1 -35c0 -10.667 1 -24 3 -40c1.33301 -8 2 -12.667 2 -14c0 -4.66699 -2 -16 -6 -34c-2.66699 -10 -4 -20 -4 -30c0 -14 4 -21 12 -21c4 0 8.66699 2 14 6l16 14
c13.333 7.33301 21 12 23 14c6 6 11.667 12.333 17 19c19.333 13.333 35.666 28.666 48.999 45.999c0.666992 8 4.66699 19 12 33c4 5.33301 8 8 12 8l26 -1c2 0 6.66699 0.333008 14 1s12 1 14 1c26 0 39 -4 39 -12c0 -4.66699 -6.66699 -10.667 -20 -18
c-1.33301 -0.666992 -15.333 -10 -42 -28l-31 -17c-16 -9.33301 -27.667 -17 -35 -23c-18.667 -14 -28 -25.667 -28 -35c0 -6 10 -19.333 30 -40c2.66699 -2.66699 10.334 -16 23.001 -40c5.33301 -10 15.333 -23.667 30 -41c18 -28.667 28.333 -44.667 31 -48
c3.33301 -4.66699 13 -13.334 29 -26.001c10 -6.66699 15 -16 15 -28c0 -10 -5 -15 -15 -15c-5.33301 0 -13.333 0.333008 -24 1h-7c-10 0 -19.667 -0.333008 -29 -1c-4.66699 -0.666992 -10 -1 -16 -1l-29 -1c-14.667 0.666992 -22 4.66699 -22 12
c0 5.33301 2.33301 10.333 7 15c7.33301 7.33301 11 12.666 11 15.999c0 1.33301 -1 3.66602 -3 6.99902c-7.33301 11.333 -13 26 -17 44c-0.666992 3.33301 -5.33398 9.33301 -14.001 18c-0.666992 2 -3.66699 7.33301 -9 16c-2 4.66699 -9 11.334 -21 20.001
c-5.33301 3.33301 -9.33301 7.33301 -12 12c-16 24.667 -27.667 37 -35 37c-6 0 -9 -8.66699 -9 -26c0 -11.333 -1.66699 -23.666 -5 -36.999l3 -43c0 -1.33301 -0.166992 -4.33301 -0.5 -9s-0.5 -7.66699 -0.5 -9c0 -14 7.66699 -29.667 23 -47
c7.33301 -7.33301 11 -13 11 -17c0 -5.33301 -5 -8 -15 -8c-6 0 -16 2 -30 6c-2 0.666992 -5 1 -9 1c-3.33301 0 -12.666 -1.33301 -27.999 -4c-12 0 -24.333 -0.333008 -37 -1h-22c-8 -1.33301 -12 1 -12 7c0 4 1.33301 7.33301 4 10l1 1c0.666992 0 1.66699 0.5 3 1.5
l4.5 3.5l6.5 5l8 6c7.33301 5.33301 11.333 13.333 12 24l6 40l4 21c0 0.666992 0.166992 2.16699 0.5 4.5s0.666016 5.83301 0.999023 10.5s0.5 9 0.5 13c1.33301 15.333 1.66602 25 0.999023 29l-1 19l1 19c0 2 -0.166992 5.83301 -0.5 11.5s-0.5 9.16699 -0.5 10.5v14
c0.666992 4 1 17 1 39l1 26c0 14.667 -0.333008 27.334 -1 38.001v38v7v11l1 24c0 2.66699 0.166992 5.5 0.5 8.5s0.5 5.83301 0.5 8.5v3c0 4 -0.666992 14 -2 30c-0.666992 26 -3.66699 46.667 -9 62c-3.33301 7.33301 -6.33301 12.333 -9 15c-8 4 -14.667 8.33301 -20 13
c-2 2 -3 4 -3 6c0 4 8.66699 8.66699 26 14c1.33301 0.666992 18.333 8 51 22c10.667 4.66699 22.334 13.334 35.001 26.001c4.66699 6 9.66699 9 15 9c6 0 9 -4.33301 9 -13s-2.33301 -17.667 -7 -27c-8 -18 -12.667 -30.333 -14 -37c-3.33301 -23.333 -5 -46.333 -5 -69v0
c0 -13.333 0.333008 -28.666 1 -45.999z" />
    <glyph glyph-name="l" unicode="l" horiz-adv-x="213" 
d="M140 647c6.66699 0 10.0039 -4.33691 10.0039 -13.0039l-4 -20l2 -31v-2c-0.666992 -1.33301 -1.16699 -3.16602 -1.5 -5.49902s-0.5 -4.5 -0.5 -6.5l-2 -27c0 -10.667 -0.333008 -21 -1 -31v-4l2 -52l-1 -10l-4 -93l4 -88l2 -66v-9c-2 -15.333 -3 -24.666 -3 -27.999v-1
l0.5 -1.5c0.333008 -1 0.5 -2.33301 0.5 -4s0.166992 -3.66699 0.5 -6s0.666016 -4.83301 0.999023 -7.5s0.666016 -5.66699 0.999023 -9s0.833008 -7 1.5 -11c0.666992 -5.33301 3 -20 7 -44l13 -32l5 -7l13 -12c2 -3.33301 3 -7.66602 3 -12.999
c0 -6.66699 -2.66699 -10.667 -8 -12c-6 -0.666992 -16.333 -1 -31 -1h-15h-14h-5c-2.66699 0 -6 -0.166992 -10 -0.5s-7.33301 -0.5 -10 -0.5h-7l-19 1h-3c-14.667 -1.33301 -23 -2 -25 -2c-9.33301 0 -14 3 -14 9c0 5.33301 1.33301 9.33301 4 12l18 20l9 13
c5.33301 10 9 17.667 11 23c1.33301 6.66699 2 16.667 2 30l3 29l1 12l1 10l-3 42v33c0 6.66699 -0.333008 11.667 -1 15v7c0 4.66699 1.66699 22.667 5 54v3v5c-2 12 -3 18.667 -3 20v38c0 2.66699 0.333008 13.5 1 32.5s1 32.833 1 41.5c0 12 -0.333008 19.333 -1 22
l-8 27c-0.666992 10 -2.66699 18.667 -6 26c-4.66699 8 -8.33398 12.667 -11.001 14l-22 12c-2.66699 0.666992 -4 5.33398 -4 14.001c0 9.33301 11.667 19.666 35 30.999c5.33301 2 13 8 23 18l23 14l12.5 8c4.33301 2.66699 7.66602 4.83398 9.99902 6.50098s4.5 3 6.5 4
s3.33301 1.83301 4 2.5z" />
    <glyph glyph-name="m" unicode="m" horiz-adv-x="644" 
d="M440 330c-18.667 0 -34.666 -6.33789 -47.999 -19.0049c-10 -9.33301 -16.667 -17.666 -20 -24.999c-2 -5.33301 -4 -15.666 -6 -30.999c0 -2.66699 -1 -8 -3 -16c-4 -15.333 -6 -28.666 -6 -39.999c0 -3.33301 0.333008 -7 1 -11c0 -9.33301 0.333008 -16 1 -20
c1.33301 -36.667 2.66602 -59.334 3.99902 -68.001c1.33301 -7.33301 2.66602 -19 3.99902 -35c0 -5.33301 2.66699 -11.666 8 -18.999c6 -6 18.667 -16.333 38 -31c2 -0.666992 3 -2.66699 3 -6c0 -6 -12 -9 -36 -9c-2.66699 0 -9.66699 0.666992 -21 2
s-18.666 2 -21.999 2s-11 -1 -23 -3c-5.33301 -0.666992 -14 -1 -26 -1c-17.333 0 -26 4 -26 12c0 3.33301 3 10 9 20c10 14 15 45.333 15 94l-3 50c0 2.66699 1 13.334 3 32.001c0.666992 6 1 13 1 21c0 16 -5 36 -15 60c-10 24.667 -29 37 -57 37
c-20.667 0 -38 -8.66699 -52 -26c-6 -7.33301 -10.667 -15.666 -14 -24.999c-3.33301 -11.333 -4.33301 -19.666 -3 -24.999c0.666992 -8.66699 1 -16.667 1 -24c0 -9.33301 -1 -23.333 -3 -42l-1 -9l-1 -11l1 -25l-1 -36c4 -23.333 6.33301 -36 7 -38l13 -27
c15.333 -16.667 23 -26 23 -28c0 -5.33301 -5.66699 -8 -17 -8c-4 0 -13.333 1 -28 3h-7c-6 0 -12.333 -0.333008 -19 -1h-6c-4 0 -8 0.333008 -12 1h-8c-2.66699 0 -9.33398 -0.5 -20.001 -1.5s-17.334 -1.5 -20.001 -1.5c-7.33301 0 -11 3.33301 -11 10
c0 5.33301 1 9 3 11l21 21c5.33301 5.33301 9.66602 13 12.999 23v29c0.666992 2.66699 1.16699 6.66699 1.5 12s0.5 9.33301 0.5 12c0.666992 4.66699 1 9 1 13c0 6 -0.333008 11.667 -1 17c0 10.667 -0.166992 21.5 -0.5 32.5s-0.666016 19.167 -0.999023 24.5
s-0.5 9 -0.5 11c0 4 0.833008 12.5 2.5 25.5s2.5 21.167 2.5 24.5c0 15.333 -4.66699 26 -14 32c-12 9.33301 -18 15.333 -18 18c0 4 1 6.66699 3 8l29 17l43 29c4 2 7.33301 3 10 3c7.33301 0 11.333 -3.33301 12 -10c2 -14.667 4.33301 -22 7 -22l26 13
c4.66699 2.66699 19.334 5.66699 44.001 9c14 2.66699 28 4 42 4c28.667 0 53 -14.333 73 -43c5.33301 -6 9.33301 -9 12 -9c2 0 8.66699 5.66699 20 17c7.33301 7.33301 22.333 16.666 45 27.999c16.667 8 25.334 12 26.001 12c1.33301 0.666992 9.66602 1 24.999 1
c16.667 0 33.334 -4.33301 50.001 -13c19.333 -8.66699 39.333 -28.667 60 -60c4 -12.667 6 -27.334 6 -44.001c0 -10 -0.333008 -20 -1 -30c-0.666992 -3.33301 -1 -8.66602 -1 -15.999c0 -1.33301 0.166992 -3.5 0.5 -6.5s0.666016 -7.5 0.999023 -13.5
s0.5 -11.667 0.5 -17c1.33301 -20 2 -34 2 -42c0 -6 -0.333008 -11.333 -1 -16c-0.666992 -9.33301 -1 -20.333 -1 -33c0 -14.667 7 -30.667 21 -48c4 -5.33301 12 -12.333 24 -21c2.66699 -2 4 -4.33301 4 -7c0 -6.66699 -10.333 -10 -31 -10
c-21.333 0 -37.666 1 -48.999 3l-11 2l-63 -3c-6 0 -9 5 -9 15c0 4.66699 3.33301 11.334 10 20.001c9.33301 12 14.333 19 15 21c2.66699 4.66699 4.66699 12.334 6 23.001c0 1.33301 1.33301 11.666 4 30.999c1.33301 8.66699 2.33301 17.667 3 27l1 5v9v10
c0 4.66699 -0.333008 11 -1 19l-1 13v18c0.666992 10 1 22.333 1 37c0 29.333 -7.66699 51.666 -23 66.999c-11.333 10 -25 15 -41 15z" />
    <glyph glyph-name="n" unicode="n" horiz-adv-x="399" 
d="M134 369c2.66699 0 4.66406 -0.998047 5.99707 -2.99805l3 -22c1.33301 -1.33301 2.66602 -2 3.99902 -2c2 0 11.333 5.33301 28 16c12.667 8 28.667 12 48 12c7.33301 0 22.666 -3 45.999 -9c22 -2.66699 37.667 -12 47 -28c8.66699 -24 13.334 -43 14.001 -57l2 -13
v-19l2 -30c0 -0.666992 -0.166992 -2.33398 -0.5 -5.00098s-0.666016 -6.33398 -0.999023 -11.001s-0.5 -9.33398 -0.5 -14.001l2 -42c0.666992 -19.333 3 -37.333 7 -54c0.666992 -5.33301 3.33398 -13.666 8.00098 -24.999c2 -6.66699 8.33301 -16.667 19 -30l16 -20
c0 -8.66699 -7.33301 -13 -22 -13h-13c-4.66699 0 -9.16699 0.166992 -13.5 0.5s-7.5 0.833008 -9.5 1.5h-3c-0.666992 0 -11 -0.666992 -31 -2c-3.33301 -0.666992 -6.33301 -1 -9 -1c-24 1.33301 -36.333 2 -37 2c-7.33301 1.33301 -11 5.33301 -11 12
c0 3.33301 5 10.666 15 21.999c2 2 5.33301 9.66699 10 23l7 20l-2 47c0.666992 2 1.33398 4.66699 2.00098 8c2 11.333 3 24.333 3 39c0 62.667 -2.66699 101 -8 115c-11.333 28 -28.666 42 -51.999 42c-18.667 0 -33.667 -5.66699 -45 -17
c-0.666992 -2.66699 -3.33398 -9 -8.00098 -19l-10 -22v-29l-2 -11v-11c0 -2 -0.333008 -4.66699 -1 -8c-0.666992 -0.666992 -1 -4.66699 -1 -12c-1.33301 -14 -2.66602 -24.667 -3.99902 -32c2.66699 -22 4 -35.667 4 -41c0 -2 -0.333008 -6.66699 -1 -14
s-1 -11.666 -1 -12.999l1 -2c0 -1.33301 0.333008 -4.16602 1 -8.49902l2 -13.5l2 -18c1.33301 -5.33301 4.33301 -13 9 -23c6.66699 -8 14.667 -15 24 -21c2 -1.33301 3 -3.33301 3 -6c0 -5.33301 -5.66699 -8 -17 -8c-6.66699 0 -21.667 1.66699 -45 5l-27 2
c-6.66699 0 -18.334 -2 -35.001 -6c-2 -0.666992 -5.33301 -1 -10 -1c-15.333 0 -23 4.66699 -23 14c0 5.33301 6.66699 12.666 20 21.999c4.66699 2.66699 11.667 14 21 34c2.66699 6.66699 4.66699 19.334 6 38.001c2 26.667 3 49 3 67v30l1 28
c0 17.333 -3.33301 29.666 -10 36.999c-2.66699 2.66699 -9.16699 6.5 -19.5 11.5s-16.166 8.5 -17.499 10.5c-1.33301 4 -2 6.66699 -2 8c0 4.66699 4.66699 9.66699 14 15c30 15.333 47 24.333 51 27c24 18 37.667 27 41 27z" />
    <glyph glyph-name="o" unicode="o" horiz-adv-x="422" 
d="M268 0c-16.667 -4.66699 -31.668 -7 -45.001 -7c-37.333 0 -71.666 10.333 -102.999 31c-22 14.667 -36.333 25.334 -43 32.001c-32.667 32.667 -49 67 -49 103v10.5c0 6.33301 0.166992 13.833 0.5 22.5s0.5 15.334 0.5 20.001c0 20.667 2 34.334 6 41.001
c20.667 44 52.667 75 96 93c18 7.33301 31.333 12 40 14c20 4 36 6 48 6c23.333 0 38.666 -1 45.999 -3c0.666992 0 12.667 -5 36 -15c16 -6.66699 28.333 -16 37 -28l14 -18c23.333 -26.667 35 -61.334 35 -104.001c0 -37.333 -10.333 -77 -31 -119
c-9.33301 -20.667 -26.666 -39.334 -51.999 -56.001c-18 -12.667 -30 -20.334 -36 -23.001zM183.999 325c-12 0 -22.3311 -2.66797 -30.998 -8.00098c-18 -14 -32.333 -31 -43 -51c-7.33301 -14.667 -11 -35.667 -11 -63c0 -24 0.333008 -39.667 1 -47
c0 -2.66699 4.33301 -16 13 -40c0.666992 -2.66699 2.16699 -7.5 4.5 -14.5l5.5 -16.5c8 -10.667 14.667 -17 20 -19l12 -6l14 -7c17.333 -11.333 27.666 -17 30.999 -17c17.333 0 35.666 5.33301 54.999 16c18 9.33301 32 29 42 59c8 24.667 12 49.334 12 74.001
c0 11.333 -1.33301 19.333 -4 24l-11 28c-8 20 -14.667 35.667 -20 47c-18 27.333 -48 41 -90 41z" />
    <glyph glyph-name="p" unicode="p" horiz-adv-x="401" 
d="M151 335c4.66699 0.666992 10.665 4.33008 17.998 10.9971c16.667 14 34.334 21 53.001 21c28 0 54 -5.66699 78 -17c20.667 -10 34.334 -21 41.001 -33c2 -2.66699 5.33301 -9.66699 10 -21c5.33301 -11.333 11 -28 17 -50c2 -6 3.33301 -12.667 4 -20
c0 -20 0.333008 -41.667 1 -65l1 -26c0.666992 -19.333 -10 -44.666 -32 -75.999c-14.667 -18.667 -32 -35 -52 -49c-15.333 -8 -24 -12.333 -26 -13c-4 -2 -14.333 -4 -31 -6l-20 -2l-57 12c-6.66699 -0.666992 -10.334 -15 -11.001 -43l-1 -13l3 -35l-1 -97
c0 -22 9 -38.333 27 -49c0.666992 0 2.33398 -0.666992 5.00098 -2s6.33398 -3 11.001 -5l14 -6c3.33301 -1.33301 5 -4.66602 5 -9.99902c0 -8 -5 -12 -15 -12c-2.66699 0 -7.83398 0.166992 -15.501 0.5s-12.167 0.5 -13.5 0.5c-6.66699 0 -20.334 -1 -41.001 -3
c-2 -0.666992 -3.66699 -1 -5 -1c-2.66699 0 -9.66699 0.5 -21 1.5s-18.333 1.5 -21 1.5c-1.33301 0 -5.33301 -0.166992 -12 -0.5s-10.667 -0.5 -12 -0.5c-14.667 0 -22 4.66699 -22 14c0 2.66699 2.66699 6 8 10c12 9.33301 19.333 17 22 23
c3.33301 8.66699 6.33301 17 9 25c0 5.33301 0.666992 27.333 2 66l3 41c0 0.666992 -0.333008 2 -1 4l-2 66v11l1 40l-1 18c0 3.33301 0.333008 7.33301 1 12c0 2 0.166992 4 0.5 6s0.666016 3.66699 0.999023 5s0.5 2.33301 0.5 3v2l-2 26l-1 25
c0 9.33301 -0.333008 16.333 -1 21c-0.666992 4 -1 7.33301 -1 10l1 25l1 48l3 26c0 8.66699 -4 16.667 -12 24c-3.33301 2 -9 4.33301 -17 7c-6 2.66699 -9 7.33398 -9 14.001c0 6 3.66699 11.667 11 17c4.66699 3.33301 17.334 10.666 38.001 21.999
c6.66699 6.66699 13.334 14.334 20.001 23.001c13.333 15.333 27 23 41 23c10 0 15 -5.33301 15 -16c0 -8 -2 -15 -6 -21c-3.33301 -5.33301 -5 -9 -5 -11zM198.998 302.996c-26 0 -42.333 -8.33398 -49 -25.001c-0.666992 -1.33301 -3 -21.333 -7 -60l1 -25l-1 -17v-43v-13
l2 -20v-20c8 -20 12 -30.333 12 -31c8 -11.333 25.333 -17.333 52 -18c2 0 10.333 -0.666992 25 -2c13.333 -1.33301 26.333 6 39 22c22.667 26.667 34 57.334 34 92.001c0 106.667 -36 160 -108 160z" />
    <glyph glyph-name="q" unicode="q" horiz-adv-x="409" 
d="M165 368l21.9971 -2.99805c10.667 -1.33301 19 -3 25 -5c14.667 -8 23.667 -12 27 -12c2.66699 0 4.66699 0.5 6 1.5s1.66602 2.5 0.999023 4.5l-6 32c-0.666992 3.33301 2.16602 6.83301 8.49902 10.5s11.5 5.5 15.5 5.5c7.33301 0 15.333 -3.33301 24 -10l24 -25
l23 -17c22 -16.667 34 -27.334 36 -32.001c0.666992 -2 1 -4 1 -6c0 -4.66699 -1.66699 -9.66699 -5 -15c-1.33301 -2 -9 -6.66699 -23 -14c-3.33301 -2 -5 -22 -5 -60c0 -3.33301 0.333008 -7.33301 1 -12c1.33301 -24 2 -37.333 2 -40c0 -4.66699 -1.33301 -14 -4 -28v-3
c0 -0.666992 1.33301 -10 4 -28v-13v-3c-0.666992 -1.33301 -1.16699 -3.83301 -1.5 -7.5s-0.666016 -7.66699 -0.999023 -12s-0.666016 -9 -0.999023 -14s-0.5 -9.83301 -0.5 -14.5l-1 -38c-2 -12 -3 -20 -3 -24c0 -7.33301 0.333008 -14 1 -20
c0.666992 -4 1 -29.333 1 -76c0 -7.33301 -0.333008 -13.333 -1 -18c-0.666992 -6 -1 -11.667 -1 -17l6 -44c1.33301 -9.33301 2.33301 -17 3 -23c0.666992 -4 7.33398 -12.333 20.001 -25c6 -6 9 -11.333 9 -16c0 -11.333 -7 -17 -21 -17h-27h-9h-6h-9
c-9.33301 0 -19.666 -0.333008 -30.999 -1h-31c-19.333 0 -29 5 -29 15c0 3.33301 0.666992 5.66602 2 6.99902l11 9l10 12l14 9c3.33301 2 6.33301 10.333 9 25c3.33301 15.333 5 24.666 5 27.999c0 2.66699 -0.333008 5.33398 -1 8.00098
c-0.666992 5.33301 -1 12.333 -1 21v8l1 9c0 6.66699 1.66699 15 5 25c0 0.666992 0.333008 1.66699 1 3s1 2.33301 1 3l-5 30l-1 18c-2.66699 12.667 -4.33398 24 -5.00098 34c-0.666992 6.66699 -3 10 -7 10c-5.33301 -0.666992 -14.333 -3.66699 -27 -9
c-6 -2 -11 -3 -15 -3c-8 0 -25 1.33301 -51 4c-24 2.66699 -48.667 19.667 -74 51c-30 37.333 -45 70 -45 98c0.666992 2.66699 1.33398 6.66699 2.00098 12v8l-5 27c-1.33301 9.33301 -2 16 -2 20c0 28.667 9 55.667 27 81c32.667 46.667 68.334 72 107.001 76z
M215.997 299.002c-2.66699 0 -12.665 -1.99902 -29.998 -5.99902c-16 -4 -25.667 -7 -29 -9c-10.667 -5.33301 -21.334 -17.333 -32.001 -36c-19.333 -30.667 -28.333 -49.667 -27 -57l2 -21l1 -22l1 -9c0 -24.667 0.333008 -37.667 1 -39c2 -4 5.66699 -8.66699 11 -14
c2 -1.33301 4.66699 -5 8 -11c8.66699 -14.667 23 -27.334 43 -38.001c7.33301 -4 17 -6 29 -6c30.667 0 50.667 9 60 27c6.66699 11.333 11 31 13 59c0.666992 9.33301 1 19.333 1 30c0 8 -0.333008 16.333 -1 25l2 24l-2 21c0 6 -0.666992 18.333 -2 37
c-3.33301 19.333 -14 32 -32 38c-6.66699 4 -12.334 6.33301 -17.001 7z" />
    <glyph glyph-name="r" unicode="r" horiz-adv-x="263" 
d="M137 217l-0.00390625 -26.001v-20c0 -6 -0.166992 -11.833 -0.5 -17.5s-0.666016 -10 -0.999023 -13s-0.5 -5.16699 -0.5 -6.5c0 -4 0.666992 -13 2 -27s2 -23 2 -27c0 -20 8.33301 -34.333 25 -43c18.667 -10.667 28 -20 28 -28c0 -8.66699 -7.33301 -13 -22 -13
c-8.66699 0 -26.667 1.33301 -54 4h-7l-16 -1c-6.66699 -0.666992 -12.667 -1 -18 -1v0c-24 0 -36 5 -36 15c0 3.33301 1 6.66602 3 9.99902l20 19c5.33301 5.33301 8.33301 11 9 17c0.666992 16.667 2.33398 44 5.00098 82l-1 33c-0.666992 17.333 -1.66699 39 -3 65
c-2.66699 24.667 -7.66699 40 -15 46l-9 5l-8 4c-7.33301 3.33301 -11 8.33301 -11 15c0 5.33301 3.33301 10.333 10 15c0.666992 0.666992 9.33398 5.66699 26.001 15s29.667 18 39 26c4 2.66699 10.333 5.33398 19 8.00098l11 -26c13.333 6.66699 23.333 12.334 30 17.001
c2.66699 1.33301 8 3.33301 16 6c16 4 25.667 6 29 6c16 0 29.5 -6 40.5 -18s16.5 -26.333 16.5 -43s-5 -29.334 -15 -38.001c-5.33301 -5.33301 -11.333 -8 -18 -8c-8.66699 0 -17.667 4 -27 12c-3.33301 2.66699 -12 14.334 -26 35.001
c-1.33301 1.33301 -2.66602 2 -3.99902 2c-10.667 0 -20.667 -13.667 -30 -41c-6 -18 -9 -38 -9 -60z" />
    <glyph glyph-name="s" unicode="s" horiz-adv-x="307" 
d="M42 127c2.66699 0 6.00391 -3.66602 10.0039 -10.999c7.33301 -16 22.333 -32.667 45 -50c8 -6 17.333 -11 28 -15c6 -2 10.333 -3 13 -3h26c14.667 2.66699 26.667 9.33398 36 20.001c8 10 12 22.667 12 38c0 24 -13.667 42.667 -41 56l-26 13
c-2 2 -15.667 11.333 -41 28c-8.66699 4.66699 -20.334 12.667 -35.001 24c-15.333 17.333 -23 35.666 -23 54.999c0 22 6.33301 41 19 57s30.667 27.333 54 34c6.66699 1.33301 19.334 2 38.001 2l23 1c4 0 8.66699 -0.666992 14 -2c2 -0.666992 4.66699 -1.66699 8 -3
s5.33301 -2 6 -2l37 8c4.66699 2 7.66699 -4.66699 9 -20c0.666992 -6 1 -13 1 -21c0 -5.33301 -0.333008 -13 -1 -23l-1 -12c0 -18 -3 -27 -9 -27c-6.66699 0 -18 14.333 -34 43c-12.667 24.667 -28.334 37 -47.001 37c-17.333 0 -30 -7.33301 -38 -22
c-5.33301 -9.33301 -8 -18.333 -8 -27c0 -10.667 5.66699 -22.667 17 -36c4 -5.33301 8.66699 -9 14 -11c3.33301 -1.33301 13 -4.66602 29 -9.99902l20 -11c10 -4 17.333 -7.66699 22 -11c20 -16.667 33.333 -30.334 40 -41.001c8.66699 -13.333 13 -31.666 13 -54.999
c0 -18.667 -6.33301 -40.334 -19 -65.001c-9.33301 -17.333 -19.333 -30 -30 -38c-10 -6.66699 -25 -13.334 -45 -20.001c-14.667 -4.66699 -26.334 -7 -35.001 -7c-8 0 -17 1.66699 -27 5l-21 12c-0.666992 0.666992 -2.33398 1 -5.00098 1c-4.66699 0 -8 -1.66699 -10 -5
l-9 -13c-2 -2 -7 -3 -15 -3c-6.66699 0 -11.834 1.5 -15.501 4.5s-5.16699 7.16699 -4.5 12.5v32c0 4 -0.333008 8.33301 -1 13c-0.666992 2 -1 13.333 -1 34v4v7v6c0 11.333 2.66699 17 8 17z" />
    <glyph glyph-name="t" unicode="t" horiz-adv-x="247" 
d="M30 363l21.0029 -2.00195c2 -0.666992 4.66699 -1 8 -1c8.66699 0 14.667 6 18 18c0 11.333 0.333008 26 1 44c0 8 10.333 17.333 31 28c17.333 9.33301 27 14 29 14c10.667 0 16 -5.33301 16 -16c0 -2 -0.333008 -4 -1 -6c-4 -10.667 -6 -17.667 -6 -21
c4 -36.667 7.33301 -55 10 -55l24 2l7 -1c10.667 -1.33301 17 -2.66602 19 -3.99902c7.33301 -4 11 -11 11 -21c0 -11.333 -3.33301 -18.333 -10 -21l-4 -1c-2.66699 0 -7.16699 -0.5 -13.5 -1.5s-12.833 -1.83301 -19.5 -2.5c-14.667 -2 -22 -9.66699 -22 -23
c0 -1.33301 0.166992 -5.5 0.5 -12.5s0.5 -11.833 0.5 -14.5c0 -3.33301 -1 -13 -3 -29c0 -2.66699 -0.666992 -16.667 -2 -42c-0.666992 -12.667 -1 -26.667 -1 -42c0 -58.667 7.66699 -88 23 -88l41 6c1.33301 0 3 -2.66699 5 -8s3 -9.33301 3 -12
c0 -9.33301 -3.33301 -17.666 -10 -24.999c-2.66699 -2.66699 -9 -6.66699 -19 -12c-8.66699 -8 -14.334 -12.667 -17.001 -14c-7.33301 -4.66699 -17.333 -7 -30 -7c-24.667 0 -43.334 8.33301 -56.001 25c-6 6.66699 -9 12.667 -9 18l1 49v4
c-2.66699 15.333 -4 26.333 -4 33c0 2 2 14 6 36c0.666992 2 1 5.33301 1 10l-2 26c0 8.66699 -0.333008 18.667 -1 30c0 2 -0.166992 5.33301 -0.5 10s-0.833008 8 -1.5 10c-1.33301 6.66699 -2 10.334 -2 11.001l2 13c2 13.333 3 23.333 3 30c0 12.667 -7.33301 20 -22 22
c-22.667 3.33301 -35.334 7.66602 -38.001 12.999c-3.33301 4.66699 -5 8.66699 -5 12c0 11.333 6 17.333 18 18z" />
    <glyph glyph-name="u" unicode="u" horiz-adv-x="383" 
d="M37 361c3.33301 0 5.99707 -0.341797 7.99707 -1.00879l27 -5c20 3.33301 31.333 5 34 5c24.667 0 37 -9.33301 37 -28c0 -0.666992 -0.166992 -2.66699 -0.5 -6s-1 -8.66602 -2 -15.999s-1.83301 -14.333 -2.5 -21l1 -173c0 -0.666992 -0.166992 -2 -0.5 -4
s-0.666016 -4.66699 -0.999023 -8s-0.5 -6.33301 -0.5 -9c-0.666992 -3.33301 -1 -6.66602 -1 -9.99902c0 -15.333 5.33301 -28.666 16 -39.999c6 -6 12 -9 18 -9c6.66699 0 16.334 2.66699 29.001 8s21.334 10.333 26.001 15s10 13.5 16 26.5s9 22.5 9 28.5l-3 43
c2.66699 19.333 4 31 4 35c0 2.66699 -1 12.334 -3 29.001c-0.666992 3.33301 -1 8 -1 14c0 7.33301 1.33301 25.333 4 54c0.666992 2 1 5 1 9c0 8 -1.33301 14.333 -4 19l-24 39c6 4 10 6 12 6c0.666992 0 4.33398 -0.666992 11.001 -2c1.33301 0 3 -0.166992 5 -0.5
s3.5 -0.666016 4.5 -0.999023s1.83301 -0.5 2.5 -0.5l45 1c9.33301 0 14 -10 14 -30v-60l-2 -36l1 -56c0 -10 0.333008 -18 1 -24c0 -3.33301 0.333008 -5.66602 1 -6.99902l-3 -51c-0.666992 -4 2.66602 -11 9.99902 -21c12.667 -15.333 19 -24 19 -26
c0 -2.66699 -2.66699 -5.66699 -8 -9l-25 -18c-28.667 -24.667 -51 -37 -67 -37c-5.33301 0 -8.66602 2.66699 -9.99902 8l-4 23c0 2 -1.33301 3 -4 3c-2 0 -13.333 -7 -34 -21c-2.66699 -2.66699 -10.667 -4 -24 -4c-34.667 0 -64.334 21.333 -89.001 64
c-6.66699 10.667 -10 33.667 -10 69c0 4 0.666992 21.333 2 52s2 48 2 52c0 2.66699 -1 15.334 -3 38.001c-1.33301 16.667 -3.33301 27.334 -6 32.001c-2.66699 8.66699 -9 17 -19 25c-16.667 12.667 -25 21.334 -25 26.001c0 6.66699 5.33301 10 16 10z" />
    <glyph glyph-name="v" unicode="v" horiz-adv-x="328" 
d="M11 333c-5.33301 7.33301 -8 13.002 -8 17.002c0 2 1 5 3 9s4 6 6 6l42 -3c14.667 3.33301 22.667 5 24 5c31.333 0 47 -6.33301 47 -19c0 -4 -1 -8.33301 -3 -13c-5.33301 -16 -8 -24.333 -8 -25l16 -43l14 -48c10 -23.333 18.333 -40.666 25 -51.999l13 -22
c2 0 8.66699 11.667 20 35c14 31.333 22.333 57 25 77l1 1c0 1.33301 0.166992 2.66602 0.5 3.99902s0.5 2.66602 0.5 3.99902c4 12 6 20.667 6 26c0 14.667 -1.33301 24.334 -4 29.001c-5.33301 14 -8 21.667 -8 23c0 6 4 10 12 12l17 3l24 4l26 1
c14.667 0 22 -5.33301 22 -16c0 -4 -2.66699 -10.667 -8 -20c-2.66699 -4 -11 -13 -25 -27l-5 -8c-4.66699 -6.66699 -11.667 -21.334 -21 -44.001l-3 -15l-5 -13l-6 -22c-4.66699 -11.333 -11.667 -32 -21 -62c-3.33301 -12 -12 -37 -26 -75
c-7.33301 -15.333 -11.666 -26 -12.999 -32c-4.66699 -19.333 -8.33398 -30.333 -11.001 -33c-3.33301 -3.33301 -7 -5 -11 -5c-7.33301 0 -13.333 3.33301 -18 10c-4 6 -10.667 25 -20 57c-9.33301 28.667 -18 50 -26 64c0 0.666992 -0.666992 2.66699 -2 6
s-3.33301 8.66602 -6 15.999s-5.66699 15 -9 23c-7.33301 20.667 -17.333 42.334 -30 65.001c0 0.666992 -0.333008 1.66699 -1 3s-1.5 3.33301 -2.5 6s-1.83301 5 -2.5 7c-10 30 -16.333 47.667 -19 53c-6.66699 11.333 -14 21.666 -22 30.999z" />
    <glyph glyph-name="w" unicode="w" horiz-adv-x="484" 
d="M323 362c23.333 0 35.001 -4.33887 35.001 -13.0059c0 -2 -5 -9.66699 -15 -23c-4.66699 -7.33301 -10.667 -19 -18 -35c-8 -18 -12 -29 -12 -33l2 -44l-1 -14c-0.666992 -4.66699 4 -16.667 14 -36c10.667 -18 16.667 -27 18 -27s4.66602 7 9.99902 21
c0.666992 2 9 16.667 25 44c16 25.333 24 56.666 24 93.999c0 10.667 -5 23.334 -15 38.001c-4 6 -6 10.667 -6 14c0 11.333 10.333 17 31 17c26 0 43 -0.666992 51 -2c10 -3.33301 15 -9.66602 15 -18.999c0 -5.33301 -1.33301 -10.333 -4 -15
c0 -1.33301 -6.33301 -11.333 -19 -30c-2 -2 -6.33301 -12.333 -13 -31l-28 -80l-19 -42l-11 -29c-8 -20 -15.667 -42 -23 -66c-4.66699 -20 -13.334 -37.333 -26.001 -52c-4.66699 -6.66699 -10 -10 -16 -10c-6.66699 0 -11.334 4 -14.001 12l-16 51
c-6.66699 21.333 -13.334 39 -20.001 53c0 0.666992 -0.5 2.5 -1.5 5.5l-2.5 7.5c-4 12.667 -8 19 -12 19c-1.33301 0 -5.66602 -7 -12.999 -21c-0.666992 -1.33301 -8.33398 -15.666 -23.001 -42.999c-0.666992 -2 -3.16699 -7 -7.5 -15s-8.16602 -14.667 -11.499 -20
c-2 -3.33301 -3.66699 -8.33301 -5 -15c-4 -18.667 -10 -28 -18 -28c-8.66699 0 -15.334 8 -20.001 24l-10 24l-8 20.5l-13.5 33.5l-14.5 37l-28 66l-14 39c-0.666992 1.33301 -2.5 5.33301 -5.5 12l-7.5 17c0 0.666992 -4.33301 6.33398 -13 17.001
c-4.66699 6 -7 9.33301 -7 10l-10 18l-19 18c-2.66699 2.66699 -4 7.33398 -4 14.001c0 12.667 9.66699 19 29 19h1c0.666992 0 2.33398 -0.166992 5.00098 -0.5s5.33398 -0.5 8.00098 -0.5c4 -0.666992 9.83301 -1.16699 17.5 -1.5s13.5 -0.5 17.5 -0.5h60
c6 -0.666992 10 -1.66699 12 -3c4.66699 -2.66699 7 -6 7 -10c0 -2.66699 -1 -5.66699 -3 -9l-23 -23c-2 -1.33301 -3 -5 -3 -11c0 -4.66699 0.666992 -9 2 -13l14 -36c1.33301 -3.33301 3.33301 -13.666 6 -30.999c2 -10 7.66699 -25 17 -45c4 -8 8.33301 -15.667 13 -23
c0.666992 -1.33301 2 -4.66602 4 -9.99902c2.66699 -12 6.66699 -18 12 -18s11.333 6 18 18c15.333 27.333 23 46.666 23 57.999c0 4.66699 -7 26.334 -21 65.001c-8.66699 24.667 -16 39.334 -22 44.001l-11 8c-7.33301 5.33301 -11 12.666 -11 21.999
c0 12 6.66699 18 20 18c1.33301 0 5 -0.333008 11 -1s10 -1 12 -1c4.66699 0 8 0.333008 10 1c2.66699 0 5.66699 0.166992 9 0.5s6 0.666016 8 0.999023s3.33301 0.5 4 0.5c2.66699 0 5.83398 -1.16699 9.50098 -3.5s5.5 -4.5 5.5 -6.5l-3 -14l9 -20
c6.66699 -14.667 12 -22 16 -22c6.66699 0 10 6.33301 10 19c0 6.66699 -2.66699 12.667 -8 18c-8 6 -12 10 -12 12c0 6.66699 3 10.334 9 11.001l11 2c15.333 2 24 3 26 3z" />
    <glyph glyph-name="x" unicode="x" horiz-adv-x="338" 
d="M23 359l10.001 -1.00488l15 1l16 -2l23 1l17 -1l27 1c12 0 18 -5 18 -15c0 -4 -3.33301 -12.333 -10 -25c-1.33301 -1.33301 -2 -3.66602 -2 -6.99902c0 -4.66699 4 -11.667 12 -21c7.33301 -8 12.333 -15 15 -21c4 -12 7.33301 -18 10 -18
c3.33301 0 5.66602 0.666992 6.99902 2l16 17l16 13l8 13c3.33301 4.66699 7.66602 11.667 12.999 21l-4 14c-1.33301 4.66699 -2.33301 8 -3 10s-1 3.33301 -1 4c0 10 6 14.333 18 13l25 -2l32 1c16 0 24 -4.33301 24 -13c0 -5.33301 -2 -8.66602 -6 -9.99902l-20 -7
c-5.33301 -2.66699 -11.666 -7.66699 -18.999 -15c-16.667 -20 -30 -36.667 -40 -50c-10.667 -11.333 -21.334 -24 -32.001 -38c-4 -6.66699 -6 -10.667 -6 -12l14 -36l9 -16l5 -13c12.667 -15.333 20 -25.666 22 -30.999c1.33301 -2.66699 9.33301 -13.334 24 -32.001
l18 -22c22.667 -18.667 34.667 -29 36 -31c2.66699 -3.33301 4 -7.66602 4 -12.999c0 -8 -3 -13.667 -9 -17c-6 0 -12 -0.333008 -18 -1h-19h-12c-4 0 -8.16699 0.166992 -12.5 0.5s-7.66602 0.666016 -9.99902 0.999023s-3.83301 0.5 -4.5 0.5c-2 0 -4 -0.333008 -6 -1h-17
c-25.333 0 -38 4.33301 -38 13c0 2 4.66699 10.333 14 25c4 4.66699 6 10 6 16c0 10 -7.33301 26.333 -22 49c-14 22.667 -24.333 34 -31 34c-3.33301 0 -9 -4.66699 -17 -14l-13 -13c-20 -16 -30 -34.333 -30 -55c0 -5.33301 4.66699 -16.666 14 -33.999c2 -4 3 -8 3 -12
c0 -6.66699 -5.66699 -10 -17 -10c-4 0 -12.833 1 -26.5 3s-22.5 3 -26.5 3c-2.66699 0 -4.66699 -0.333008 -6 -1h-16c-10.667 0 -16 4 -16 12c0 4 2.66699 9.33301 8 16l3 3l10 6.5c4.66699 3 9.33398 6.5 14.001 10.5l22 22c11.333 12.667 26.666 31.334 45.999 56.001
c15.333 19.333 23 33.666 23 42.999c0 6.66699 -1 11.334 -3 14.001l-20 27l-21 40c-0.666992 0.666992 -2 2.5 -4 5.5s-4.5 6.33301 -7.5 10s-6.16699 7.83398 -9.5 12.501l-23 34c-2.66699 2.66699 -10 7.66699 -22 15c-8 5.33301 -12 10.333 -12 15
c0 7.33301 5 11.333 15 12z" />
    <glyph glyph-name="y" unicode="y" horiz-adv-x="343" 
d="M53 359l16.002 -1.99609c4.66699 0 19 -1.33301 43 -4c10 -0.666992 21 -1.66699 33 -3c4.66699 -2.66699 7 -6.66699 7 -12c0 -4.66699 -5 -14 -15 -28c-1.33301 -4 -2 -6.66699 -2 -8c0 -0.666992 3.66699 -18.334 11 -53.001c0 -5.33301 1.33301 -16.333 4 -33
c0.666992 -8.66699 5 -19.334 13 -32.001c5.33301 -14.667 9.66602 -25.334 12.999 -32.001c7.33301 -16 13 -24 17 -24c7.33301 0 13.666 8 18.999 24c1.33301 4 4.33301 12 9 24l13 37l19 49c4 14 6 25 6 33c0 5.33301 -6.33301 20.333 -19 45c-1.33301 4 -2 6.66699 -2 8
c0 8 5.66699 12 17 12c6 0 10.333 -0.333008 13 -1c7.33301 -0.666992 13.666 -1 18.999 -1l28 1c18 0.666992 27 -4.66602 27 -15.999c0 -4.66699 -7 -14.667 -21 -30l-5 -13c-10 -18 -17.333 -37.667 -22 -59c-5.33301 -16.667 -13.666 -37.667 -24.999 -63
c-1.33301 -3.33301 -5.33301 -14 -12 -32l-11 -27l-4 -12l-5 -15l-7 -27l-12 -25c-3.33301 -16.667 -5.33301 -26.334 -6 -29.001c0 -0.666992 -0.5 -2 -1.5 -4s-2.33301 -4.83301 -4 -8.5s-3.16699 -7.16699 -4.5 -10.5c-8 -17.333 -16.667 -34.333 -26 -51l-16 -30
c-8 -15.333 -15 -32.333 -21 -51c-14 -31.333 -22.667 -49.333 -26 -54c-26.667 -44 -49.667 -67.667 -69 -71c-2.66699 -0.666992 -9 -1 -19 -1c-16.667 0 -25 7.33301 -25 22c0 8 3 14.667 9 20c4.66699 5.33301 16.667 10.333 36 15c14 4 32.333 34.333 55 91l22 54l7 22
c6 16 9 37 9 63c0 6 -1.33301 14.333 -4 25l-4 19l-6 20c-6 26.667 -9.66699 42 -11 46c-0.666992 0.666992 -8.66699 18.667 -24 54l-1 4c-1.33301 2.66699 -2.5 5.83398 -3.5 9.50098s-2.5 8.16699 -4.5 13.5s-4.16699 11.666 -6.5 18.999l-7.5 23
c-10 34 -23.333 56.333 -40 67c-15.333 11.333 -23 19.666 -23 24.999c0 8 5.66699 12.667 17 14c14 2 25 3 33 3z" />
    <glyph glyph-name="z" unicode="z" horiz-adv-x="320" 
d="M138 321c-20 0 -32.002 -0.333984 -36.002 -1.00098c-8 -0.666992 -18.667 -5 -32 -13c-4.66699 -2.66699 -11.334 -10.334 -20.001 -23.001c-2 -2 -4.33301 -3 -7 -3c-8 0 -12 18 -12 54c0 14.667 4.66699 22 14 22l51 -1l26 1c6 0.666992 16.333 -0.333008 31 -3
c2.66699 0 6.33398 -0.333008 11.001 -1s8.33398 -1 11.001 -1h13l88 1c5.33301 0.666992 9.5 -0.5 12.5 -3.5s4.5 -7.5 4.5 -13.5s-4.33301 -14.333 -13 -25c-10.667 -12.667 -16.667 -20.667 -18 -24l-22 -46l-14 -20l-14 -25c-1.33301 -2.66699 -10 -18.667 -26 -48
c-0.666992 -0.666992 -8.66699 -13.334 -24 -38.001c-5.33301 -7.33301 -12 -20.333 -20 -39c-7.33301 -11.333 -11 -18.666 -11 -21.999c0 -7.33301 9.33301 -11 28 -11c2.66699 0 11 1 25 3h31c17.333 -1.33301 34.666 8.66699 51.999 30c11.333 13.333 18.333 20 21 20
c6.66699 0 10 -7.33301 10 -22c0 -3.33301 -0.666992 -12.333 -2 -27v-14c0 -11.333 -1.33301 -18.333 -4 -21c-2.66699 -4 -9.66699 -6 -21 -6c-6 0 -10.667 0.333008 -14 1c-9.33301 0.666992 -17.666 1 -24.999 1c-0.666992 0 -2.16699 -0.166992 -4.5 -0.5
s-5.83301 -0.666016 -10.5 -0.999023s-9.33398 -0.5 -14.001 -0.5c-5.33301 -0.666992 -12.666 -1 -21.999 -1c-3.33301 0 -20.333 1 -51 3c-0.666992 0 -2.16699 -0.166992 -4.5 -0.5s-5.5 -0.666016 -9.5 -0.999023s-7.66699 -0.5 -11 -0.5c-2 0 -4 -0.333008 -6 -1
c-2 0 -11.333 1 -28 3c-25.333 0 -38.666 0.333008 -39.999 1c-6.66699 2.66699 -10 7 -10 13c0 12.667 6 27.667 18 45l15 24c0.666992 2 10.334 12.667 29.001 32c0.666992 0.666992 2.5 3 5.5 7l7.5 10c3.33301 6.66699 7 15 11 25l2 4c0.666992 1.33301 5 7.33301 13 18
c2.66699 8 7.66699 20 15 36c16 18 28.667 39.333 38 64c6 9.33301 9 16 9 20c0 5.33301 -5.66699 9 -17 11c-14.667 5.33301 -24.334 8 -29.001 8z" />
    <glyph glyph-name="braceleft" unicode="{" horiz-adv-x="296" 
d="M254 691c15.333 0 23 -7.33105 23 -21.998c0 -9.33301 -3 -14 -9 -14l-28 1c-0.666992 0 -1.66699 -0.333008 -3 -1c-0.666992 0 -9 -0.666992 -25 -2c-17.333 -1.33301 -30 -18.333 -38 -51c-6.66699 -26 -10 -47.667 -10 -65c0 -6 1 -21.333 3 -46l-3 -53
c0 -17.333 -0.333008 -31.333 -1 -42c-2.66699 -18 -12 -38.667 -28 -62c-8 -11.333 -15.333 -18.333 -22 -21c-20 -7.33301 -30 -13 -30 -17c0 -4.66699 10.333 -9.33398 31 -14.001c16 -3.33301 27.333 -14.333 34 -33c10 -24.667 15 -41 15 -49l-1 -14l1 -23l-2 -28
c0 -2 0.333008 -4 1 -6c1.33301 -17.333 2 -26.333 2 -27c0 -17.333 1.33301 -32.333 4 -45l2 -25c2.66699 -31.333 10.667 -51.666 24 -60.999c7.33301 -5.33301 13.333 -8 18 -8h21c22.667 -0.666992 34 -7.66699 34 -21c0 -9.33301 -4.66699 -13.333 -14 -12l-24 2
l-20 -4h-6c-24 2 -41 4.66699 -51 8c-18.667 6.66699 -34.667 17.334 -48 32.001c-18 20 -26.667 37.333 -26 52l4 56c0 2 0.666992 18.333 2 49c0.666992 7.33301 1 16.666 1 27.999c0 46.667 -7 82 -21 106c-2.66699 4 -10 11.667 -22 23
c-4.66699 2.66699 -7 7.66699 -7 15c0 6 2 10.667 6 14c3.33301 3.33301 7.33301 6.66602 12 9.99902c19.333 14 30 40.333 32 79l2 49c-3.33301 18 -5.33301 35 -6 51l-5 68c0 40 13 70.333 39 91c20 16 43.333 24.667 70 26c7.33301 0 16.333 1.33301 27 4h22
c2.66699 0 5.5 0.166992 8.5 0.5s5.5 0.666016 7.5 0.999023s3.33301 0.5 4 0.5z" />
    <glyph glyph-name="bar" unicode="|" 
d="M224 667h52v-833h-52v833z" />
    <glyph glyph-name="braceright" unicode="}" horiz-adv-x="296" 
d="M38 -36l17.998 -0.00195312c5.33301 0 9.66602 0.333008 12.999 1c5.33301 0.666992 10 1 14 1c12.667 0.666992 21.334 6.33398 26.001 17.001c16.667 28 23.334 44.333 20.001 49l1 23c1.33301 17.333 2 26.333 2 27v15l-2 33l2 51c0.666992 4 1.16699 10.667 1.5 20
s0.5 16.333 0.5 21c3.33301 20.667 12.666 41.667 27.999 63c8 11.333 15 18 21 20c20 7.33301 30 13.333 30 18s-10 9 -30 13c-15.333 3.33301 -27 14.333 -35 33c-10 26 -14.667 42.333 -14 49v15v23l1 27c0 2 -0.333008 4 -1 6c-1.33301 17.333 -2 26.666 -2 27.999
c0 18 -1.33301 32.667 -4 44c-0.666992 0.666992 -1.66699 9 -3 25c-2 32.667 -9.33301 53.334 -22 62.001c-7.33301 5.33301 -13.666 8 -18.999 8l-34 1l-9 -2c-8 0 -12 4.66699 -12 14c0 10 5.66699 15.667 17 17l21 2l20 3l6 -1c8.66699 -0.666992 26 -3 52 -7
c18.667 -6.66699 34.667 -17.334 48 -32.001c18 -18.667 26.333 -36 25 -52l-4 -57l1 -20c0 -1.33301 -1 -10.666 -3 -27.999c-1.33301 -12 -2 -21.333 -2 -28c0 -15.333 1.66699 -35.666 5 -60.999c3.33301 -16.667 9 -31.667 17 -45
c2.66699 -4.66699 10.334 -12.334 23.001 -23.001c4 -2.66699 6 -8 6 -16c0 -4.66699 -1.66699 -9.33398 -5 -14.001l-2 -1c-1.33301 -1.33301 -3 -2.66602 -5 -3.99902l-6 -4c-18 -13.333 -28.667 -40 -32 -80c-1.33301 -21.333 -2 -41.333 -2 -60
c0 -17.333 3.66699 -47.333 11 -90c0.666992 -1.33301 1 -6.66602 1 -15.999c0 -40 -13 -70.333 -39 -91c-21.333 -16.667 -45 -25.334 -71 -26.001c-7.33301 0 -16.333 -1.33301 -27 -4l-22 -1c-2.66699 0 -5.5 -0.166992 -8.5 -0.5s-5.5 -0.666016 -7.5 -0.999023
s-3.33301 -0.5 -4 -0.5c-15.333 0 -23 5 -23 15c0 12 6.33301 19 19 21z" />
    <glyph glyph-name="asciitilde" unicode="~" horiz-adv-x="667" 
d="M530 733l13.999 -8c-12.667 -22.667 -28.667 -42 -48 -58c-29.333 -25.333 -58.666 -38 -87.999 -38c-14 0 -35 4.66699 -63 14c-56 18.667 -94.667 28 -116 28c-24.667 0 -45.334 -8.33301 -62.001 -25c-8 -6.66699 -18 -17.667 -30 -33l-14 9
c40.667 64.667 86.334 97 137.001 97c20 0 50.667 -7.33301 92 -22c36 -12 62.333 -18 79 -18c36 0 69 18 99 54z" />
    <glyph glyph-name="nbspace" unicode="&#xa0;" horiz-adv-x="230" 
 />
    <glyph glyph-name="exclamdown" unicode="&#xa1;" horiz-adv-x="214" 
d="M125 184l-0.00195312 -24.998c0 -5.33301 1 -16 3 -32c1.33301 -10 3 -26.333 5 -49c1.33301 -23.333 3.33301 -50 6 -80c0.666992 -2.66699 4.33398 -15.334 11.001 -38.001c2 -9.33301 3.33301 -22.333 4 -39s4 -62.334 10 -137.001c0.666992 -2 1 -5 1 -9
c0 -14 -3.33301 -29.667 -10 -47c-4.66699 -14.667 -15 -23 -31 -25c-14 -2.66699 -24 -4 -30 -4c-29.333 0 -44 30 -44 90c0 4 1.33301 20.667 4 50c2 31.333 5.33301 60 10 86v35l9 59c1.33301 19.333 4 36 8 50c0 6 0.333008 13.333 1 22l4 74
c0 3.33301 0.333008 7.33301 1 12s1.33398 8.66699 2.00098 12l1 5c0 1.33301 -0.333008 5 -1 11s-1 9.66699 -1 11c0 8 5.33301 12 16 12s17.667 -4.66699 21 -14v-30zM112.998 397.002c6 0 12.334 -3 19.001 -9c10.667 -10 17.667 -17 21 -21
c2.66699 -4.66699 4 -12.334 4 -23.001c0 -31.333 -12.333 -47 -37 -47c-2.66699 0 -12 3.66699 -28 11c-16 6 -25 10 -27 12c-5.33301 6.66699 -8 16.334 -8 29.001c0 15.333 3.33301 26.333 10 33c9.33301 10 24.666 15 45.999 15z" />
    <glyph glyph-name="cent" unicode="&#xa2;" horiz-adv-x="339" 
d="M204 605c6.66699 0 11.834 -0.999023 15.501 -2.99902s5.16699 -4.66699 4.5 -8l-1 -12l-1 -19l-3 -18c0 -1.33301 2.66699 -6.33301 8 -15c3.33301 -5.33301 8.66602 -8.33301 15.999 -9c49.333 -12 74 -34.333 74 -67c0 -8 -2.83301 -15.333 -8.5 -22
s-12.167 -10 -19.5 -10c-22 0 -37.667 8 -47 24c-4 6.66699 -7.33301 10 -10 10c-9.33301 0 -14 -4.33301 -14 -13l2 -72c-1.33301 -7.33301 -2.33301 -16.666 -3 -27.999l1 -66c-1.33301 -4 -2.66602 -7.66699 -3.99902 -11c-4.66699 -10 -7 -21.333 -7 -34
c0 -16.667 4.33301 -29.334 13 -38.001c3.33301 -3.33301 7 -5 11 -5c22 0 40.667 5 56 15c7.33301 4.66699 13 7 17 7c3.33301 0 5 -1.66699 5 -5c0 -2.66699 -4 -7.33398 -12 -14.001c-0.666992 -0.666992 -3.16699 -2.83398 -7.5 -6.50098l-11.5 -9.5
c-10 -8 -26 -17.333 -48 -28l-11 -2c-7.33301 -1.33301 -10.333 -2.33301 -9 -3l4 -36v-5c-0.666992 -3.33301 -1.66699 -9.66602 -3 -18.999l2 -32c0 -2.66699 -2.83301 -5.83398 -8.5 -9.50098s-10.167 -5.5 -13.5 -5.5c-6 0 -10.333 3 -13 9
c-1.33301 3.33301 -2.33301 11.333 -3 24c-2 8.66699 -3 14.334 -3 17.001c0 2 1.66699 9.66699 5 23l-2 13c-1.33301 14 -3.16602 22.5 -5.49902 25.5s-10.5 6.16699 -24.5 9.5c-32 13.333 -58 34 -78 62l-6 9l-8 12.5l-8 13.5
c-2.66699 9.33301 -5.33398 22.333 -8.00098 39c-6 30 -9 48.333 -9 55c0 42 14 79 42 111c25.333 29.333 46.666 46.333 63.999 51l42 10c8 2 12 12.667 12 32c0 4 -1 16 -3 36c-0.666992 2 -1 4 -1 6c0 7.33301 6.66699 11 20 11zM169 484.001
c-13.333 0 -26.3301 -8.33008 -38.9971 -24.9971c-12 -14.667 -19 -29.334 -21 -44.001c-2 -15.333 -3 -30 -3 -44c0 -2 0.166992 -6 0.5 -12s0.5 -10 0.5 -12v-18c0 -2.66699 1.66699 -8 5 -16c8 -14 14.667 -28.667 20 -44c5.33301 -10.667 10.666 -20.334 15.999 -29.001
c9.33301 -16 15.666 -24 18.999 -24c8 0 12 7.66699 12 23v7v12l1 41l3 93c2 10 3 21 3 33v24c0 15.333 -1 24.666 -3 27.999c-2.66699 4.66699 -7.33398 7 -14.001 7z" />
    <glyph glyph-name="sterling" unicode="&#xa3;" horiz-adv-x="490" 
d="M109 351c12 3.33301 18.0029 8.33301 18.0029 15c0 6 -7.66699 19.667 -23 41c-4 6 -13 23 -27 51l-10 20c-3.33301 8 -5 16 -5 24c0 27.333 3.66699 50 11 68c2.66699 6 7.66699 14.333 15 25c4 5.33301 11.333 13.333 22 24
c0.666992 1.33301 2.66699 3.66602 6 6.99902c12 15.333 21.333 24.333 28 27c1.33301 2 6.66602 4.33301 15.999 7l13 7c12.667 6 28 9 46 9s30.667 -1.33301 38 -4l55 -20c42.667 -10.667 66 -17.667 70 -21c2 -3.33301 5 -13.333 9 -30l3 -55l6 -27l-1 -26
c0 -3.33301 0.333008 -6.33301 1 -9c1.33301 -9.33301 2 -14.666 2 -15.999c0 -10.667 -4.66699 -16 -14 -16c-7.33301 0 -12.333 3.33301 -15 10c-1.33301 1.33301 -2.33301 7 -3 17c-2.66699 8 -6 16.333 -10 25c-4.66699 14.667 -8.66699 26.334 -12 35.001
c0 0.666992 -0.666992 1.83398 -2 3.50098l-6 7.5l-8 10c-4 4 -8.33301 8.83301 -13 14.5l-11 13c-2.66699 3 -4.66699 5.16699 -6 6.5c-7.33301 7.33301 -19 14.666 -35 21.999c-0.666992 0 -11.334 5 -32.001 15c-7.33301 4 -14 6 -20 6c-31.333 0 -54.333 -10 -69 -30
c-14 -16.667 -21 -32.334 -21 -47.001s3 -27.334 9 -38.001c0 -0.666992 1.33301 -2.83398 4 -6.50098l8 -10.5c23.333 -36.667 46.666 -64.667 69.999 -84c4 -2.66699 9.33301 -11 16 -25l10 -13c5.33301 -6.66699 11.666 -14 18.999 -22c8.66699 -6.66699 22 -10 40 -10
c0.666992 0 6.33398 0.666992 17.001 2l24 -1l15 1c5.33301 0.666992 9.33301 -0.666016 12 -3.99902s4 -8.33301 4 -15c0 -14.667 -4.66699 -22 -14 -22l-12 1l-26 -1h-21c-8.66699 -2.66699 -13 -10 -13 -22c0 -6.66699 1 -14.667 3 -24c0.666992 -2 1 -4 1 -6l-5 -24
l-1 -35l-3 -18l-1 -11l-3 -10c-6.66699 -24 -10 -42.667 -10 -56c0 -8 3.33301 -14 10 -18l38 -8c12 -4 21 -6 27 -6c15.333 0 27.333 4.33301 36 13c5.33301 5.33301 15 18.666 29 39.999c0.666992 0.666992 3.66699 10 9 28l8 26c0 0.666992 0.666992 9.33398 2 26.001
c1.33301 23.333 7.66602 35 18.999 35c6.66699 0 11.667 -3.66699 15 -11c2.66699 -4.66699 4 -12 4 -22c0 -13.333 -4.66699 -38 -14 -74l-2 -10l-3 -14c-11.333 -46 -31.333 -77.333 -60 -94c-13.333 -12 -23.666 -19.667 -30.999 -23c-10 -6 -24 -9 -42 -9
c-2 0 -13.333 3 -34 9c-7.33301 1.33301 -15.333 3.33301 -24 6c-3.33301 0.666992 -13.333 6.33398 -30 17.001c-8.66699 4.66699 -16.667 7 -24 7c-4.66699 0 -8.66699 -1 -12 -3l-15 -14c-12.667 -10.667 -32.667 -16 -60 -16c-2.66699 0 -11.334 2.33301 -26.001 7
c-2.66699 0.666992 -10.667 2.33398 -24 5.00098l-10 7c-12 10 -21 22.667 -27 38c-2 4 -4 17.667 -6 41c0 18 8 37 24 57c16.667 20 36.334 30 59.001 30c2 0 7 -0.5 15 -1.5s13.333 -1.5 16 -1.5c16 -3.33301 31.667 -12 47 -26c6.66699 -6.66699 16.667 -10 30 -10
c19.333 0 29 16.667 29 50s-17.333 69.666 -52 108.999c-11.333 13.333 -18.333 20 -21 20c-30 -3.33301 -45.667 -5 -47 -5c-6 0 -11.667 0.666992 -17 2c-12.667 2.66699 -20.667 4 -24 4l-6 -2c-8 -2 -14.333 -3 -19 -3c-8.66699 0 -13 6 -13 18
c0 16.667 9.66699 25 29 25c7.33301 0 20 -1.33301 38 -4zM98.0029 131c-8 0 -14.333 -2.33203 -19 -6.99902c-0.666992 -0.666992 -4 -8.33398 -10 -23.001c-6.66699 -14 -10 -22.333 -10 -25c0 -6.66699 2 -12.667 6 -18c14 -19.333 35.667 -29 65 -29
c27.333 0 41 9.66699 41 29c0 12.667 -6.33301 26.667 -19 42c-9.33301 11.333 -16.666 18.333 -21.999 21c-10.667 6.66699 -21.334 10 -32.001 10z" />
    <glyph glyph-name="currency" unicode="&#xa4;" horiz-adv-x="461" 
d="M310 208c-2.66699 0 -12.3311 -5 -28.998 -15c-12.667 -8 -24.667 -12 -36 -12c-34 0 -63.333 7 -88 21c-6.66699 3.33301 -11 5 -13 5c-5.33301 0 -12.333 -5.33301 -21 -16c-16 -16.667 -27 -25 -33 -25c-4.66699 0 -7 3 -7 9v6v5c0 5.33301 -0.333008 8.33301 -1 9
l-7 7c-1.33301 1.33301 -2 8.33301 -2 21c0 1.33301 2.66699 4.66602 8 9.99902c10 9.33301 15 17.666 15 24.999c0 4.66699 -3.33301 11.334 -10 20.001c-10.667 16.667 -16 39.667 -16 69c0 10.667 4.33301 25.667 13 45c3.33301 8.66699 5 15 5 19
c0 5.33301 -4 13 -12 23s-12 17.333 -12 22s1.33301 8.33398 4 11.001l10 10c8.66699 12.667 15.334 19 20.001 19c6.66699 0 13.667 -4.66699 21 -14c10 -12 17.667 -18 23 -18c4.66699 0 9.66699 1.33301 15 4c30 14 61 21 93 21c8 0 23.667 -3.66699 47 -11
c5.33301 -1.33301 8.66602 -2 9.99902 -2c4 0 8.66699 1.66699 14 5l29 23c0.666992 0.666992 2 1 4 1c5.33301 0 10.333 -2.33301 15 -7c8 -6.66699 12 -15 12 -25c0 -7.33301 -4.66699 -17.666 -14 -30.999c-3.33301 -4.66699 -5 -7.66699 -5 -9
c0 -4 3.33301 -11.667 10 -23c8 -14.667 12 -33.667 12 -57c0 -32 -5.66699 -61 -17 -87c-2.66699 -4.66699 -4 -9.33398 -4 -14.001c0 -3.33301 2.33301 -7.33301 7 -12c10 -9.33301 15 -17.333 15 -24s-4.33301 -14 -13 -22s-16.334 -12 -23.001 -12
c-2.66699 0 -9.33398 5.33301 -20.001 16c-6.66699 6.66699 -13 10 -19 10zM235.003 432c-12.667 0 -27.335 -4.33301 -44.002 -13c-8.66699 -4 -14.667 -8 -18 -12l-13 -20c-12 -16 -18.333 -26.333 -19 -31c-3.33301 -10 -5 -18.333 -5 -25c0 -10 5 -25.667 15 -47
c6 -11.333 13 -20.666 21 -27.999c14.667 -11.333 33.667 -17 57 -17c6 0 21.333 6.66699 46 20c10 5.33301 17.667 10.666 23 15.999l11 17c8.66699 9.33301 13.334 16 14.001 20c1.33301 6.66699 2 12 2 16c-2 4.66699 -3.66699 20.667 -5 48
c-1.33301 4 -2.66602 7 -3.99902 9c-13.333 18 -24.333 29.667 -33 35c-12 8 -28 12 -48 12z" />
    <glyph glyph-name="yen" unicode="&#xa5;" horiz-adv-x="506" 
d="M181 382l-21.998 0.00683594c-1.33301 0 -7.33301 -0.666992 -18 -2l-25 1l-16 -1c-5.33301 -0.666992 -9.5 0.666016 -12.5 3.99902s-4.5 8.33301 -4.5 15c0 4.66699 1.5 9.83398 4.5 15.501s6.5 8.5 10.5 8.5l13 -1l26 1l23 -1c6.66699 2 10 6 10 12
c0 11.333 -12.333 36.666 -37 75.999c-21.333 34 -41.666 61.333 -60.999 82l-19 20l-15 13c-17.333 11.333 -26.333 17.666 -27 18.999c-3.33301 3.33301 -5 6.66602 -5 9.99902c0 2 1.66699 4.66699 5 8c0.666992 1.33301 13.667 2.33301 39 3c20 2 31 3 33 3
c4.66699 0 14.667 -1.33301 30 -4c4.66699 0.666992 14 1.66699 28 3h8c2 0 6.66699 -0.5 14 -1.5s12.333 -1.5 15 -1.5h4h6c19.333 0 29 -5.33301 29 -16c0 -4 -2 -8.33301 -6 -13l-16 -17c-5.33301 -6.66699 -8 -13.667 -8 -21c0 -11.333 10.333 -32.333 31 -63
c4.66699 -6 10.667 -16.667 18 -32c10 -17.333 17.333 -29.666 22 -36.999c12 -24 19.667 -36 23 -36c3.33301 3.33301 12.333 14.333 27 33l26 49l13 14l14 27c8 14.667 12 23.667 12 27c0 11.333 -4 22 -12 32c0 1.33301 -3.33301 5.66602 -10 12.999
c-2 2 -8 6.66699 -18 14c-3.33301 2 -5 5.33301 -5 10c0 10.667 10 16 30 16h9c4 0 8.5 -0.166992 13.5 -0.5s8.83301 -0.666016 11.5 -0.999023s4.66699 -0.5 6 -0.5c2.66699 0 9.33398 1 20.001 3c3.33301 0.666992 7.66602 1 12.999 1
c7.33301 0 20.666 -1.33301 39.999 -4c19.333 -3.33301 29 -9.33301 29 -18c0 -5.33301 -1.5 -9.33301 -4.5 -12s-14.5 -9.66699 -34.5 -21c-8.66699 -4.66699 -20.667 -15.667 -36 -33l-21 -24c-4.66699 -4.66699 -13 -19 -25 -43l-14 -22l-7 -15
c-17.333 -28.667 -26 -43.667 -26 -45c0 -4 1.33301 -6 4 -6l24 1l6 -2c10 -3.33301 17.667 -5 23 -5c3.33301 0 6 0.333008 8 1c12 3.33301 18.667 5 20 5c9.33301 0 14 -6.33301 14 -19c0 -18.667 -10.333 -28 -31 -28c-0.666992 0 -1.83398 0.166992 -3.50098 0.5
s-3.66699 0.666016 -6 0.999023s-4.83301 0.5 -7.5 0.5l-9 1c-6.66699 0 -16 0.666992 -28 2c-5.33301 0.666992 -9.66602 1 -12.999 1c-14.667 0 -23.667 -4.66699 -27 -14c-3.33301 -14.667 -5 -26.334 -5 -35.001c0 -10.667 11.333 -16 34 -16c10 0 21 0.666992 33 2
l25 -1l15 1c4.66699 0.666992 8.33398 -0.5 11.001 -3.5s4 -7.5 4 -13.5c0 -4 -1.33301 -8.66699 -4 -14c-0.666992 -2.66699 -1.33398 -4.66699 -2.00098 -6s-1.33398 -2.33301 -2.00098 -3s-1.33398 -1 -2.00098 -1l-28 2l-13 -2h-9
c-5.33301 0 -9.66602 0.333008 -12.999 1c-18.667 1.33301 -29.667 2 -33 2c-10.667 0 -16 -9 -16 -27c0 -2 0.666992 -7.83301 2 -17.5s2 -15.834 2 -18.501l-2 -29l-2 -81c-0.666992 -16 2 -30.667 8 -44c5.33301 -11.333 15.666 -23.333 30.999 -36
c10.667 -8.66699 16 -16.334 16 -23.001c0 -2.66699 -0.5 -4.66699 -1.5 -6s-2.83301 -1.66602 -5.5 -0.999023l-24 1h-5c-1.33301 -0.666992 -13.333 -1 -36 -1c-0.666992 0 -2 0.166992 -4 0.5s-4.83301 0.666016 -8.5 0.999023s-7.16699 0.5 -10.5 0.5h-2
c-11.333 -2 -21.333 -3 -30 -3c-4 0 -7.66699 0.333008 -11 1c-7.33301 0.666992 -13.666 1 -18.999 1l-12 -1h-23c-15.333 -1.33301 -23 2 -23 10c0 6 1.66699 10 5 12l23 10c6.66699 4 16 15.333 28 34c12.667 15.333 19 27.333 19 36c0 2 -0.333008 3.33301 -1 4l-1 18
l3 45c0 10.667 0.333008 20 1 28c1.33301 34 2.66602 55.333 3.99902 64c0.666992 2.66699 1 6.66699 1 12c0 7.33301 -4.33301 11 -13 11c-2 -0.666992 -12.333 -2 -31 -4h-6c-6.66699 0 -13 0.333008 -19 1l-21 -2l-9 6l-21 -5c-7.33301 0 -11 6 -11 18
c0 17.333 10 26 30 26c5.33301 0 10.333 -0.333008 15 -1c18 -2 36 -3.33301 54 -4c18.667 -0.666992 28 6 28 20c0 10 -2.33301 20 -7 30c-2 5.33301 -3.66699 8.66602 -5 9.99902c-5.33301 3.33301 -14 5 -26 5z" />
    <glyph glyph-name="brokenbar" unicode="&#xa6;" 
d="M224 667h52v-334h-52v334zM224 153h52v-319h-52v319z" />
    <glyph glyph-name="section" unicode="&#xa7;" 
d="M101 111c17.333 0 32.999 -12.0039 46.999 -36.0039c6.66699 -10.667 10 -20.667 10 -30c0 -7.33301 -3.33301 -16.333 -10 -27c-6.66699 -12.667 -10 -23 -10 -31c0 -13.333 6.33301 -22 19 -26c12.667 -3.33301 39.667 -7.66602 81 -12.999l27 -3
c10 0 23.667 5.66699 41 17c9.33301 6 15.333 11 18 15c2.66699 5.33301 7 13 13 23c10.667 11.333 16 19.333 16 24l-1 26l2 23c0 20.667 -18.333 35.334 -55 44.001c-8 2 -21.667 8 -41 18l-70 22l-11 4l-18 7l-14 7c-12.667 4.66699 -20.667 7.66699 -24 9
c-0.666992 0.666992 -2 1.66699 -4 3s-4.66699 3.33301 -8 6l-10 8c-8 4.66699 -17.333 14 -28 28c-4.66699 11.333 -7.66699 32.333 -9 63c-0.666992 8 -1 15.333 -1 22v0c0 14.667 2.66699 26.334 8 35.001c4.66699 4.66699 10.667 11.334 18 20.001
c28.667 30.667 43 49 43 55c0 5.33301 -5 12.333 -15 21c-30.667 26 -46 49.333 -46 70c0 16 7.33301 40 22 72c8 17.333 18.333 32.666 31 45.999c1.33301 0.666992 5.33301 3.5 12 8.5s13.334 9.5 20.001 13.5l26 19c6.66699 4 15.334 7.66699 26.001 11
c14 4 23.333 5.66699 28 5l31 -3c21.333 -3.33301 37.333 -6.66602 48 -9.99902c25.333 -5.33301 41.666 -10 48.999 -14c11.333 -6.66699 26.333 -23.334 45 -50.001c7.33301 -11.333 11 -23 11 -35c0 -21.333 -1.33301 -33.666 -4 -36.999
c-9.33301 -14 -15.666 -22.667 -18.999 -26c-8.66699 -8.66699 -19.334 -13 -32.001 -13c-4.66699 0 -12.334 4.33301 -23.001 13c-18 12.667 -27 33 -27 61c0 2.66699 5.33301 13.334 16 32.001c1.33301 2.66699 2 5 2 7c0 3.33301 -5 8.66602 -15 15.999
c-11.333 8 -19 12 -23 12h-12l-29 1c-30 -3.33301 -52.333 -9.66602 -67 -18.999c-6.66699 -4 -12 -8.66699 -16 -14c-4 -6 -8.5 -16.667 -13.5 -32s-7.5 -27 -7.5 -35c0 -18.667 5.33301 -32.334 16 -41.001c12 -10 25.333 -16.667 40 -20c21.333 -4 34.333 -7 39 -9
c12.667 -8 33.667 -18.333 63 -31c0.666992 0 12.334 -3.66699 35.001 -11c18.667 -2.66699 30.334 -5.33398 35.001 -8.00098c22 -13.333 34.667 -22.333 38 -27c25.333 -33.333 38 -60.666 38 -81.999c0 -24 -4.33301 -46.667 -13 -68
c-2.66699 -8 -6.66699 -15.667 -12 -23l-38 -37c-2 -2.66699 -3 -6 -3 -10c0 -2 0.666992 -4.33301 2 -7l23 -28c4.66699 -6 9.5 -16.833 14.5 -32.5s7.5 -27.5 7.5 -35.5c0 -27.333 -7.66699 -55.666 -23 -84.999c-6 -11.333 -13 -21.333 -21 -30l-10 -9l-8 -7
c-11.333 -12 -22 -20.333 -32 -25c-6.66699 -4 -21 -9.33301 -43 -16c-7.33301 -2.66699 -18.666 -4.33398 -33.999 -5.00098c-10.667 -4 -17.667 -6 -21 -6c-12 0 -37 5.33301 -75 16c-0.666992 0 -9.33398 2.33301 -26.001 7c-0.666992 0 -2.33398 0.833008 -5.00098 2.5
s-7.16699 4.33398 -13.5 8.00098l-18.5 10.5c-14 8 -23.333 14.333 -28 19c-8 10.667 -14 19.667 -18 27c-8 16.667 -12 35.667 -12 57c0 15.333 5.66699 30.666 17 45.999c13.333 18 26.333 27 39 27zM191.999 396.996c-5.33301 0 -16.666 -8.33203 -33.999 -24.999
c-2 -2 -6.33301 -10.667 -13 -26s-10 -25 -10 -29c0 -26.667 9.33301 -47 28 -61c13.333 -10 28 -16.333 44 -19c2.66699 0 11.334 -2.66699 26.001 -8c22 -9.33301 34.667 -14 38 -14c6.66699 -1.33301 16 -4.33301 28 -9c4 -2 9 -3 15 -3c16 0 28.333 5 37 15
c2.66699 3.33301 7.66699 14 15 32c9.33301 17.333 14 30 14 38c0 19.333 -9.66699 36.666 -29 51.999c-4 4 -15.667 8 -35 12l-26 13c-3.33301 2 -12.333 4.66699 -27 8c-6 0.666992 -21.333 7 -46 19l-8 2c-2.66699 0.666992 -4.83398 1.16699 -6.50098 1.5l-5 1
c-1.66699 0.333008 -2.83398 0.5 -3.50098 0.5h-2z" />
    <glyph glyph-name="dieresis" unicode="&#xa8;" 
d="M186 497c6.66699 0 14.667 -3.66797 24 -11.001c2 -2 4 -7 6 -15l5 -22c0 -11.333 -4 -21 -12 -29c-4.66699 -4.66699 -10 -7 -16 -7c-26 0 -41.333 9.33301 -46 28l-4 17c0 12.667 2.33301 21.334 7 26.001c8.66699 8.66699 20.667 13 36 13zM298 495.999
c6.66699 0 15.667 -3.00098 27 -9.00098c13.333 -7.33301 20 -18.666 20 -33.999c0 -10 -7.33301 -21.333 -22 -34c-8.66699 -7.33301 -15 -11 -19 -11c-12 0 -24.333 5.66699 -37 17c-4 4 -6.33301 11 -7 21l-3 14c0 1.33301 2 6 6 14s6.66699 12.667 8 14
c5.33301 5.33301 14.333 8 27 8z" />
    <glyph glyph-name="copyright" unicode="&#xa9;" horiz-adv-x="754" 
d="M382 686c55.333 0 101.006 -8.00293 137.006 -24.0029c47.333 -20.667 85.666 -51.667 114.999 -93c10.667 -15.333 23.667 -37 39 -65c11.333 -20 22.666 -47.333 33.999 -82c4.66699 -16.667 8 -31.667 10 -45c0 -2 0.166992 -5.16699 0.5 -9.5
s0.666016 -10.333 0.999023 -18s0.5 -15.167 0.5 -22.5c0 -2.66699 0.166992 -5.5 0.5 -8.5s0.5 -5.83301 0.5 -8.5v-3c0 -24 -5.33301 -52.333 -16 -85c-4 -12.667 -9.33301 -25 -16 -37c-0.666992 -1.33301 -2 -3.66602 -4 -6.99902s-4.83301 -7.66602 -8.5 -12.999
l-10.5 -16c-7.33301 -12.667 -20.333 -31.667 -39 -57c-32.667 -32.667 -71 -58.334 -115 -77.001c-28.667 -11.333 -50 -18.666 -64 -21.999c-3.33301 0 -18.333 -1 -45 -3c-29.333 -2 -48.333 -3 -57 -3c-32.667 0 -60.334 4 -83.001 12c-14 4 -33 14.667 -57 32
c-0.666992 0.666992 -11.334 7.66699 -32.001 21c-1.33301 1.33301 -10 9 -26 23c-7.33301 6 -16.333 14 -27 24l-13 17l-18 30c-10.667 16.667 -20.667 31.334 -30 44.001l-1 4c-0.666992 2 -1.66699 5.33301 -3 10l-4 14c-8.66699 22 -13 35 -13 39
c0 8 -0.333008 16.333 -1 25c-0.666992 6 -1.33398 13.667 -2.00098 23l-2 18v-1c0 2.66699 1 14.667 3 36l-2 46c0 24 6.33301 47.667 19 71l21 40l13 20l10 11l10 13l16 16c10 12 19.333 22.333 28 31c12 11.333 23 20 33 26c58 36 124 54 198 54zM349.006 639.997
c-9.33301 0 -19.001 -1.66504 -29.001 -4.99805c-4.66699 -2 -11.667 -4.83301 -21 -8.5l-26.5 -10.5c-8.33301 -3.33301 -16.166 -6.66602 -23.499 -9.99902c-4.66699 -2 -26 -19.333 -64 -52c-10 -8.66699 -23.333 -25.334 -40 -50.001
c-14.667 -20.667 -23 -33.334 -25 -38.001c-3.33301 -6.66699 -7 -16 -11 -28l-5 -18l-3 -43c-6.66699 -14 -10 -23.667 -10 -29c0 -0.666992 0.333008 -4 1 -10s1.66699 -16.333 3 -31l4 -43c1.33301 -11.333 8 -34 20 -68l14 -42c2.66699 -3.33301 16 -15.333 40 -36
c12.667 -16 21 -25.333 25 -28c6 -2.66699 17.333 -9 34 -19c24.667 -13.333 38 -20.666 40 -21.999c18 -7.33301 32 -11.333 42 -12l35 -2c6.66699 0 13 -0.166992 19 -0.5s10.5 -0.666016 13.5 -0.999023s4.83301 -0.5 5.5 -0.5c26 0 45.667 1.66699 59 5
c9.33301 2.66699 21 8 35 16c6 3.33301 26.333 13.333 61 30c9.33301 5.33301 19.333 15.333 30 30l5 5l4 4c13.333 13.333 30 34.333 50 63c10.667 15.333 17.334 26.666 20.001 33.999c2 4.66699 3.66699 14 5 28l2 7c0 10 1.33301 21.333 4 34
c1.33301 9.33301 2 14.666 2 15.999c0 4 -1.5 13.167 -4.5 27.5s-4.5 24.166 -4.5 29.499c0 16 -0.666992 29.333 -2 40c-2.66699 12 -5.33398 23 -8.00098 33c-8 24.667 -20.333 48.667 -37 72l-15 21c-2.66699 4 -15 16.333 -37 37c-8 6 -21.333 17.667 -40 35l-15 13
c-2.66699 2.66699 -21.667 8 -57 16l-54 6zM373.005 544.999c40 0 78.3301 -10.002 114.997 -30.002c4.66699 -2.66699 12.334 -6 23.001 -10c8 -2.66699 12 -18 12 -46c0 -2 -0.166992 -7.16699 -0.5 -15.5s-0.5 -13.833 -0.5 -16.5c1.33301 -12 -1.66699 -18 -9 -18
c-6 0 -12 8 -18 24c-7.33301 12 -12.333 20 -15 24l-1 1c-4 4 -13.667 11 -29 21c-8 6 -19 13 -33 21c-4 2 -13.667 4 -29 6c-14 2 -21.667 3 -23 3c-4 0 -10 -1.66699 -18 -5c-12 -2.66699 -25.667 -10 -41 -22c-10.667 -6 -16.667 -9.66699 -18 -11
c-14 -13.333 -25.333 -29 -34 -47c-6.66699 -14 -10 -23 -10 -27l1 -28c0 -0.666992 -0.666992 -3 -2 -7c-2 -6 -4 -13 -6 -21l3 -28l-2 -19l2 -12l-1 -19c0 -6 6 -19.667 18 -41c8.66699 -16.667 24 -31.667 46 -45c16 -9.33301 33.667 -13.666 53 -12.999h32
c2.66699 0 14.667 0.666992 36 2c5.33301 1.33301 11.333 2.33301 18 3c20 12.667 32.333 25.667 37 39c2.66699 4.66699 7 10.667 13 18c0.666992 0.666992 1.66699 3.33398 3 8.00098c2.66699 10.667 7.33398 16 14.001 16c8 0 12 -6 12 -18v-31
c-0.666992 -2 -1 -7.33301 -1 -16c-1.33301 -16.667 -3 -25.667 -5 -27c-0.666992 -0.666992 -14.667 -8 -42 -22l-19 -6c-17.333 -5.33301 -29.333 -8 -36 -8h-41l-10 1l-20 -1c-18 -0.666992 -45.333 11.666 -82 36.999c-19.333 12.667 -33.333 23.667 -42 33
c-22.667 22.667 -39.667 49 -51 79c-5.33301 14.667 -8 36.334 -8 65.001v13l1 10c0.666992 38 10.334 66.667 29.001 86c3.33301 3.33301 8.33301 9 15 17l16 26c6.66699 10.667 35.667 26 87 46c20 7.33301 40.333 11 61 11z" />
    <glyph glyph-name="ordfeminine" unicode="&#xaa;" horiz-adv-x="300" 
d="M139 456c-4.66699 0 -7.33301 -0.332031 -8 -0.999023l-10 -11c-13.333 -9.33301 -21.333 -14 -24 -14c-10 0 -15 5.66699 -15 17c0 16 11.667 27.667 35 35l8 4c6 2.66699 14.667 4 26 4c16 0 30.667 -4.66699 44 -14c14.667 -10.667 22 -24 22 -40
c0 -14 -0.333008 -28.667 -1 -44v-35v-7v-19c-1.33301 -10 9.33398 -20.667 32.001 -32c-2.66699 -7.33301 -6.66699 -13.333 -12 -18c-11.333 -13.333 -21.666 -20 -30.999 -20c-6 0 -11.667 2 -17 6c-8 5.33301 -13.333 8.66602 -16 9.99902
c-0.666992 -0.666992 -5 -3 -13 -7c-8.66699 -6 -21.334 -9 -38.001 -9c-17.333 0 -31.833 4.83301 -43.5 14.5s-17.5 24.167 -17.5 43.5c0 16 1.66699 27.333 5 34c7.33301 12 22.666 23.667 45.999 35c8.66699 2 25 9.33301 49 22c6 6 9 11.333 9 16
c0 2.66699 -3.66699 9.66699 -11 21c-4 6 -10.333 9 -19 9zM166.001 387.001c-0.666992 0.666992 -6.66699 -3.66602 -18 -12.999l-9.5 -7.5l-7 -5.5c-1.66699 -1.33301 -2.83398 -2.33301 -3.50098 -3c-10.667 -10.667 -16 -21.334 -16 -32.001
c0 -9.33301 5.33301 -16.333 16 -21c8.66699 -3.33301 15.667 -5 21 -5c12.667 0 19.334 9 20.001 27l3 38c0 12.667 -2 20 -6 22z" />
    <glyph glyph-name="guillemotleft" unicode="&#xab;" horiz-adv-x="333" 
d="M292 335c7.33301 0 10.998 -3.3291 10.998 -9.99609c0 -2.66699 -2.66699 -8.33398 -8 -17.001l-9 -18c-2 -4 -11.667 -17.333 -29 -40l-14 -19c-18.667 -18.667 -28 -33 -28 -43c0 -6.66699 4 -15.334 12 -26.001c5.33301 -14 14.333 -28.333 27 -43
c8.66699 -10 15.334 -20 20.001 -30c0 -0.666992 1 -2.33398 3 -5.00098s3.66699 -5.33398 5 -8.00098c8.66699 -14.667 13 -25 13 -31c0 -9.33301 -4.66699 -14 -14 -14c-7.33301 0 -14.333 6.33301 -21 19c0 1.33301 -11.333 13 -34 35c-14 14 -25 26.333 -33 37
c-6 8 -14.667 17.333 -26 28c-11.333 11.333 -17 24.666 -17 39.999c0 4 4.33301 12.333 13 25c2.66699 4.66699 7.33398 11.667 14.001 21c0.666992 1.33301 9.66699 9.33301 27 24c16 21.333 25 33 27 35c0.666992 0.666992 2 1.66699 4 3s4.33301 3 7 5s5.66699 4 9 6
l15 15c7.33301 8.66699 16 12.334 26 11.001zM188.998 354.004c7.33301 0 10.998 -3.33301 10.998 -10c-2 -4 -4.33301 -8.33301 -7 -13l-4 -20c-0.666992 -6.66699 -5.33398 -13.667 -14.001 -21l-4 -4l-3 -3l-2 -1c-2 -4.66699 -7 -13 -15 -25l-6 -9l-11 -16l-14 -15
c-9.33301 -10.667 -14 -19 -14 -25c0 -4 5.33301 -11.667 16 -23c5.33301 -5.33301 11 -15.333 17 -30l7 -13l8 -16c4.66699 -4.66699 9.33398 -9.66699 14.001 -15c17.333 -18.667 26 -35.334 26 -50.001c0 -10 -5 -15 -15 -15c-3.33301 0 -10.333 4 -21 12l-16 11
c-4 3.33301 -11 13.333 -21 30l-3 3c-1.33301 2 -3.83301 5.16699 -7.5 9.5s-7.16699 8.83301 -10.5 13.5l-17 21c-8 5.33301 -18.667 15 -32 29c-10.667 6.66699 -16.667 11.334 -18 14.001c-2.66699 4.66699 -4 9.66699 -4 15s1.66699 10.666 5 15.999
c4.66699 4.66699 11.334 10.667 20.001 18c8.66699 12 17.334 21.333 26.001 28c16 12.667 34 31.334 54 56.001l15 13c5.33301 5.33301 16 15.333 32 30c3.33301 3.33301 6 5 8 5z" />
    <glyph glyph-name="logicalnot" unicode="&#xac;" 
d="M372 0v227h-336v40h428v-267h-92z" />
    <glyph glyph-name="sfthyphen" unicode="&#xad;" horiz-adv-x="198" 
d="M15 226l19.998 -0.99707h17l17 -2c4 0 10 1.33301 18 4c2 0.666992 4.66699 1 8 1c4 0 11.5 -0.5 22.5 -1.5s17.833 -1.5 20.5 -1.5s8.66699 0.666992 18 2s15.333 2 18 2c9.33301 0 17 -4 23 -12c2.66699 -2.66699 4 -5.33398 4 -8.00098
c0 -0.666992 -1.66699 -6 -5 -16c-1.33301 -18 -2.33301 -27.333 -3 -28c-3.33301 -5.33301 -6.66602 -8 -9.99902 -8c-2 0 -7.5 0.833008 -16.5 2.5s-14.833 2.5 -17.5 2.5c-8.66699 0 -17.667 -1 -27 -3c-0.666992 -0.666992 -1.66699 -1 -3 -1s-2.33301 -0.333008 -3 -1
l-28 4l-19 -3c-2.66699 0 -5.16699 0.166992 -7.5 0.5s-4.16602 0.666016 -5.49902 0.999023s-2.33301 0.5 -3 0.5l-20 -3l-12 -1c-1.33301 -0.666992 -4 -1 -8 -1c-4.66699 0 -8.66699 2.66699 -12 8c-0.666992 1.33301 -1 2.66602 -1 3.99902l3 26l3 27
c1.33301 2.66699 4.33301 4.66699 9 6z" />
    <glyph glyph-name="registered" unicode="&#xae;" horiz-adv-x="766" 
d="M364 684c27.333 0 67.335 -8.33203 120.002 -24.999c30 -8.66699 58 -21.334 84 -38.001c10.667 -6 21 -13 31 -21l33 -32c24.667 -20.667 42.667 -42.334 54 -65.001c12 -22 23 -54.667 33 -98c3.33301 -10.667 7.33301 -26 12 -46
c1.33301 -6.66699 2 -14.334 2 -23.001c0 -41.333 -8 -83.666 -24 -126.999c-11.333 -29.333 -22 -52.333 -32 -69l-30 -34c-48 -57.333 -90 -91.333 -126 -102c-4.66699 -1.33301 -19 -3.66602 -43 -6.99902c-2.66699 0 -15.334 -2.33301 -38.001 -7
c-8 -2 -19.333 -3 -34 -3l-27 -3l-30 4l-34 8l-52 9c-0.666992 0.666992 -9.33398 5.66699 -26.001 15c-22.667 10.667 -35.334 17 -38.001 19l-6 5l-11 11c-11.333 8.66699 -21.666 17.334 -30.999 26.001c-3.33301 2 -11.333 11 -24 27c-15.333 14 -29 27 -41 39
c-10 13.333 -17 24.666 -21 33.999c-2 5.33301 -7 20 -15 44l-11 34l-1 24l-2 17l-1 23l-2 49c-1.33301 20 6.66699 49.667 24 89c24.667 60 70 116.333 136 169c44.667 36 101.667 54 171 54zM395.002 35.001l28.9971 -3.00098l44 11c2.66699 0.666992 17.667 5 45 13
c12 4.66699 24.667 12 38 22c2.66699 2.66699 10.834 9.83398 24.501 21.501s23.5 20.5 29.5 26.5c22.667 22.667 35.667 38 39 46c4 5.33301 8.33301 17.333 13 36c6 19.333 13 40.666 21 63.999c2.66699 6 4 12.667 4 20c0 2.66699 -1 10.334 -3 23.001v11
c-0.666992 18.667 -3.66699 45.667 -9 81c-3.33301 20 -6.66602 33 -9.99902 39c-2 5.33301 -7.33301 12.666 -16 21.999l-4 7c-6 6 -13 15 -21 27c-6.66699 10.667 -17.334 19.667 -32.001 27c-10 5.33301 -19.333 13 -28 23c-15.333 14.667 -27.333 24.667 -36 30
c-0.666992 0 -1.66699 0.333008 -3 1s-2.66602 1.5 -3.99902 2.5s-3.16602 2.16699 -5.49902 3.5s-4.83301 2.66602 -7.5 3.99902c-25.333 12 -51 20.333 -77 25c-1.33301 0 -4.83301 0.5 -10.5 1.5l-14.5 2.5c-2 0.666992 -5.66699 1 -11 1c-26 0 -49.333 -1 -70 -3
c-4.66699 0 -9 -0.166992 -13 -0.5s-7 -0.833008 -9 -1.5h-3c-10.667 0 -17 -0.333008 -19 -1c-6 -1.33301 -23.333 -10.666 -52 -27.999c-9.33301 -6.66699 -23.333 -18.334 -42 -35.001c-9.33301 -7.33301 -22.666 -18.666 -39.999 -33.999
c-4.66699 -5.33301 -11 -17.666 -19 -36.999c-11.333 -26 -18 -42.667 -20 -50c-2.66699 -8.66699 -5 -25.667 -7 -51c-2 -20.667 -3 -34.334 -3 -41.001c0 -11.333 2.33301 -29 7 -53c4 -24 7 -38.667 9 -44c0.666992 -1.33301 1.66699 -3.16602 3 -5.49902
s3 -5.83301 5 -10.5s4 -8.66699 6 -12l8 -17l29 -32c6 -15.333 10.667 -24.666 14 -27.999c8.66699 -8.66699 30 -26.334 64 -53.001c11.333 -8 32 -19.333 62 -34c29.333 -14 45.666 -21 48.999 -21zM446.999 326c11.333 -8.66699 19.666 -22.666 24.999 -41.999
c0.666992 -4 4 -12.667 10 -26c4 -18 6.33301 -28.333 7 -31c0.666992 -11.333 3.33398 -22 8.00098 -32c2 -4.66699 5.33301 -7.33398 10 -8.00098l13 -2c10.667 -0.666992 16 -6.33398 16 -17.001c0 -6.66699 -4.33301 -12.334 -13 -17.001l-14 -7
c-21.333 -10.667 -35.666 -16 -42.999 -16c-5.33301 0 -10.333 3.33301 -15 10c-0.666992 0.666992 -3 6.66699 -7 18c-6.66699 17.333 -11 33.333 -13 48l-6 22l-5 29l-3 15c-4 14.667 -8 24 -12 28c-13.333 15.333 -28.666 23 -45.999 23
c-8.66699 0 -14.334 -5 -17.001 -15c-0.666992 -1.33301 -1 -8.66602 -1 -21.999l-2 -20l-1 -18l-2 -19l3 -28c1.33301 -13.333 4 -22.666 8 -27.999c1.33301 -1.33301 8.66602 -5 21.999 -11c7.33301 -4 11 -9 11 -15c0 -6.66699 -3.33301 -10.334 -10 -11.001
c-0.666992 0 -1.83398 -0.166992 -3.50098 -0.5s-4.16699 -0.666016 -7.5 -0.999023s-6.66602 -0.5 -9.99902 -0.5l-20 1h-13c-13.333 2 -20.666 3 -21.999 3s-5.83301 -0.666992 -13.5 -2s-12.834 -2 -15.501 -2c-14.667 0 -22 4.66699 -22 14c0 5.33301 1.66699 9 5 11
l15 11c6.66699 8.66699 11.667 16.334 15 23.001c0.666992 2.66699 1.66699 25 3 67c0.666992 5.33301 1 13.333 1 24l1 11c0 -0.666992 0 0 0 2s-0.166992 3.83301 -0.5 5.5s-0.5 3.83398 -0.5 6.50098c-0.666992 7.33301 -1 18.666 -1 33.999l1 24v8.5v8.5
c0 2.66699 -0.166992 5.16699 -0.5 7.5s-0.5 3.83301 -0.5 4.5v2c0 9.33301 -0.333008 17 -1 23v9c0 14 -1.66699 30.333 -5 49c-2 9.33301 -3.33301 14.666 -4 15.999c-0.666992 4 -4.33398 7.66699 -11.001 11c-8 4 -12 8.66699 -12 14c0 4 0.166992 6.66699 0.5 8
s3.16602 2.83301 8.49902 4.5s14.333 2.5 27 2.5c8 0 14 0.333008 18 1h9c2.66699 0 8.33398 -0.5 17.001 -1.5s14.334 -1.5 17.001 -1.5s5 0.333008 7 1c9.33301 1.33301 14.333 2 15 2c11.333 0 34 -2.66699 68 -8c7.33301 -0.666992 21 -10 41 -28
c6 -6 14 -19.667 24 -41c6.66699 -10.667 10 -22.667 10 -36c0 -18.667 -6 -37 -18 -55c-10.667 -16.667 -25.667 -30 -45 -40zM363.999 349.001l4.99902 -0.00195312h17c12.667 0 26 7 40 21c12.667 12.667 19 29.334 19 50.001c0 1.33301 -0.666992 6.66602 -2 15.999
c-2.66699 7.33301 -4 12.333 -4 15c-0.666992 7.33301 -2.66699 12.333 -6 15c-1.33301 0.666992 -6.33301 5.33398 -15 14.001c-13.333 15.333 -24 23.333 -32 24c-4 0 -12.333 -1.33301 -25 -4c-7.33301 -1.33301 -11.333 -3.33301 -12 -6
c-8.66699 -14.667 -12.667 -26 -12 -34l2 -18l-1 -13v-10c0 -3.33301 0.333008 -7 1 -11c0.666992 -2 1 -4.33301 1 -7l-1 -27c0.666992 -3.33301 1 -8 1 -14c0.666992 -5.33301 3.33398 -8.66602 8.00098 -9.99902c2 -0.666992 7.33301 -1 16 -1z" />
    <glyph glyph-name="macron" unicode="&#xaf;" 
d="M175 482c1.33301 0 3.99902 -0.165039 7.99902 -0.498047s6.33301 -0.5 7 -0.5h4h7c1.33301 0 4.33301 -0.333008 9 -1s7.66699 -1 9 -1c3.33301 0 6 0.333008 8 1c9.33301 2 14.666 3 15.999 3c5.33301 0 13.666 -1.33301 24.999 -4c2.66699 -0.666992 6 -1 10 -1
c4.66699 0 12.334 1.33301 23.001 4s16.334 4 17.001 4c8 0 15 -3.66699 21 -11c2 -2.66699 3 -5.33398 3 -8.00098s-1.33301 -7 -4 -13c-0.666992 -14 -1.66699 -22.667 -3 -26c-2 -4 -5 -6 -9 -6c-3.33301 0 -9 1 -17 3c-3.33301 0.666992 -7.33301 1 -12 1
c-11.333 0 -20.333 -1 -27 -3c-1.33301 -0.666992 -2.66602 -1 -3.99902 -1l-29 3l-5 -1c-4 -1.33301 -6.33301 -2 -7 -2c-1.33301 0 -4.5 0.333008 -9.5 1s-8.16699 1 -9.5 1l-18 -2l-19 -2c-7.33301 0 -11 3.66699 -11 11c0 1.33301 1 8.66602 3 21.999v6v3v6
c0 9.33301 4.66699 14 14 14z" />
    <glyph glyph-name="degree" unicode="&#xb0;" horiz-adv-x="461" 
d="M328 458c-14 -15.333 -32.3311 -26.3311 -54.998 -32.998c-13.333 -4 -23 -6 -29 -6c-52 0 -87.667 11.667 -107 35l-33 57c-4.66699 6.66699 -7 14.667 -7 24c0 24 2.33301 41 7 51c4 11.333 10.667 22.666 20 33.999c14 20 32 35.667 54 47
c17.333 9.33301 36.333 14 57 14c10 0 22.333 -3.66699 37 -11c15.333 -4.66699 26.666 -10.667 33.999 -18c19.333 -20.667 32.666 -44.334 39.999 -71.001c5.33301 -24.667 8 -41 8 -49c0 -14.667 -5 -32 -15 -52zM222.002 626.002c-8.66699 0 -21.667 -4.33301 -39 -13
c-11.333 -5.33301 -19 -11 -23 -17c-9.33301 -11.333 -14 -27.333 -14 -48c0 -4.66699 5.66699 -17.334 17 -38.001c4 -8 8.33301 -14.333 13 -19l13 -9c8 -6.66699 13.667 -10.667 17 -12c6.66699 -1.33301 11 -2 13 -2l22 3
c14.667 0.666992 23.334 2.33398 26.001 5.00098c26 18.667 39 41 39 67c0 9.33301 -3.66699 22 -11 38c-2.66699 6 -5.66699 10.667 -9 14c-0.666992 0 -6.33398 3.66699 -17.001 11c-19.333 13.333 -35 20 -47 20z" />
    </font>
</defs>
</svg>
